{
.appVersion = "1312";
DisplayStrings = (
"ª",
"/breve",
"Á",
">",
"/upArrow",
"/northEastArrow/rightArrow/southEastArrow/downArrow/southWestArrow/leftArrow/northWestArrow",
"/leftRightArrow",
"/upDownArrow",
"Nooo/numero",
"/ring",
"/trademark",
"Ø",
"/emptyset"
);
copyright = "2018 - Chloé Lozano";
customParameters = (
{
name = panose;
value = (
0,
0,
5,
0,
0,
0,
0,
0,
0,
0
);
},
{
name = unicodeRanges;
value = (
0
);
},
{
name = codePageRanges;
value = (
1252
);
},
{
name = vendorID;
value = VTF;
}
);
date = "2018-06-06 01:25:29 +0000";
designer = "Chloé Lozano";
designerURL = "http://chloelozano.fr";
familyName = Compagnon;
fontMaster = (
{
alignmentZones = (
"{590, 13}",
"{430, 13}",
"{0, -13}",
"{-160, -13}"
);
ascender = 590;
capHeight = 590;
customParameters = (
{
name = typoAscender;
value = 590;
},
{
name = typoDescender;
value = -160;
},
{
name = typoLineGap;
value = 450;
},
{
name = winAscent;
value = 1040;
},
{
name = winDescent;
value = 160;
},
{
name = hheaAscender;
value = 1040;
},
{
name = hheaDescender;
value = -160;
}
);
descender = -160;
id = "FFFF8F4E-B79A-404B-9AF7-1E6E36D02A09";
weight = Bold;
weightValue = 700;
widthValue = 5;
xHeight = 430;
}
);
glyphs = (
{
glyphname = A;
lastChange = "2018-07-06 16:40:04 +0000";
layers = (
{
layerId = "FFFF8F4E-B79A-404B-9AF7-1E6E36D02A09";
paths = (
{
closed = 1;
nodes = (
"448 603 OFFCURVE",
"419 589 OFFCURVE",
"370 517 CURVE SMOOTH",
"216 293 LINE",
"100 294 LINE SMOOTH",
"81 294 OFFCURVE",
"61 281 OFFCURVE",
"61 260 CURVE SMOOTH",
"61 237 OFFCURVE",
"74 225 OFFCURVE",
"100 225 CURVE SMOOTH",
"169 225 LINE",
"65 74 LINE",
"49 48 OFFCURVE",
"27 19 OFFCURVE",
"51 -1 CURVE SMOOTH",
"73 -19 OFFCURVE",
"101 0 OFFCURVE",
"123 36 CURVE",
"250 225 LINE",
"456 225 LINE",
"434 47 LINE SMOOTH",
"430 12 OFFCURVE",
"440 -12 OFFCURVE",
"461 -12 CURVE SMOOTH",
"484 -12 OFFCURVE",
"499 3 OFFCURVE",
"504 48 CURVE SMOOTH",
"556 501 LINE SMOOTH",
"561 541 OFFCURVE",
"554 603 OFFCURVE",
"477 603 CURVE SMOOTH"
);
},
{
closed = 1;
nodes = (
"295 293 LINE",
"418 475 LINE SMOOTH",
"451 525 OFFCURVE",
"463 533 OFFCURVE",
"474 533 CURVE SMOOTH",
"498 533 OFFCURVE",
"492 523 OFFCURVE",
"464 293 CURVE"
);
}
);
width = 600;
}
);
note = A;
unicode = 0041;
},
{
glyphname = Aacute;
lastChange = "2018-07-06 16:40:04 +0000";
layers = (
{
layerId = "FFFF8F4E-B79A-404B-9AF7-1E6E36D02A09";
paths = (
{
closed = 1;
nodes = (
"650 761 OFFCURVE",
"636 781 OFFCURVE",
"613 775 CURVE",
"379 728 LINE SMOOTH",
"354 723 OFFCURVE",
"347 706 OFFCURVE",
"349 694 CURVE SMOOTH",
"351 680 OFFCURVE",
"361 665 OFFCURVE",
"389 672 CURVE",
"630 709 LINE",
"656 715 OFFCURVE",
"655 736 OFFCURVE",
"652 751 CURVE SMOOTH"
);
},
{
closed = 1;
nodes = (
"448 603 OFFCURVE",
"419 589 OFFCURVE",
"370 517 CURVE SMOOTH",
"216 293 LINE",
"100 294 LINE SMOOTH",
"81 294 OFFCURVE",
"61 281 OFFCURVE",
"61 260 CURVE SMOOTH",
"61 237 OFFCURVE",
"74 225 OFFCURVE",
"100 225 CURVE SMOOTH",
"169 225 LINE",
"65 74 LINE",
"49 48 OFFCURVE",
"27 19 OFFCURVE",
"51 -1 CURVE SMOOTH",
"73 -19 OFFCURVE",
"101 0 OFFCURVE",
"123 36 CURVE",
"250 225 LINE",
"456 225 LINE",
"434 47 LINE SMOOTH",
"430 12 OFFCURVE",
"440 -12 OFFCURVE",
"461 -12 CURVE SMOOTH",
"484 -12 OFFCURVE",
"499 3 OFFCURVE",
"504 48 CURVE SMOOTH",
"556 501 LINE SMOOTH",
"561 541 OFFCURVE",
"554 603 OFFCURVE",
"477 603 CURVE SMOOTH"
);
},
{
closed = 1;
nodes = (
"295 293 LINE",
"418 475 LINE SMOOTH",
"451 525 OFFCURVE",
"463 533 OFFCURVE",
"474 533 CURVE SMOOTH",
"498 533 OFFCURVE",
"492 523 OFFCURVE",
"464 293 CURVE"
);
}
);
width = 600;
}
);
note = Aacute;
unicode = 00C1;
},
{
glyphname = Acircumflex;
lastChange = "2018-07-06 16:40:04 +0000";
layers = (
{
layerId = "FFFF8F4E-B79A-404B-9AF7-1E6E36D02A09";
paths = (
{
closed = 1;
nodes = (
"290 647 OFFCURVE",
"306 632 OFFCURVE",
"326 641 CURVE SMOOTH",
"477 710 LINE",
"628 641 LINE SMOOTH",
"648 632 OFFCURVE",
"664 647 OFFCURVE",
"668 660 CURVE SMOOTH",
"673 675 OFFCURVE",
"670 697 OFFCURVE",
"649 706 CURVE SMOOTH",
"477 781 LINE",
"305 706 LINE SMOOTH",
"284 697 OFFCURVE",
"281 675 OFFCURVE",
"286 660 CURVE SMOOTH"
);
},
{
closed = 1;
nodes = (
"448 603 OFFCURVE",
"419 589 OFFCURVE",
"370 517 CURVE SMOOTH",
"216 293 LINE",
"100 294 LINE SMOOTH",
"81 294 OFFCURVE",
"61 281 OFFCURVE",
"61 260 CURVE SMOOTH",
"61 237 OFFCURVE",
"74 225 OFFCURVE",
"100 225 CURVE SMOOTH",
"169 225 LINE",
"65 74 LINE",
"49 48 OFFCURVE",
"27 19 OFFCURVE",
"51 -1 CURVE SMOOTH",
"73 -19 OFFCURVE",
"101 0 OFFCURVE",
"123 36 CURVE",
"250 225 LINE",
"456 225 LINE",
"434 47 LINE SMOOTH",
"430 12 OFFCURVE",
"440 -12 OFFCURVE",
"461 -12 CURVE SMOOTH",
"484 -12 OFFCURVE",
"499 3 OFFCURVE",
"504 48 CURVE SMOOTH",
"556 501 LINE SMOOTH",
"561 541 OFFCURVE",
"554 603 OFFCURVE",
"477 603 CURVE SMOOTH"
);
},
{
closed = 1;
nodes = (
"295 293 LINE",
"418 475 LINE SMOOTH",
"451 525 OFFCURVE",
"463 533 OFFCURVE",
"474 533 CURVE SMOOTH",
"498 533 OFFCURVE",
"492 523 OFFCURVE",
"464 293 CURVE"
);
}
);
width = 600;
}
);
note = Acircumflex;
unicode = 00C2;
},
{
glyphname = Adieresis;
lastChange = "2018-07-06 16:40:04 +0000";
layers = (
{
layerId = "FFFF8F4E-B79A-404B-9AF7-1E6E36D02A09";
paths = (
{
closed = 1;
nodes = (
"413 659 OFFCURVE",
"439 685 OFFCURVE",
"439 715 CURVE SMOOTH",
"439 752 OFFCURVE",
"418 776 OFFCURVE",
"379 776 CURVE SMOOTH",
"344 776 OFFCURVE",
"319 751 OFFCURVE",
"319 713 CURVE SMOOTH",
"319 684 OFFCURVE",
"348 659 OFFCURVE",
"379 659 CURVE SMOOTH"
);
},
{
closed = 1;
nodes = (
"612 659 OFFCURVE",
"638 685 OFFCURVE",
"638 715 CURVE SMOOTH",
"638 752 OFFCURVE",
"617 776 OFFCURVE",
"578 776 CURVE SMOOTH",
"543 776 OFFCURVE",
"518 751 OFFCURVE",
"518 713 CURVE SMOOTH",
"518 684 OFFCURVE",
"547 659 OFFCURVE",
"578 659 CURVE SMOOTH"
);
},
{
closed = 1;
nodes = (
"448 603 OFFCURVE",
"419 589 OFFCURVE",
"370 517 CURVE SMOOTH",
"216 293 LINE",
"100 294 LINE SMOOTH",
"81 294 OFFCURVE",
"61 281 OFFCURVE",
"61 260 CURVE SMOOTH",
"61 237 OFFCURVE",
"74 225 OFFCURVE",
"100 225 CURVE SMOOTH",
"169 225 LINE",
"65 74 LINE",
"49 48 OFFCURVE",
"27 19 OFFCURVE",
"51 -1 CURVE SMOOTH",
"73 -19 OFFCURVE",
"101 0 OFFCURVE",
"123 36 CURVE",
"250 225 LINE",
"456 225 LINE",
"434 47 LINE SMOOTH",
"430 12 OFFCURVE",
"440 -12 OFFCURVE",
"461 -12 CURVE SMOOTH",
"484 -12 OFFCURVE",
"499 3 OFFCURVE",
"504 48 CURVE SMOOTH",
"556 501 LINE SMOOTH",
"561 541 OFFCURVE",
"554 603 OFFCURVE",
"477 603 CURVE SMOOTH"
);
},
{
closed = 1;
nodes = (
"295 293 LINE",
"418 475 LINE SMOOTH",
"451 525 OFFCURVE",
"463 533 OFFCURVE",
"474 533 CURVE SMOOTH",
"498 533 OFFCURVE",
"492 523 OFFCURVE",
"464 293 CURVE"
);
}
);
width = 600;
}
);
note = Adieresis;
unicode = 00C4;
},
{
glyphname = Agrave;
lastChange = "2018-07-06 16:40:04 +0000";
layers = (
{
layerId = "FFFF8F4E-B79A-404B-9AF7-1E6E36D02A09";
paths = (
{
closed = 1;
nodes = (
"448 603 OFFCURVE",
"419 589 OFFCURVE",
"370 517 CURVE SMOOTH",
"216 293 LINE",
"100 294 LINE SMOOTH",
"81 294 OFFCURVE",
"61 281 OFFCURVE",
"61 260 CURVE SMOOTH",
"61 237 OFFCURVE",
"74 225 OFFCURVE",
"100 225 CURVE SMOOTH",
"169 225 LINE",
"65 74 LINE",
"49 48 OFFCURVE",
"27 19 OFFCURVE",
"51 -1 CURVE SMOOTH",
"73 -19 OFFCURVE",
"101 0 OFFCURVE",
"123 36 CURVE",
"250 225 LINE",
"456 225 LINE",
"434 47 LINE SMOOTH",
"430 12 OFFCURVE",
"440 -12 OFFCURVE",
"461 -12 CURVE SMOOTH",
"484 -12 OFFCURVE",
"499 3 OFFCURVE",
"504 48 CURVE SMOOTH",
"556 501 LINE SMOOTH",
"561 541 OFFCURVE",
"554 603 OFFCURVE",
"477 603 CURVE SMOOTH"
);
},
{
closed = 1;
nodes = (
"295 293 LINE",
"418 475 LINE SMOOTH",
"451 525 OFFCURVE",
"463 533 OFFCURVE",
"474 533 CURVE SMOOTH",
"498 533 OFFCURVE",
"492 523 OFFCURVE",
"464 293 CURVE"
);
}
);
width = 600;
}
);
note = Agrave;
unicode = 00C0;
},
{
glyphname = Aring;
lastChange = "2018-07-06 16:40:04 +0000";
layers = (
{
layerId = "FFFF8F4E-B79A-404B-9AF7-1E6E36D02A09";
paths = (
{
closed = 1;
nodes = (
"505 658 OFFCURVE",
"531 684 OFFCURVE",
"531 714 CURVE SMOOTH",
"531 751 OFFCURVE",
"510 775 OFFCURVE",
"471 775 CURVE SMOOTH",
"436 775 OFFCURVE",
"411 750 OFFCURVE",
"411 712 CURVE SMOOTH",
"411 683 OFFCURVE",
"440 658 OFFCURVE",
"471 658 CURVE SMOOTH"
);
},
{
closed = 1;
nodes = (
"484 736 OFFCURVE",
"491 728 OFFCURVE",
"491 716 CURVE SMOOTH",
"491 706 OFFCURVE",
"482 697 OFFCURVE",
"471 697 CURVE SMOOTH",
"461 697 OFFCURVE",
"451 706 OFFCURVE",
"451 715 CURVE SMOOTH",
"451 727 OFFCURVE",
"460 736 OFFCURVE",
"471 736 CURVE SMOOTH"
);
},
{
closed = 1;
nodes = (
"448 603 OFFCURVE",
"419 589 OFFCURVE",
"370 517 CURVE SMOOTH",
"216 293 LINE",
"100 294 LINE SMOOTH",
"81 294 OFFCURVE",
"61 281 OFFCURVE",
"61 260 CURVE SMOOTH",
"61 237 OFFCURVE",
"74 225 OFFCURVE",
"100 225 CURVE SMOOTH",
"169 225 LINE",
"65 74 LINE",
"49 48 OFFCURVE",
"27 19 OFFCURVE",
"51 -1 CURVE SMOOTH",
"73 -19 OFFCURVE",
"101 0 OFFCURVE",
"123 36 CURVE",
"250 225 LINE",
"456 225 LINE",
"434 47 LINE SMOOTH",
"430 12 OFFCURVE",
"440 -12 OFFCURVE",
"461 -12 CURVE SMOOTH",
"484 -12 OFFCURVE",
"499 3 OFFCURVE",
"504 48 CURVE SMOOTH",
"556 501 LINE SMOOTH",
"561 541 OFFCURVE",
"554 603 OFFCURVE",
"477 603 CURVE SMOOTH"
);
},
{
closed = 1;
nodes = (
"295 293 LINE",
"418 475 LINE SMOOTH",
"451 525 OFFCURVE",
"463 533 OFFCURVE",
"474 533 CURVE SMOOTH",
"498 533 OFFCURVE",
"492 523 OFFCURVE",
"464 293 CURVE"
);
}
);
width = 600;
}
);
note = Aring;
unicode = 00C5;
},
{
glyphname = Atilde;
lastChange = "2018-07-06 16:40:04 +0000";
layers = (
{
layerId = "FFFF8F4E-B79A-404B-9AF7-1E6E36D02A09";
paths = (
{
closed = 1;
nodes = (
"516 656 OFFCURVE",
"493 668 OFFCURVE",
"479 681 CURVE SMOOTH",
"454 704 OFFCURVE",
"443 718 OFFCURVE",
"419 718 CURVE SMOOTH",
"406 718 OFFCURVE",
"381 697 OFFCURVE",
"352 665 CURVE SMOOTH",
"342 654 OFFCURVE",
"319 652 OFFCURVE",
"307 665 CURVE",
"298 674 OFFCURVE",
"297 692 OFFCURVE",
"307 703 CURVE SMOOTH",
"351 751 OFFCURVE",
"386 776 OFFCURVE",
"420 776 CURVE SMOOTH",
"443 776 OFFCURVE",
"466 766 OFFCURVE",
"484 750 CURVE SMOOTH",
"507 729 OFFCURVE",
"523 714 OFFCURVE",
"541 714 CURVE SMOOTH",
"564 714 OFFCURVE",
"579 731 OFFCURVE",
"607 765 CURVE SMOOTH",
"616 776 OFFCURVE",
"639 779 OFFCURVE",
"650 771 CURVE",
"664 760 OFFCURVE",
"663 739 OFFCURVE",
"654 728 CURVE SMOOTH",
"614 679 OFFCURVE",
"578 655 OFFCURVE",
"541 655 CURVE"
);
},
{
closed = 1;
nodes = (
"448 603 OFFCURVE",
"419 589 OFFCURVE",
"370 517 CURVE SMOOTH",
"216 293 LINE",
"100 294 LINE SMOOTH",
"81 294 OFFCURVE",
"61 281 OFFCURVE",
"61 260 CURVE SMOOTH",
"61 237 OFFCURVE",
"74 225 OFFCURVE",
"100 225 CURVE SMOOTH",
"169 225 LINE",
"65 74 LINE",
"49 48 OFFCURVE",
"27 19 OFFCURVE",
"51 -1 CURVE SMOOTH",
"73 -19 OFFCURVE",
"101 0 OFFCURVE",
"123 36 CURVE",
"250 225 LINE",
"456 225 LINE",
"434 47 LINE SMOOTH",
"430 12 OFFCURVE",
"440 -12 OFFCURVE",
"461 -12 CURVE SMOOTH",
"484 -12 OFFCURVE",
"499 3 OFFCURVE",
"504 48 CURVE SMOOTH",
"556 501 LINE SMOOTH",
"561 541 OFFCURVE",
"554 603 OFFCURVE",
"477 603 CURVE SMOOTH"
);
},
{
closed = 1;
nodes = (
"295 293 LINE",
"418 475 LINE SMOOTH",
"451 525 OFFCURVE",
"463 533 OFFCURVE",
"474 533 CURVE SMOOTH",
"498 533 OFFCURVE",
"492 523 OFFCURVE",
"464 293 CURVE"
);
}
);
width = 600;
}
);
note = Atilde;
unicode = 00C3;
},
{
glyphname = AE;
lastChange = "2018-07-06 16:40:04 +0000";
layers = (
{
layerId = "FFFF8F4E-B79A-404B-9AF7-1E6E36D02A09";
paths = (
{
closed = 1;
nodes = (
"593 82 OFFCURVE",
"570 89 OFFCURVE",
"555 80 CURVE",
"521 62 OFFCURVE",
"485 53 OFFCURVE",
"445 51 CURVE",
"444 306 LINE",
"467 309 OFFCURVE",
"491 310 OFFCURVE",
"518 310 CURVE SMOOTH",
"549 310 OFFCURVE",
"560 327 OFFCURVE",
"560 346 CURVE SMOOTH",
"560 368 OFFCURVE",
"549 374 OFFCURVE",
"530 377 CURVE SMOOTH",
"415 393 OFFCURVE",
"430 541 OFFCURVE",
"491 541 CURVE SMOOTH",
"520 541 OFFCURVE",
"536 517 OFFCURVE",
"529 479 CURVE SMOOTH",
"524 453 OFFCURVE",
"531 442 OFFCURVE",
"553 438 CURVE SMOOTH",
"574 434 OFFCURVE",
"587 440 OFFCURVE",
"596 477 CURVE SMOOTH",
"615 556 OFFCURVE",
"545 603 OFFCURVE",
"496 603 CURVE SMOOTH",
"464 603 OFFCURVE",
"440 595 OFFCURVE",
"423 580 CURVE",
"412 593 OFFCURVE",
"393 602 OFFCURVE",
"364 602 CURVE SMOOTH",
"335 602 OFFCURVE",
"295 588 OFFCURVE",
"257 516 CURVE SMOOTH",
"186 379 LINE",
"39 380 LINE SMOOTH",
"20 380 OFFCURVE",
"0 367 OFFCURVE",
"0 346 CURVE SMOOTH",
"0 323 OFFCURVE",
"13 311 OFFCURVE",
"39 311 CURVE SMOOTH",
"151 311 LINE",
"27 73 LINE",
"11 47 OFFCURVE",
"-11 18 OFFCURVE",
"13 -2 CURVE SMOOTH",
"35 -20 OFFCURVE",
"63 -1 OFFCURVE",
"85 35 CURVE",
"223 311 LINE",
"280 311 LINE",
"236 271 OFFCURVE",
"217 213 OFFCURVE",
"217 165 CURVE SMOOTH",
"217 63 OFFCURVE",
"316 -13 OFFCURVE",
"430 -13 CURVE SMOOTH",
"488 -13 OFFCURVE",
"537 -5 OFFCURVE",
"580 17 CURVE",
"599 25 OFFCURVE",
"607 50 OFFCURVE",
"599 68 CURVE SMOOTH"
);
},
{
closed = 1;
nodes = (
"305 474 LINE SMOOTH",
"330 524 OFFCURVE",
"350 532 OFFCURVE",
"361 532 CURVE SMOOTH",
"378 532 OFFCURVE",
"376 510 OFFCURVE",
"376 500 CURVE SMOOTH",
"376 377 LINE",
"257 378 LINE"
);
},
{
closed = 1;
nodes = (
"287 232 OFFCURVE",
"319 271 OFFCURVE",
"376 291 CURVE",
"375 59 LINE",
"367 61 OFFCURVE",
"359 64 OFFCURVE",
"352 68 CURVE",
"322 92 OFFCURVE",
"287 120 OFFCURVE",
"287 165 CURVE SMOOTH"
);
}
);
width = 600;
}
);
note = AE;
unicode = 00C6;
},
{
glyphname = B;
lastChange = "2018-07-06 16:40:04 +0000";
layers = (
{
layerId = "FFFF8F4E-B79A-404B-9AF7-1E6E36D02A09";
paths = (
{
closed = 1;
nodes = (
"523 344 OFFCURVE",
"574 406 OFFCURVE",
"574 476 CURVE SMOOTH",
"574 554 OFFCURVE",
"533 604 OFFCURVE",
"442 604 CURVE SMOOTH",
"363 604 OFFCURVE",
"283 501 OFFCURVE",
"233 428 CURVE",
"259 526 LINE SMOOTH",
"275 585 OFFCURVE",
"274 603 OFFCURVE",
"239 603 CURVE SMOOTH",
"201 603 OFFCURVE",
"194 579 OFFCURVE",
"187 551 CURVE SMOOTH",
"56 45 LINE SMOOTH",
"49 18 OFFCURVE",
"56 -13 OFFCURVE",
"85 -13 CURVE SMOOTH",
"118 -13 OFFCURVE",
"124 12 OFFCURVE",
"134 49 CURVE SMOOTH",
"183 235 LINE",
"233 329 OFFCURVE",
"367 534 OFFCURVE",
"442 534 CURVE SMOOTH",
"488 534 OFFCURVE",
"504 515 OFFCURVE",
"504 476 CURVE SMOOTH",
"504 435 OFFCURVE",
"469 394 OFFCURVE",
"388 358 CURVE SMOOTH",
"369 349 OFFCURVE",
"328 333 OFFCURVE",
"328 311 CURVE SMOOTH",
"328 287 OFFCURVE",
"357 279 OFFCURVE",
"378 269 CURVE SMOOTH",
"441 239 OFFCURVE",
"471 212 OFFCURVE",
"471 162 CURVE SMOOTH",
"471 104 OFFCURVE",
"425 54 OFFCURVE",
"348 54 CURVE SMOOTH",
"280 54 OFFCURVE",
"254 114 OFFCURVE",
"218 62 CURVE SMOOTH",
"189 20 OFFCURVE",
"280 -16 OFFCURVE",
"347 -16 CURVE SMOOTH",
"469 -16 OFFCURVE",
"541 75 OFFCURVE",
"541 162 CURVE SMOOTH",
"541 226 OFFCURVE",
"499 278 OFFCURVE",
"440 309 CURVE"
);
}
);
width = 600;
}
);
note = B;
unicode = 0042;
},
{
glyphname = C;
lastChange = "2018-07-06 16:40:04 +0000";
layers = (
{
layerId = "FFFF8F4E-B79A-404B-9AF7-1E6E36D02A09";
paths = (
{
closed = 1;
nodes = (
"176 603 OFFCURVE",
"35 439 OFFCURVE",
"35 236 CURVE SMOOTH",
"35 121 OFFCURVE",
"109 -13 OFFCURVE",
"258 -13 CURVE SMOOTH",
"382 -13 OFFCURVE",
"472 56 OFFCURVE",
"556 176 CURVE SMOOTH",
"570 196 OFFCURVE",
"567 216 OFFCURVE",
"545 228 CURVE SMOOTH",
"522 241 OFFCURVE",
"505 231 OFFCURVE",
"487 204 CURVE SMOOTH",
"422 107 OFFCURVE",
"349 57 OFFCURVE",
"260 57 CURVE SMOOTH",
"172 57 OFFCURVE",
"105 134 OFFCURVE",
"105 236 CURVE SMOOTH",
"105 407 OFFCURVE",
"215 536 OFFCURVE",
"369 536 CURVE SMOOTH",
"412 536 OFFCURVE",
"441 516 OFFCURVE",
"441 489 CURVE SMOOTH",
"441 470 OFFCURVE",
"432 447 OFFCURVE",
"412 425 CURVE SMOOTH",
"398 409 OFFCURVE",
"389 386 OFFCURVE",
"407 371 CURVE SMOOTH",
"428 353 OFFCURVE",
"448 362 OFFCURVE",
"471 390 CURVE SMOOTH",
"498 423 OFFCURVE",
"508 461 OFFCURVE",
"508 497 CURVE SMOOTH",
"508 558 OFFCURVE",
"456 603 OFFCURVE",
"368 603 CURVE SMOOTH"
);
}
);
width = 600;
}
);
note = C;
unicode = 0043;
},
{
glyphname = Ccedilla;
lastChange = "2018-07-06 16:40:04 +0000";
layers = (
{
layerId = "FFFF8F4E-B79A-404B-9AF7-1E6E36D02A09";
paths = (
{
closed = 1;
nodes = (
"522 241 OFFCURVE",
"505 231 OFFCURVE",
"487 204 CURVE SMOOTH",
"422 107 OFFCURVE",
"349 57 OFFCURVE",
"260 57 CURVE SMOOTH",
"172 57 OFFCURVE",
"105 134 OFFCURVE",
"105 236 CURVE SMOOTH",
"105 407 OFFCURVE",
"215 536 OFFCURVE",
"369 536 CURVE SMOOTH",
"412 536 OFFCURVE",
"441 516 OFFCURVE",
"441 489 CURVE SMOOTH",
"441 470 OFFCURVE",
"432 447 OFFCURVE",
"412 425 CURVE SMOOTH",
"398 409 OFFCURVE",
"389 386 OFFCURVE",
"407 371 CURVE SMOOTH",
"428 353 OFFCURVE",
"448 362 OFFCURVE",
"471 390 CURVE SMOOTH",
"498 423 OFFCURVE",
"508 461 OFFCURVE",
"508 497 CURVE SMOOTH",
"508 558 OFFCURVE",
"456 603 OFFCURVE",
"368 603 CURVE SMOOTH",
"176 603 OFFCURVE",
"35 439 OFFCURVE",
"35 236 CURVE SMOOTH",
"35 131 OFFCURVE",
"96 11 OFFCURVE",
"219 -10 CURVE",
"206 -56 LINE",
"255 -74 OFFCURVE",
"289 -83 OFFCURVE",
"289 -100 CURVE SMOOTH",
"289 -141 OFFCURVE",
"231 -130 OFFCURVE",
"166 -83 CURVE SMOOTH",
"154 -74 OFFCURVE",
"134 -79 OFFCURVE",
"126 -91 CURVE",
"119 -105 OFFCURVE",
"122 -122 OFFCURVE",
"134 -130 CURVE SMOOTH",
"178 -160 OFFCURVE",
"218 -176 OFFCURVE",
"255 -176 CURVE SMOOTH",
"294 -176 OFFCURVE",
"342 -148 OFFCURVE",
"342 -100 CURVE SMOOTH",
"342 -63 OFFCURVE",
"322 -50 OFFCURVE",
"273 -23 CURVE",
"276 -13 LINE",
"391 -6 OFFCURVE",
"476 62 OFFCURVE",
"556 176 CURVE SMOOTH",
"570 196 OFFCURVE",
"567 216 OFFCURVE",
"545 228 CURVE SMOOTH"
);
}
);
width = 600;
}
);
note = Ccedilla;
unicode = 00C7;
},
{
glyphname = D;
lastChange = "2018-07-06 16:40:04 +0000";
layers = (
{
layerId = "FFFF8F4E-B79A-404B-9AF7-1E6E36D02A09";
paths = (
{
closed = 1;
nodes = (
"78 80 LINE SMOOTH",
"61 15 OFFCURVE",
"119 -13 OFFCURVE",
"234 -13 CURVE SMOOTH",
"406 -13 OFFCURVE",
"571 137 OFFCURVE",
"571 335 CURVE SMOOTH",
"571 509 OFFCURVE",
"456 603 OFFCURVE",
"288 603 CURVE SMOOTH",
"196 603 OFFCURVE",
"126 581 OFFCURVE",
"60 528 CURVE SMOOTH",
"30 504 OFFCURVE",
"19 483 OFFCURVE",
"38 462 CURVE SMOOTH",
"55 444 OFFCURVE",
"77 451 OFFCURVE",
"104 473 CURVE SMOOTH",
"157 516 OFFCURVE",
"212 535 OFFCURVE",
"285 535 CURVE SMOOTH",
"408 535 OFFCURVE",
"498 471 OFFCURVE",
"498 332 CURVE SMOOTH",
"498 181 OFFCURVE",
"373 57 OFFCURVE",
"228 57 CURVE SMOOTH",
"199 57 OFFCURVE",
"181 60 OFFCURVE",
"156 69 CURVE",
"248 437 LINE SMOOTH",
"250 445 OFFCURVE",
"251 452 OFFCURVE",
"251 458 CURVE SMOOTH",
"251 479 OFFCURVE",
"240 489 OFFCURVE",
"221 489 CURVE SMOOTH",
"195 489 OFFCURVE",
"181 482 OFFCURVE",
"169 437 CURVE SMOOTH"
);
}
);
width = 600;
}
);
note = D;
unicode = 0044;
},
{
glyphname = Eth;
lastChange = "2018-07-06 16:40:04 +0000";
layers = (
{
layerId = "FFFF8F4E-B79A-404B-9AF7-1E6E36D02A09";
paths = (
{
closed = 1;
nodes = (
"196 603 OFFCURVE",
"126 581 OFFCURVE",
"60 528 CURVE SMOOTH",
"30 504 OFFCURVE",
"19 483 OFFCURVE",
"38 462 CURVE SMOOTH",
"55 444 OFFCURVE",
"77 451 OFFCURVE",
"104 473 CURVE SMOOTH",
"157 516 OFFCURVE",
"212 535 OFFCURVE",
"285 535 CURVE SMOOTH",
"408 535 OFFCURVE",
"498 471 OFFCURVE",
"498 332 CURVE SMOOTH",
"498 181 OFFCURVE",
"373 57 OFFCURVE",
"228 57 CURVE SMOOTH",
"199 57 OFFCURVE",
"181 60 OFFCURVE",
"156 69 CURVE",
"197 232 LINE",
"341 232 LINE SMOOTH",
"365 232 OFFCURVE",
"375 256 OFFCURVE",
"375 268 CURVE SMOOTH",
"375 281 OFFCURVE",
"365 302 OFFCURVE",
"341 302 CURVE SMOOTH",
"214 302 LINE",
"248 437 LINE SMOOTH",
"250 445 OFFCURVE",
"251 452 OFFCURVE",
"251 458 CURVE SMOOTH",
"251 479 OFFCURVE",
"240 489 OFFCURVE",
"221 489 CURVE SMOOTH",
"195 489 OFFCURVE",
"181 482 OFFCURVE",
"169 437 CURVE SMOOTH",
"135 302 LINE",
"26 302 LINE SMOOTH",
"13 302 OFFCURVE",
"0 281 OFFCURVE",
"0 268 CURVE SMOOTH",
"0 252 OFFCURVE",
"13 232 OFFCURVE",
"26 232 CURVE SMOOTH",
"117 232 LINE",
"78 80 LINE SMOOTH",
"61 15 OFFCURVE",
"119 -13 OFFCURVE",
"234 -13 CURVE SMOOTH",
"406 -13 OFFCURVE",
"571 137 OFFCURVE",
"571 335 CURVE SMOOTH",
"571 509 OFFCURVE",
"456 603 OFFCURVE",
"288 603 CURVE SMOOTH"
);
}
);
width = 600;
}
);
note = Eth;
unicode = 00D0;
},
{
glyphname = E;
lastChange = "2018-07-06 16:40:04 +0000";
layers = (
{
layerId = "FFFF8F4E-B79A-404B-9AF7-1E6E36D02A09";
paths = (
{
closed = 1;
nodes = (
"462 432 OFFCURVE",
"465 421 OFFCURVE",
"487 417 CURVE SMOOTH",
"508 413 OFFCURVE",
"521 419 OFFCURVE",
"530 456 CURVE SMOOTH",
"549 535 OFFCURVE",
"480 604 OFFCURVE",
"377 603 CURVE SMOOTH",
"288 602 OFFCURVE",
"204 562 OFFCURVE",
"204 459 CURVE SMOOTH",
"204 414 OFFCURVE",
"234 370 OFFCURVE",
"278 350 CURVE",
"124 354 OFFCURVE",
"64 245 OFFCURVE",
"64 159 CURVE SMOOTH",
"64 66 OFFCURVE",
"149 -16 OFFCURVE",
"277 -16 CURVE SMOOTH",
"394 -16 OFFCURVE",
"473 29 OFFCURVE",
"542 115 CURVE SMOOTH",
"558 135 OFFCURVE",
"568 164 OFFCURVE",
"547 179 CURVE SMOOTH",
"525 194 OFFCURVE",
"506 178 OFFCURVE",
"491 159 CURVE SMOOTH",
"431 83 OFFCURVE",
"362 50 OFFCURVE",
"281 50 CURVE SMOOTH",
"194 50 OFFCURVE",
"140 96 OFFCURVE",
"140 166 CURVE SMOOTH",
"140 241 OFFCURVE",
"196 306 OFFCURVE",
"352 291 CURVE SMOOTH",
"383 288 OFFCURVE",
"394 309 OFFCURVE",
"394 328 CURVE SMOOTH",
"394 350 OFFCURVE",
"387 359 OFFCURVE",
"364 368 CURVE SMOOTH",
"305 391 OFFCURVE",
"276 421 OFFCURVE",
"276 461 CURVE SMOOTH",
"276 514 OFFCURVE",
"310 540 OFFCURVE",
"372 541 CURVE SMOOTH",
"440 542 OFFCURVE",
"474 496 OFFCURVE",
"467 458 CURVE SMOOTH"
);
}
);
width = 600;
}
);
note = E;
unicode = 0045;
},
{
glyphname = Eacute;
lastChange = "2018-07-06 16:40:04 +0000";
layers = (
{
layerId = "FFFF8F4E-B79A-404B-9AF7-1E6E36D02A09";
paths = (
{
closed = 1;
nodes = (
"550 761 OFFCURVE",
"536 781 OFFCURVE",
"513 775 CURVE",
"279 728 LINE SMOOTH",
"254 723 OFFCURVE",
"247 706 OFFCURVE",
"249 694 CURVE SMOOTH",
"251 680 OFFCURVE",
"261 665 OFFCURVE",
"289 672 CURVE",
"530 709 LINE",
"556 715 OFFCURVE",
"555 736 OFFCURVE",
"552 751 CURVE SMOOTH"
);
},
{
closed = 1;
nodes = (
"462 432 OFFCURVE",
"465 421 OFFCURVE",
"487 417 CURVE SMOOTH",
"508 413 OFFCURVE",
"521 419 OFFCURVE",
"530 456 CURVE SMOOTH",
"549 535 OFFCURVE",
"480 604 OFFCURVE",
"377 603 CURVE SMOOTH",
"288 602 OFFCURVE",
"204 562 OFFCURVE",
"204 459 CURVE SMOOTH",
"204 414 OFFCURVE",
"234 370 OFFCURVE",
"278 350 CURVE",
"124 354 OFFCURVE",
"64 245 OFFCURVE",
"64 159 CURVE SMOOTH",
"64 66 OFFCURVE",
"149 -16 OFFCURVE",
"277 -16 CURVE SMOOTH",
"394 -16 OFFCURVE",
"473 29 OFFCURVE",
"542 115 CURVE SMOOTH",
"558 135 OFFCURVE",
"568 164 OFFCURVE",
"547 179 CURVE SMOOTH",
"525 194 OFFCURVE",
"506 178 OFFCURVE",
"491 159 CURVE SMOOTH",
"431 83 OFFCURVE",
"362 50 OFFCURVE",
"281 50 CURVE SMOOTH",
"194 50 OFFCURVE",
"140 96 OFFCURVE",
"140 166 CURVE SMOOTH",
"140 241 OFFCURVE",
"196 306 OFFCURVE",
"352 291 CURVE SMOOTH",
"383 288 OFFCURVE",
"394 309 OFFCURVE",
"394 328 CURVE SMOOTH",
"394 350 OFFCURVE",
"387 359 OFFCURVE",
"364 368 CURVE SMOOTH",
"305 391 OFFCURVE",
"276 421 OFFCURVE",
"276 461 CURVE SMOOTH",
"276 514 OFFCURVE",
"310 540 OFFCURVE",
"372 541 CURVE SMOOTH",
"440 542 OFFCURVE",
"474 496 OFFCURVE",
"467 458 CURVE SMOOTH"
);
}
);
width = 600;
}
);
note = Eacute;
unicode = 00C9;
},
{
glyphname = Ecircumflex;
lastChange = "2018-07-06 16:40:04 +0000";
layers = (
{
layerId = "FFFF8F4E-B79A-404B-9AF7-1E6E36D02A09";
paths = (
{
closed = 1;
nodes = (
"190 647 OFFCURVE",
"206 632 OFFCURVE",
"226 641 CURVE SMOOTH",
"377 710 LINE",
"528 641 LINE SMOOTH",
"548 632 OFFCURVE",
"564 647 OFFCURVE",
"568 660 CURVE SMOOTH",
"573 675 OFFCURVE",
"570 697 OFFCURVE",
"549 706 CURVE SMOOTH",
"377 781 LINE",
"205 706 LINE SMOOTH",
"184 697 OFFCURVE",
"181 675 OFFCURVE",
"186 660 CURVE SMOOTH"
);
},
{
closed = 1;
nodes = (
"462 432 OFFCURVE",
"465 421 OFFCURVE",
"487 417 CURVE SMOOTH",
"508 413 OFFCURVE",
"521 419 OFFCURVE",
"530 456 CURVE SMOOTH",
"549 535 OFFCURVE",
"480 604 OFFCURVE",
"377 603 CURVE SMOOTH",
"288 602 OFFCURVE",
"204 562 OFFCURVE",
"204 459 CURVE SMOOTH",
"204 414 OFFCURVE",
"234 370 OFFCURVE",
"278 350 CURVE",
"124 354 OFFCURVE",
"64 245 OFFCURVE",
"64 159 CURVE SMOOTH",
"64 66 OFFCURVE",
"149 -16 OFFCURVE",
"277 -16 CURVE SMOOTH",
"394 -16 OFFCURVE",
"473 29 OFFCURVE",
"542 115 CURVE SMOOTH",
"558 135 OFFCURVE",
"568 164 OFFCURVE",
"547 179 CURVE SMOOTH",
"525 194 OFFCURVE",
"506 178 OFFCURVE",
"491 159 CURVE SMOOTH",
"431 83 OFFCURVE",
"362 50 OFFCURVE",
"281 50 CURVE SMOOTH",
"194 50 OFFCURVE",
"140 96 OFFCURVE",
"140 166 CURVE SMOOTH",
"140 241 OFFCURVE",
"196 306 OFFCURVE",
"352 291 CURVE SMOOTH",
"383 288 OFFCURVE",
"394 309 OFFCURVE",
"394 328 CURVE SMOOTH",
"394 350 OFFCURVE",
"387 359 OFFCURVE",
"364 368 CURVE SMOOTH",
"305 391 OFFCURVE",
"276 421 OFFCURVE",
"276 461 CURVE SMOOTH",
"276 514 OFFCURVE",
"310 540 OFFCURVE",
"372 541 CURVE SMOOTH",
"440 542 OFFCURVE",
"474 496 OFFCURVE",
"467 458 CURVE SMOOTH"
);
}
);
width = 600;
}
);
note = Ecircumflex;
unicode = 00CA;
},
{
glyphname = Edieresis;
lastChange = "2018-07-06 16:40:04 +0000";
layers = (
{
layerId = "FFFF8F4E-B79A-404B-9AF7-1E6E36D02A09";
paths = (
{
closed = 1;
nodes = (
"313 659 OFFCURVE",
"339 685 OFFCURVE",
"339 715 CURVE SMOOTH",
"339 752 OFFCURVE",
"318 776 OFFCURVE",
"279 776 CURVE SMOOTH",
"244 776 OFFCURVE",
"219 751 OFFCURVE",
"219 713 CURVE SMOOTH",
"219 684 OFFCURVE",
"248 659 OFFCURVE",
"279 659 CURVE SMOOTH"
);
},
{
closed = 1;
nodes = (
"512 659 OFFCURVE",
"538 685 OFFCURVE",
"538 715 CURVE SMOOTH",
"538 752 OFFCURVE",
"517 776 OFFCURVE",
"478 776 CURVE SMOOTH",
"443 776 OFFCURVE",
"418 751 OFFCURVE",
"418 713 CURVE SMOOTH",
"418 684 OFFCURVE",
"447 659 OFFCURVE",
"478 659 CURVE SMOOTH"
);
},
{
closed = 1;
nodes = (
"462 432 OFFCURVE",
"465 421 OFFCURVE",
"487 417 CURVE SMOOTH",
"508 413 OFFCURVE",
"521 419 OFFCURVE",
"530 456 CURVE SMOOTH",
"549 535 OFFCURVE",
"480 604 OFFCURVE",
"377 603 CURVE SMOOTH",
"288 602 OFFCURVE",
"204 562 OFFCURVE",
"204 459 CURVE SMOOTH",
"204 414 OFFCURVE",
"234 370 OFFCURVE",
"278 350 CURVE",
"124 354 OFFCURVE",
"64 245 OFFCURVE",
"64 159 CURVE SMOOTH",
"64 66 OFFCURVE",
"149 -16 OFFCURVE",
"277 -16 CURVE SMOOTH",
"394 -16 OFFCURVE",
"473 29 OFFCURVE",
"542 115 CURVE SMOOTH",
"558 135 OFFCURVE",
"568 164 OFFCURVE",
"547 179 CURVE SMOOTH",
"525 194 OFFCURVE",
"506 178 OFFCURVE",
"491 159 CURVE SMOOTH",
"431 83 OFFCURVE",
"362 50 OFFCURVE",
"281 50 CURVE SMOOTH",
"194 50 OFFCURVE",
"140 96 OFFCURVE",
"140 166 CURVE SMOOTH",
"140 241 OFFCURVE",
"196 306 OFFCURVE",
"352 291 CURVE SMOOTH",
"383 288 OFFCURVE",
"394 309 OFFCURVE",
"394 328 CURVE SMOOTH",
"394 350 OFFCURVE",
"387 359 OFFCURVE",
"364 368 CURVE SMOOTH",
"305 391 OFFCURVE",
"276 421 OFFCURVE",
"276 461 CURVE SMOOTH",
"276 514 OFFCURVE",
"310 540 OFFCURVE",
"372 541 CURVE SMOOTH",
"440 542 OFFCURVE",
"474 496 OFFCURVE",
"467 458 CURVE SMOOTH"
);
}
);
width = 600;
}
);
note = Edieresis;
unicode = 00CB;
},
{
glyphname = Egrave;
lastChange = "2018-07-06 16:40:04 +0000";
layers = (
{
layerId = "FFFF8F4E-B79A-404B-9AF7-1E6E36D02A09";
paths = (
{
closed = 1;
nodes = (
"203 735 OFFCURVE",
"202 714 OFFCURVE",
"228 708 CURVE",
"469 671 LINE",
"497 664 OFFCURVE",
"507 679 OFFCURVE",
"509 693 CURVE SMOOTH",
"511 705 OFFCURVE",
"504 722 OFFCURVE",
"479 727 CURVE SMOOTH",
"245 774 LINE",
"222 780 OFFCURVE",
"208 760 OFFCURVE",
"206 750 CURVE SMOOTH"
);
},
{
closed = 1;
nodes = (
"462 432 OFFCURVE",
"465 421 OFFCURVE",
"487 417 CURVE SMOOTH",
"508 413 OFFCURVE",
"521 419 OFFCURVE",
"530 456 CURVE SMOOTH",
"549 535 OFFCURVE",
"480 604 OFFCURVE",
"377 603 CURVE SMOOTH",
"288 602 OFFCURVE",
"204 562 OFFCURVE",
"204 459 CURVE SMOOTH",
"204 414 OFFCURVE",
"234 370 OFFCURVE",
"278 350 CURVE",
"124 354 OFFCURVE",
"64 245 OFFCURVE",
"64 159 CURVE SMOOTH",
"64 66 OFFCURVE",
"149 -16 OFFCURVE",
"277 -16 CURVE SMOOTH",
"394 -16 OFFCURVE",
"473 29 OFFCURVE",
"542 115 CURVE SMOOTH",
"558 135 OFFCURVE",
"568 164 OFFCURVE",
"547 179 CURVE SMOOTH",
"525 194 OFFCURVE",
"506 178 OFFCURVE",
"491 159 CURVE SMOOTH",
"431 83 OFFCURVE",
"362 50 OFFCURVE",
"281 50 CURVE SMOOTH",
"194 50 OFFCURVE",
"140 96 OFFCURVE",
"140 166 CURVE SMOOTH",
"140 241 OFFCURVE",
"196 306 OFFCURVE",
"352 291 CURVE SMOOTH",
"383 288 OFFCURVE",
"394 309 OFFCURVE",
"394 328 CURVE SMOOTH",
"394 350 OFFCURVE",
"387 359 OFFCURVE",
"364 368 CURVE SMOOTH",
"305 391 OFFCURVE",
"276 421 OFFCURVE",
"276 461 CURVE SMOOTH",
"276 514 OFFCURVE",
"310 540 OFFCURVE",
"372 541 CURVE SMOOTH",
"440 542 OFFCURVE",
"474 496 OFFCURVE",
"467 458 CURVE SMOOTH"
);
}
);
width = 600;
}
);
note = Egrave;
unicode = 00C8;
},
{
glyphname = F;
lastChange = "2018-07-06 16:40:04 +0000";
layers = (
{
layerId = "FFFF8F4E-B79A-404B-9AF7-1E6E36D02A09";
paths = (
{
closed = 1;
nodes = (
"600 601 OFFCURVE",
"578 603 OFFCURVE",
"563 603 CURVE SMOOTH",
"258 603 LINE SMOOTH",
"92 603 OFFCURVE",
"0 541 OFFCURVE",
"0 430 CURVE SMOOTH",
"0 405 OFFCURVE",
"10 383 OFFCURVE",
"36 383 CURVE SMOOTH",
"60 383 OFFCURVE",
"71 406 OFFCURVE",
"71 430 CURVE SMOOTH",
"71 502 OFFCURVE",
"140 533 OFFCURVE",
"257 533 CURVE SMOOTH",
"320 533 LINE",
"270 336 LINE",
"148 336 LINE SMOOTH",
"128 336 OFFCURVE",
"110 318 OFFCURVE",
"110 300 CURVE SMOOTH",
"110 285 OFFCURVE",
"126 264 OFFCURVE",
"147 266 CURVE",
"171 266 OFFCURVE",
"215 266 OFFCURVE",
"252 267 CURVE",
"178 -13 LINE SMOOTH",
"173 -33 OFFCURVE",
"168 -54 OFFCURVE",
"156 -71 CURVE SMOOTH",
"141 -92 OFFCURVE",
"121 -101 OFFCURVE",
"81 -101 CURVE SMOOTH",
"53 -101 OFFCURVE",
"40 -114 OFFCURVE",
"40 -138 CURVE SMOOTH",
"40 -158 OFFCURVE",
"53 -172 OFFCURVE",
"81 -172 CURVE SMOOTH",
"150 -172 OFFCURVE",
"193 -148 OFFCURVE",
"224 -99 CURVE SMOOTH",
"242 -71 OFFCURVE",
"248 -54 OFFCURVE",
"258 -13 CURVE SMOOTH",
"277 58 OFFCURVE",
"304 162 OFFCURVE",
"331 267 CURVE",
"363 266 OFFCURVE",
"400 266 OFFCURVE",
"425 266 CURVE",
"446 264 OFFCURVE",
"462 285 OFFCURVE",
"462 300 CURVE SMOOTH",
"462 318 OFFCURVE",
"444 336 OFFCURVE",
"424 336 CURVE SMOOTH",
"349 336 LINE",
"368 408 OFFCURVE",
"386 478 OFFCURVE",
"401 533 CURVE",
"544 533 LINE",
"524 455 LINE SMOOTH",
"518 429 OFFCURVE",
"540 419 OFFCURVE",
"556 419 CURVE SMOOTH",
"569 419 OFFCURVE",
"589 427 OFFCURVE",
"595 455 CURVE SMOOTH",
"609 517 LINE SMOOTH",
"614 541 OFFCURVE",
"621 566 OFFCURVE",
"613 579 CURVE SMOOTH"
);
}
);
width = 600;
}
);
note = F;
unicode = 0046;
},
{
glyphname = G;
lastChange = "2018-07-06 16:40:04 +0000";
layers = (
{
layerId = "FFFF8F4E-B79A-404B-9AF7-1E6E36D02A09";
paths = (
{
closed = 1;
nodes = (
"125 -160 OFFCURVE",
"162 -173 OFFCURVE",
"229 -173 CURVE SMOOTH",
"316 -173 OFFCURVE",
"415 -134 OFFCURVE",
"461 29 CURVE SMOOTH",
"504 181 LINE SMOOTH",
"510 203 OFFCURVE",
"512 223 OFFCURVE",
"493 231 CURVE SMOOTH",
"470 241 OFFCURVE",
"455 237 OFFCURVE",
"437 214 CURVE SMOOTH",
"365 121 OFFCURVE",
"306 57 OFFCURVE",
"227 57 CURVE SMOOTH",
"167 57 OFFCURVE",
"125 94 OFFCURVE",
"125 206 CURVE SMOOTH",
"125 388 OFFCURVE",
"271 536 OFFCURVE",
"405 536 CURVE SMOOTH",
"448 536 OFFCURVE",
"477 516 OFFCURVE",
"477 489 CURVE SMOOTH",
"477 470 OFFCURVE",
"468 447 OFFCURVE",
"448 425 CURVE SMOOTH",
"434 409 OFFCURVE",
"425 386 OFFCURVE",
"443 371 CURVE SMOOTH",
"464 353 OFFCURVE",
"484 362 OFFCURVE",
"507 390 CURVE SMOOTH",
"534 423 OFFCURVE",
"544 461 OFFCURVE",
"544 497 CURVE SMOOTH",
"544 558 OFFCURVE",
"492 603 OFFCURVE",
"404 603 CURVE SMOOTH",
"232 603 OFFCURVE",
"55 420 OFFCURVE",
"55 206 CURVE SMOOTH",
"55 81 OFFCURVE",
"104 -13 OFFCURVE",
"225 -13 CURVE SMOOTH",
"306 -13 OFFCURVE",
"368 39 OFFCURVE",
"411 92 CURVE",
"399 41 LINE SMOOTH",
"378 -49 OFFCURVE",
"314 -105 OFFCURVE",
"228 -105 CURVE SMOOTH",
"181 -105 OFFCURVE",
"151 -94 OFFCURVE",
"115 -68 CURVE SMOOTH",
"84 -46 OFFCURVE",
"45 -96 OFFCURVE",
"75 -120 CURVE SMOOTH"
);
}
);
width = 600;
}
);
note = G;
unicode = 0047;
},
{
glyphname = H;
lastChange = "2018-07-06 16:40:04 +0000";
layers = (
{
layerId = "FFFF8F4E-B79A-404B-9AF7-1E6E36D02A09";
paths = (
{
closed = 1;
nodes = (
"179 603 OFFCURVE",
"176 581 OFFCURVE",
"168 553 CURVE SMOOTH",
"36 47 LINE SMOOTH",
"28 20 OFFCURVE",
"29 -10 OFFCURVE",
"58 -11 CURVE SMOOTH",
"82 -12 OFFCURVE",
"95 0 OFFCURVE",
"104 37 CURVE SMOOTH",
"236 543 LINE SMOOTH",
"243 569 OFFCURVE",
"257 603 OFFCURVE",
"217 603 CURVE SMOOTH"
);
},
{
closed = 1;
nodes = (
"530 602 OFFCURVE",
"526 580 OFFCURVE",
"519 552 CURVE SMOOTH",
"451 293 LINE",
"289 292 OFFCURVE",
"197 275 OFFCURVE",
"177 197 CURVE SMOOTH",
"160 132 OFFCURVE",
"258 9 OFFCURVE",
"409 -12 CURVE SMOOTH",
"442 -17 OFFCURVE",
"445 -1 OFFCURVE",
"455 36 CURVE SMOOTH",
"504 224 LINE",
"552 224 LINE SMOOTH",
"567 224 OFFCURVE",
"582 243 OFFCURVE",
"585 259 CURVE SMOOTH",
"589 278 OFFCURVE",
"572 293 OFFCURVE",
"559 293 CURVE SMOOTH",
"522 293 LINE",
"587 542 LINE SMOOTH",
"594 568 OFFCURVE",
"608 602 OFFCURVE",
"568 602 CURVE SMOOTH"
);
},
{
closed = 1;
nodes = (
"390 58 LINE",
"317 69 OFFCURVE",
"236 143 OFFCURVE",
"248 191 CURVE SMOOTH",
"256 224 OFFCURVE",
"336 224 OFFCURVE",
"433 224 CURVE"
);
}
);
width = 600;
}
);
note = H;
unicode = 0048;
},
{
glyphname = I;
lastChange = "2018-07-06 16:40:04 +0000";
layers = (
{
layerId = "FFFF8F4E-B79A-404B-9AF7-1E6E36D02A09";
paths = (
{
closed = 1;
nodes = (
"454 80 OFFCURVE",
"430 87 OFFCURVE",
"415 72 CURVE SMOOTH",
"388 45 OFFCURVE",
"364 45 OFFCURVE",
"344 62 CURVE SMOOTH",
"330 74 OFFCURVE",
"318 89 OFFCURVE",
"334 148 CURVE SMOOTH",
"436 531 LINE SMOOTH",
"443 557 OFFCURVE",
"459 604 OFFCURVE",
"420 605 CURVE SMOOTH",
"419 605 LINE SMOOTH",
"393 605 OFFCURVE",
"383 594 OFFCURVE",
"342 557 CURVE SMOOTH",
"216 443 LINE",
"201 428 OFFCURVE",
"175 404 OFFCURVE",
"189 381 CURVE SMOOTH",
"197 368 OFFCURVE",
"211 344 OFFCURVE",
"245 374 CURVE SMOOTH",
"347 466 LINE",
"270 177 LINE SMOOTH",
"251 105 OFFCURVE",
"251 57 OFFCURVE",
"294 15 CURVE SMOOTH",
"344 -33 OFFCURVE",
"420 -12 OFFCURVE",
"456 24 CURVE SMOOTH",
"471 39 OFFCURVE",
"471 60 OFFCURVE",
"460 73 CURVE SMOOTH"
);
}
);
width = 600;
}
);
note = I;
unicode = 0049;
},
{
glyphname = Iacute;
lastChange = "2018-07-06 16:40:04 +0000";
layers = (
{
layerId = "FFFF8F4E-B79A-404B-9AF7-1E6E36D02A09";
paths = (
{
closed = 1;
nodes = (
"592 763 OFFCURVE",
"578 783 OFFCURVE",
"555 777 CURVE",
"321 730 LINE SMOOTH",
"296 725 OFFCURVE",
"289 708 OFFCURVE",
"291 696 CURVE SMOOTH",
"293 682 OFFCURVE",
"303 667 OFFCURVE",
"331 674 CURVE",
"572 711 LINE",
"598 717 OFFCURVE",
"597 738 OFFCURVE",
"594 753 CURVE SMOOTH"
);
},
{
closed = 1;
nodes = (
"454 80 OFFCURVE",
"430 87 OFFCURVE",
"415 72 CURVE SMOOTH",
"388 45 OFFCURVE",
"364 45 OFFCURVE",
"344 62 CURVE SMOOTH",
"330 74 OFFCURVE",
"318 89 OFFCURVE",
"334 148 CURVE SMOOTH",
"436 531 LINE SMOOTH",
"443 557 OFFCURVE",
"459 604 OFFCURVE",
"420 605 CURVE SMOOTH",
"419 605 LINE SMOOTH",
"393 605 OFFCURVE",
"383 594 OFFCURVE",
"342 557 CURVE SMOOTH",
"216 443 LINE",
"201 428 OFFCURVE",
"175 404 OFFCURVE",
"189 381 CURVE SMOOTH",
"197 368 OFFCURVE",
"211 344 OFFCURVE",
"245 374 CURVE SMOOTH",
"347 466 LINE",
"270 177 LINE SMOOTH",
"251 105 OFFCURVE",
"251 57 OFFCURVE",
"294 15 CURVE SMOOTH",
"344 -33 OFFCURVE",
"420 -12 OFFCURVE",
"456 24 CURVE SMOOTH",
"471 39 OFFCURVE",
"471 60 OFFCURVE",
"460 73 CURVE SMOOTH"
);
}
);
width = 600;
}
);
note = Iacute;
unicode = 00CD;
},
{
glyphname = Icircumflex;
lastChange = "2018-07-06 16:40:04 +0000";
layers = (
{
layerId = "FFFF8F4E-B79A-404B-9AF7-1E6E36D02A09";
paths = (
{
closed = 1;
nodes = (
"232 649 OFFCURVE",
"248 634 OFFCURVE",
"268 643 CURVE SMOOTH",
"419 712 LINE",
"570 643 LINE SMOOTH",
"590 634 OFFCURVE",
"606 649 OFFCURVE",
"610 662 CURVE SMOOTH",
"615 677 OFFCURVE",
"612 699 OFFCURVE",
"591 708 CURVE SMOOTH",
"419 783 LINE",
"247 708 LINE SMOOTH",
"226 699 OFFCURVE",
"223 677 OFFCURVE",
"228 662 CURVE SMOOTH"
);
},
{
closed = 1;
nodes = (
"454 80 OFFCURVE",
"430 87 OFFCURVE",
"415 72 CURVE SMOOTH",
"388 45 OFFCURVE",
"364 45 OFFCURVE",
"344 62 CURVE SMOOTH",
"330 74 OFFCURVE",
"318 89 OFFCURVE",
"334 148 CURVE SMOOTH",
"436 531 LINE SMOOTH",
"443 557 OFFCURVE",
"459 604 OFFCURVE",
"420 605 CURVE SMOOTH",
"419 605 LINE SMOOTH",
"393 605 OFFCURVE",
"383 594 OFFCURVE",
"342 557 CURVE SMOOTH",
"216 443 LINE",
"201 428 OFFCURVE",
"175 404 OFFCURVE",
"189 381 CURVE SMOOTH",
"197 368 OFFCURVE",
"211 344 OFFCURVE",
"245 374 CURVE SMOOTH",
"347 466 LINE",
"270 177 LINE SMOOTH",
"251 105 OFFCURVE",
"251 57 OFFCURVE",
"294 15 CURVE SMOOTH",
"344 -33 OFFCURVE",
"420 -12 OFFCURVE",
"456 24 CURVE SMOOTH",
"471 39 OFFCURVE",
"471 60 OFFCURVE",
"460 73 CURVE SMOOTH"
);
}
);
width = 600;
}
);
note = Icircumflex;
unicode = 00CE;
},
{
glyphname = Idieresis;
lastChange = "2018-07-06 16:40:04 +0000";
layers = (
{
layerId = "FFFF8F4E-B79A-404B-9AF7-1E6E36D02A09";
paths = (
{
closed = 1;
nodes = (
"355 661 OFFCURVE",
"381 687 OFFCURVE",
"381 717 CURVE SMOOTH",
"381 754 OFFCURVE",
"360 778 OFFCURVE",
"321 778 CURVE SMOOTH",
"286 778 OFFCURVE",
"261 753 OFFCURVE",
"261 715 CURVE SMOOTH",
"261 686 OFFCURVE",
"290 661 OFFCURVE",
"321 661 CURVE SMOOTH"
);
},
{
closed = 1;
nodes = (
"554 661 OFFCURVE",
"580 687 OFFCURVE",
"580 717 CURVE SMOOTH",
"580 754 OFFCURVE",
"559 778 OFFCURVE",
"520 778 CURVE SMOOTH",
"485 778 OFFCURVE",
"460 753 OFFCURVE",
"460 715 CURVE SMOOTH",
"460 686 OFFCURVE",
"489 661 OFFCURVE",
"520 661 CURVE SMOOTH"
);
},
{
closed = 1;
nodes = (
"454 80 OFFCURVE",
"430 87 OFFCURVE",
"415 72 CURVE SMOOTH",
"388 45 OFFCURVE",
"364 45 OFFCURVE",
"344 62 CURVE SMOOTH",
"330 74 OFFCURVE",
"318 89 OFFCURVE",
"334 148 CURVE SMOOTH",
"436 531 LINE SMOOTH",
"443 557 OFFCURVE",
"459 604 OFFCURVE",
"420 605 CURVE SMOOTH",
"419 605 LINE SMOOTH",
"393 605 OFFCURVE",
"383 594 OFFCURVE",
"342 557 CURVE SMOOTH",
"216 443 LINE",
"201 428 OFFCURVE",
"175 404 OFFCURVE",
"189 381 CURVE SMOOTH",
"197 368 OFFCURVE",
"211 344 OFFCURVE",
"245 374 CURVE SMOOTH",
"347 466 LINE",
"270 177 LINE SMOOTH",
"251 105 OFFCURVE",
"251 57 OFFCURVE",
"294 15 CURVE SMOOTH",
"344 -33 OFFCURVE",
"420 -12 OFFCURVE",
"456 24 CURVE SMOOTH",
"471 39 OFFCURVE",
"471 60 OFFCURVE",
"460 73 CURVE SMOOTH"
);
}
);
width = 600;
}
);
note = Idieresis;
unicode = 00CF;
},
{
glyphname = Igrave;
lastChange = "2018-07-06 16:40:04 +0000";
layers = (
{
layerId = "FFFF8F4E-B79A-404B-9AF7-1E6E36D02A09";
paths = (
{
closed = 1;
nodes = (
"245 737 OFFCURVE",
"244 716 OFFCURVE",
"270 710 CURVE",
"511 673 LINE",
"539 666 OFFCURVE",
"549 681 OFFCURVE",
"551 695 CURVE SMOOTH",
"553 707 OFFCURVE",
"546 724 OFFCURVE",
"521 729 CURVE SMOOTH",
"287 776 LINE",
"264 782 OFFCURVE",
"250 762 OFFCURVE",
"248 752 CURVE SMOOTH"
);
},
{
closed = 1;
nodes = (
"454 80 OFFCURVE",
"430 87 OFFCURVE",
"415 72 CURVE SMOOTH",
"388 45 OFFCURVE",
"364 45 OFFCURVE",
"344 62 CURVE SMOOTH",
"330 74 OFFCURVE",
"318 89 OFFCURVE",
"334 148 CURVE SMOOTH",
"436 531 LINE SMOOTH",
"443 557 OFFCURVE",
"459 604 OFFCURVE",
"420 605 CURVE SMOOTH",
"419 605 LINE SMOOTH",
"393 605 OFFCURVE",
"383 594 OFFCURVE",
"342 557 CURVE SMOOTH",
"216 443 LINE",
"201 428 OFFCURVE",
"175 404 OFFCURVE",
"189 381 CURVE SMOOTH",
"197 368 OFFCURVE",
"211 344 OFFCURVE",
"245 374 CURVE SMOOTH",
"347 466 LINE",
"270 177 LINE SMOOTH",
"251 105 OFFCURVE",
"251 57 OFFCURVE",
"294 15 CURVE SMOOTH",
"344 -33 OFFCURVE",
"420 -12 OFFCURVE",
"456 24 CURVE SMOOTH",
"471 39 OFFCURVE",
"471 60 OFFCURVE",
"460 73 CURVE SMOOTH"
);
}
);
width = 600;
}
);
note = Igrave;
unicode = 00CC;
},
{
glyphname = J;
lastChange = "2018-07-06 16:40:04 +0000";
layers = (
{
layerId = "FFFF8F4E-B79A-404B-9AF7-1E6E36D02A09";
paths = (
{
closed = 1;
nodes = (
"471 69 LINE",
"564 412 LINE SMOOTH",
"603 556 OFFCURVE",
"540 603 OFFCURVE",
"418 603 CURVE SMOOTH",
"266 603 OFFCURVE",
"133 492 OFFCURVE",
"133 365 CURVE SMOOTH",
"133 329 OFFCURVE",
"148 319 OFFCURVE",
"168 319 CURVE SMOOTH",
"188 319 OFFCURVE",
"203 333 OFFCURVE",
"203 365 CURVE SMOOTH",
"203 457 OFFCURVE",
"288 533 OFFCURVE",
"418 533 CURVE SMOOTH",
"494 533 OFFCURVE",
"502 491 OFFCURVE",
"482 410 CURVE SMOOTH",
"396 69 LINE",
"200 71 LINE SMOOTH",
"98 71 OFFCURVE",
"44 25 OFFCURVE",
"44 -50 CURVE SMOOTH",
"44 -130 OFFCURVE",
"103 -171 OFFCURVE",
"212 -171 CURVE SMOOTH",
"321 -171 OFFCURVE",
"423 -123 OFFCURVE",
"453 -1 CURVE",
"537 -1 LINE SMOOTH",
"558 -1 OFFCURVE",
"572 16 OFFCURVE",
"572 35 CURVE SMOOTH",
"572 49 OFFCURVE",
"558 69 OFFCURVE",
"537 69 CURVE SMOOTH"
);
},
{
closed = 1;
nodes = (
"150 -103 OFFCURVE",
"114 -83 OFFCURVE",
"114 -49 CURVE SMOOTH",
"114 -13 OFFCURVE",
"134 1 OFFCURVE",
"191 1 CURVE SMOOTH",
"380 0 LINE",
"360 -75 OFFCURVE",
"292 -103 OFFCURVE",
"215 -103 CURVE SMOOTH"
);
}
);
width = 600;
}
);
note = J;
unicode = 004A;
},
{
glyphname = K;
lastChange = "2018-07-06 16:40:04 +0000";
layers = (
{
layerId = "FFFF8F4E-B79A-404B-9AF7-1E6E36D02A09";
paths = (
{
closed = 1;
nodes = (
"556 202 OFFCURVE",
"546 203 OFFCURVE",
"528 188 CURVE SMOOTH",
"492 158 OFFCURVE",
"443 116 OFFCURVE",
"410 88 CURVE",
"429 154 LINE SMOOTH",
"452 236 OFFCURVE",
"433 298 OFFCURVE",
"352 298 CURVE",
"422 368 OFFCURVE",
"497 428 OFFCURVE",
"502 564 CURVE SMOOTH",
"504 616 OFFCURVE",
"430 614 OFFCURVE",
"430 564 CURVE SMOOTH",
"430 517 OFFCURVE",
"415 430 OFFCURVE",
"246 294 CURVE SMOOTH",
"238 288 OFFCURVE",
"230 280 OFFCURVE",
"230 264 CURVE SMOOTH",
"230 240 OFFCURVE",
"250 232 OFFCURVE",
"263 232 CURVE SMOOTH",
"362 232 OFFCURVE",
"372 226 OFFCURVE",
"349 146 CURVE SMOOTH",
"321 39 LINE SMOOTH",
"314 13 OFFCURVE",
"329 -8 OFFCURVE",
"356 -13 CURVE SMOOTH",
"378 -17 OFFCURVE",
"401 -2 OFFCURVE",
"422 15 CURVE SMOOTH",
"489 69 OFFCURVE",
"532 108 OFFCURVE",
"571 141 CURVE SMOOTH",
"584 152 OFFCURVE",
"585 183 OFFCURVE",
"568 194 CURVE SMOOTH"
);
},
{
closed = 1;
nodes = (
"255 526 LINE SMOOTH",
"268 570 OFFCURVE",
"265 602 OFFCURVE",
"228 602 CURVE SMOOTH",
"227 602 LINE",
"226 602 LINE SMOOTH",
"204 602 OFFCURVE",
"181 591 OFFCURVE",
"160 574 CURVE SMOOTH",
"93 520 OFFCURVE",
"50 481 OFFCURVE",
"11 448 CURVE SMOOTH",
"-2 437 OFFCURVE",
"-3 406 OFFCURVE",
"14 395 CURVE SMOOTH",
"26 387 OFFCURVE",
"36 386 OFFCURVE",
"54 401 CURVE SMOOTH",
"89 430 OFFCURVE",
"137 471 OFFCURVE",
"170 499 CURVE",
"52 45 LINE SMOOTH",
"45 18 OFFCURVE",
"52 -13 OFFCURVE",
"81 -13 CURVE SMOOTH",
"114 -13 OFFCURVE",
"120 12 OFFCURVE",
"130 49 CURVE SMOOTH"
);
}
);
width = 600;
}
);
note = K;
unicode = 004B;
},
{
glyphname = L;
lastChange = "2018-07-06 16:40:04 +0000";
layers = (
{
layerId = "FFFF8F4E-B79A-404B-9AF7-1E6E36D02A09";
paths = (
{
closed = 1;
nodes = (
"563 430 OFFCURVE",
"574 443 OFFCURVE",
"584 479 CURVE SMOOTH",
"606 562 OFFCURVE",
"542 603 OFFCURVE",
"500 603 CURVE SMOOTH",
"410 603 OFFCURVE",
"377 519 OFFCURVE",
"357 443 CURVE SMOOTH",
"283 159 LINE SMOOTH",
"275 127 OFFCURVE",
"267 102 OFFCURVE",
"258 82 CURVE",
"253 151 OFFCURVE",
"207 205 OFFCURVE",
"130 205 CURVE SMOOTH",
"79 205 OFFCURVE",
"12 175 OFFCURVE",
"12 100 CURVE SMOOTH",
"12 23 OFFCURVE",
"75 -10 OFFCURVE",
"136 -10 CURVE SMOOTH",
"152 -10 OFFCURVE",
"171 -10 OFFCURVE",
"194 -9 CURVE",
"194 -83 OFFCURVE",
"220 -171 OFFCURVE",
"362 -171 CURVE SMOOTH",
"488 -171 OFFCURVE",
"566 -121 OFFCURVE",
"566 0 CURVE SMOOTH",
"566 34 OFFCURVE",
"559 53 OFFCURVE",
"536 53 CURVE SMOOTH",
"513 53 OFFCURVE",
"497 35 OFFCURVE",
"497 0 CURVE SMOOTH",
"497 -82 OFFCURVE",
"445 -103 OFFCURVE",
"362 -103 CURVE SMOOTH",
"276 -103 OFFCURVE",
"262 -53 OFFCURVE",
"262 0 CURVE SMOOTH",
"262 4 LINE",
"316 29 OFFCURVE",
"337 86 OFFCURVE",
"356 161 CURVE SMOOTH",
"430 443 LINE",
"438 479 OFFCURVE",
"454 533 OFFCURVE",
"491 533 CURVE SMOOTH",
"523 533 OFFCURVE",
"524 502 OFFCURVE",
"518 479 CURVE SMOOTH",
"509 446 OFFCURVE",
"520 430 OFFCURVE",
"537 430 CURVE SMOOTH"
);
},
{
closed = 1;
nodes = (
"94 60 OFFCURVE",
"77 75 OFFCURVE",
"77 102 CURVE SMOOTH",
"77 131 OFFCURVE",
"104 139 OFFCURVE",
"127 139 CURVE SMOOTH",
"173 139 OFFCURVE",
"187 111 OFFCURVE",
"187 61 CURVE",
"166 61 OFFCURVE",
"150 60 OFFCURVE",
"133 60 CURVE SMOOTH"
);
}
);
width = 600;
}
);
note = L;
unicode = 004C;
},
{
glyphname = Lslash;
lastChange = "2018-07-06 16:40:04 +0000";
layers = (
{
layerId = "FFFF8F4E-B79A-404B-9AF7-1E6E36D02A09";
paths = (
{
closed = 1;
nodes = (
"563 430 OFFCURVE",
"574 443 OFFCURVE",
"584 479 CURVE SMOOTH",
"606 562 OFFCURVE",
"542 603 OFFCURVE",
"500 603 CURVE SMOOTH",
"410 603 OFFCURVE",
"377 519 OFFCURVE",
"357 443 CURVE SMOOTH",
"326 323 LINE",
"220 272 LINE SMOOTH",
"207 266 OFFCURVE",
"196 244 OFFCURVE",
"204 231 CURVE SMOOTH",
"216 212 OFFCURVE",
"237 213 OFFCURVE",
"254 221 CURVE SMOOTH",
"306 246 LINE",
"283 159 LINE SMOOTH",
"275 127 OFFCURVE",
"267 102 OFFCURVE",
"258 82 CURVE",
"253 151 OFFCURVE",
"207 205 OFFCURVE",
"130 205 CURVE SMOOTH",
"79 205 OFFCURVE",
"12 175 OFFCURVE",
"12 100 CURVE SMOOTH",
"12 23 OFFCURVE",
"75 -10 OFFCURVE",
"136 -10 CURVE SMOOTH",
"152 -10 OFFCURVE",
"171 -10 OFFCURVE",
"194 -9 CURVE",
"194 -83 OFFCURVE",
"220 -171 OFFCURVE",
"362 -171 CURVE SMOOTH",
"488 -171 OFFCURVE",
"566 -121 OFFCURVE",
"566 0 CURVE SMOOTH",
"566 34 OFFCURVE",
"559 53 OFFCURVE",
"536 53 CURVE SMOOTH",
"513 53 OFFCURVE",
"497 35 OFFCURVE",
"497 0 CURVE SMOOTH",
"497 -82 OFFCURVE",
"445 -103 OFFCURVE",
"362 -103 CURVE SMOOTH",
"276 -103 OFFCURVE",
"262 -53 OFFCURVE",
"262 0 CURVE SMOOTH",
"262 4 LINE",
"316 29 OFFCURVE",
"337 86 OFFCURVE",
"356 161 CURVE SMOOTH",
"389 286 LINE",
"482 331 LINE SMOOTH",
"506 342 OFFCURVE",
"524 356 OFFCURVE",
"520 378 CURVE SMOOTH",
"517 396 OFFCURVE",
"496 405 OFFCURVE",
"475 395 CURVE SMOOTH",
"409 363 LINE",
"430 443 LINE",
"438 479 OFFCURVE",
"454 533 OFFCURVE",
"491 533 CURVE SMOOTH",
"523 533 OFFCURVE",
"524 502 OFFCURVE",
"518 479 CURVE SMOOTH",
"509 446 OFFCURVE",
"520 430 OFFCURVE",
"537 430 CURVE SMOOTH"
);
},
{
closed = 1;
nodes = (
"94 60 OFFCURVE",
"77 75 OFFCURVE",
"77 102 CURVE SMOOTH",
"77 131 OFFCURVE",
"104 139 OFFCURVE",
"127 139 CURVE SMOOTH",
"173 139 OFFCURVE",
"187 111 OFFCURVE",
"187 61 CURVE",
"166 61 OFFCURVE",
"150 60 OFFCURVE",
"133 60 CURVE SMOOTH"
);
}
);
width = 600;
}
);
note = Lslash;
unicode = 0141;
},
{
glyphname = M;
lastChange = "2018-07-06 16:40:04 +0000";
layers = (
{
layerId = "FFFF8F4E-B79A-404B-9AF7-1E6E36D02A09";
paths = (
{
closed = 1;
nodes = (
"592 187 OFFCURVE",
"574 188 OFFCURVE",
"561 175 CURVE SMOOTH",
"531 146 OFFCURVE",
"491 113 OFFCURVE",
"463 87 CURVE",
"563 449 OFFCURVE",
"573 474 OFFCURVE",
"573 511 CURVE SMOOTH",
"573 561 OFFCURVE",
"530 602 OFFCURVE",
"484 602 CURVE SMOOTH",
"446 602 OFFCURVE",
"406 579 OFFCURVE",
"379 547 CURVE",
"379 547 OFFCURVE",
"378 546 OFFCURVE",
"378 545 CURVE",
"367 573 OFFCURVE",
"332 602 OFFCURVE",
"295 602 CURVE SMOOTH",
"271 602 OFFCURVE",
"246 589 OFFCURVE",
"224 571 CURVE",
"226 590 OFFCURVE",
"218 601 OFFCURVE",
"199 603 CURVE SMOOTH",
"182 605 OFFCURVE",
"157 600 OFFCURVE",
"149 567 CURVE",
"106 416 OFFCURVE",
"83 318 OFFCURVE",
"12 49 CURVE SMOOTH",
"8 35 OFFCURVE",
"7 23 OFFCURVE",
"7 15 CURVE SMOOTH",
"7 -6 OFFCURVE",
"16 -12 OFFCURVE",
"32 -12 CURVE SMOOTH",
"55 -12 OFFCURVE",
"66 1 OFFCURVE",
"79 49 CURVE SMOOTH",
"192 458 LINE",
"201 478 OFFCURVE",
"212 494 OFFCURVE",
"223 505 CURVE SMOOTH",
"243 524 OFFCURVE",
"271 538 OFFCURVE",
"292 538 CURVE SMOOTH",
"309 538 OFFCURVE",
"317 531 OFFCURVE",
"317 514 CURVE SMOOTH",
"317 499 OFFCURVE",
"312 479 OFFCURVE",
"305 456 CURVE SMOOTH",
"195 47 LINE SMOOTH",
"191 33 OFFCURVE",
"190 23 OFFCURVE",
"190 14 CURVE SMOOTH",
"190 -7 OFFCURVE",
"200 -14 OFFCURVE",
"217 -14 CURVE SMOOTH",
"240 -14 OFFCURVE",
"250 -1 OFFCURVE",
"263 47 CURVE SMOOTH",
"368 425 LINE",
"381 462 OFFCURVE",
"395 489 OFFCURVE",
"412 505 CURVE SMOOTH",
"432 524 OFFCURVE",
"460 538 OFFCURVE",
"481 538 CURVE SMOOTH",
"498 538 OFFCURVE",
"506 531 OFFCURVE",
"506 514 CURVE SMOOTH",
"506 499 OFFCURVE",
"501 479 OFFCURVE",
"494 456 CURVE SMOOTH",
"382 43 LINE SMOOTH",
"375 17 OFFCURVE",
"388 -5 OFFCURVE",
"415 -9 CURVE SMOOTH",
"437 -12 OFFCURVE",
"459 -1 OFFCURVE",
"472 9 CURVE SMOOTH",
"532 55 OFFCURVE",
"573 103 OFFCURVE",
"608 136 CURVE",
"620 149 OFFCURVE",
"617 173 OFFCURVE",
"603 181 CURVE SMOOTH"
);
}
);
width = 600;
}
);
note = M;
unicode = 004D;
},
{
glyphname = N;
lastChange = "2018-08-08 16:32:26 +0000";
layers = (
{
layerId = "FFFF8F4E-B79A-404B-9AF7-1E6E36D02A09";
paths = (
{
closed = 1;
nodes = (
"561 202 OFFCURVE",
"551 203 OFFCURVE",
"533 188 CURVE SMOOTH",
"497 158 OFFCURVE",
"448 116 OFFCURVE",
"415 88 CURVE",
"515 443 LINE SMOOTH",
"543 541 OFFCURVE",
"528 602 OFFCURVE",
"421 602 CURVE SMOOTH",
"367 602 OFFCURVE",
"287 567 OFFCURVE",
"194 412 CURVE",
"236 552 LINE SMOOTH",
"245 582 OFFCURVE",
"240 599 OFFCURVE",
"215 602 CURVE SMOOTH",
"198 604 OFFCURVE",
"173 599 OFFCURVE",
"165 566 CURVE SMOOTH",
"161 550 OFFCURVE",
"155 530 OFFCURVE",
"26 69 CURVE SMOOTH",
"11 14 OFFCURVE",
"8 -7 OFFCURVE",
"37 -13 CURVE SMOOTH",
"68 -19 OFFCURVE",
"83 12 OFFCURVE",
"97 55 CURVE SMOOTH",
"218 426 OFFCURVE",
"350 527 OFFCURVE",
"411 527 CURVE SMOOTH",
"454 527 OFFCURVE",
"456 500 OFFCURVE",
"432 416 CURVE SMOOTH",
"326 39 LINE SMOOTH",
"319 13 OFFCURVE",
"334 -8 OFFCURVE",
"361 -13 CURVE SMOOTH",
"383 -17 OFFCURVE",
"406 -2 OFFCURVE",
"427 15 CURVE SMOOTH",
"494 69 OFFCURVE",
"537 108 OFFCURVE",
"576 141 CURVE SMOOTH",
"589 152 OFFCURVE",
"590 183 OFFCURVE",
"573 194 CURVE SMOOTH"
);
}
);
width = 600;
}
);
note = N;
unicode = 004E;
},
{
glyphname = Ntilde;
lastChange = "2018-07-06 16:40:04 +0000";
layers = (
{
layerId = "FFFF8F4E-B79A-404B-9AF7-1E6E36D02A09";
paths = (
{
closed = 1;
nodes = (
"460 655 OFFCURVE",
"437 667 OFFCURVE",
"423 680 CURVE SMOOTH",
"398 703 OFFCURVE",
"387 717 OFFCURVE",
"363 717 CURVE SMOOTH",
"350 717 OFFCURVE",
"325 696 OFFCURVE",
"296 664 CURVE SMOOTH",
"286 653 OFFCURVE",
"263 651 OFFCURVE",
"251 664 CURVE",
"242 673 OFFCURVE",
"241 691 OFFCURVE",
"251 702 CURVE SMOOTH",
"295 750 OFFCURVE",
"330 775 OFFCURVE",
"364 775 CURVE SMOOTH",
"387 775 OFFCURVE",
"410 765 OFFCURVE",
"428 749 CURVE SMOOTH",
"451 728 OFFCURVE",
"467 713 OFFCURVE",
"485 713 CURVE SMOOTH",
"508 713 OFFCURVE",
"523 730 OFFCURVE",
"551 764 CURVE SMOOTH",
"560 775 OFFCURVE",
"583 778 OFFCURVE",
"594 770 CURVE",
"608 759 OFFCURVE",
"607 738 OFFCURVE",
"598 727 CURVE SMOOTH",
"558 678 OFFCURVE",
"522 654 OFFCURVE",
"485 654 CURVE"
);
},
{
closed = 1;
nodes = (
"561 202 OFFCURVE",
"551 203 OFFCURVE",
"533 188 CURVE SMOOTH",
"497 158 OFFCURVE",
"448 116 OFFCURVE",
"415 88 CURVE",
"515 443 LINE SMOOTH",
"543 541 OFFCURVE",
"528 602 OFFCURVE",
"421 602 CURVE SMOOTH",
"367 602 OFFCURVE",
"287 567 OFFCURVE",
"194 412 CURVE",
"236 552 LINE SMOOTH",
"245 582 OFFCURVE",
"240 599 OFFCURVE",
"215 602 CURVE SMOOTH",
"198 604 OFFCURVE",
"173 599 OFFCURVE",
"165 566 CURVE SMOOTH",
"161 550 OFFCURVE",
"155 530 OFFCURVE",
"26 69 CURVE SMOOTH",
"11 14 OFFCURVE",
"8 -7 OFFCURVE",
"37 -13 CURVE SMOOTH",
"68 -19 OFFCURVE",
"83 12 OFFCURVE",
"97 55 CURVE SMOOTH",
"218 426 OFFCURVE",
"350 527 OFFCURVE",
"411 527 CURVE SMOOTH",
"454 527 OFFCURVE",
"456 500 OFFCURVE",
"432 416 CURVE SMOOTH",
"326 39 LINE SMOOTH",
"319 13 OFFCURVE",
"334 -8 OFFCURVE",
"361 -13 CURVE SMOOTH",
"383 -17 OFFCURVE",
"406 -2 OFFCURVE",
"427 15 CURVE SMOOTH",
"494 69 OFFCURVE",
"537 108 OFFCURVE",
"576 141 CURVE SMOOTH",
"589 152 OFFCURVE",
"590 183 OFFCURVE",
"573 194 CURVE SMOOTH"
);
}
);
width = 600;
}
);
note = Ntilde;
unicode = 00D1;
},
{
glyphname = O;
lastChange = "2018-07-06 16:40:04 +0000";
layers = (
{
layerId = "FFFF8F4E-B79A-404B-9AF7-1E6E36D02A09";
paths = (
{
closed = 1;
nodes = (
"356 488 OFFCURVE",
"318 499 OFFCURVE",
"296 499 CURVE SMOOTH",
"240 499 OFFCURVE",
"165 461 OFFCURVE",
"114 405 CURVE SMOOTH",
"61 346 OFFCURVE",
"29 267 OFFCURVE",
"29 187 CURVE SMOOTH",
"29 64 OFFCURVE",
"108 -13 OFFCURVE",
"231 -13 CURVE SMOOTH",
"414 -13 OFFCURVE",
"563 159 OFFCURVE",
"563 351 CURVE SMOOTH",
"563 488 OFFCURVE",
"503 603 OFFCURVE",
"325 603 CURVE SMOOTH",
"293 603 OFFCURVE",
"275 585 OFFCURVE",
"275 568 CURVE SMOOTH",
"275 538 OFFCURVE",
"305 533 OFFCURVE",
"325 533 CURVE SMOOTH",
"414 533 OFFCURVE",
"493 475 OFFCURVE",
"493 351 CURVE SMOOTH",
"493 194 OFFCURVE",
"384 57 OFFCURVE",
"231 57 CURVE SMOOTH",
"165 57 OFFCURVE",
"99 90 OFFCURVE",
"99 187 CURVE SMOOTH",
"99 250 OFFCURVE",
"133 323 OFFCURVE",
"180 369 CURVE SMOOTH",
"212 401 OFFCURVE",
"258 428 OFFCURVE",
"296 429 CURVE SMOOTH",
"334 430 OFFCURVE",
"356 436 OFFCURVE",
"356 464 CURVE SMOOTH"
);
}
);
width = 600;
}
);
note = O;
unicode = 004F;
},
{
glyphname = Oacute;
lastChange = "2018-07-06 16:40:04 +0000";
layers = (
{
layerId = "FFFF8F4E-B79A-404B-9AF7-1E6E36D02A09";
paths = (
{
closed = 1;
nodes = (
"547 759 OFFCURVE",
"533 779 OFFCURVE",
"510 773 CURVE",
"276 726 LINE SMOOTH",
"251 721 OFFCURVE",
"244 704 OFFCURVE",
"246 692 CURVE SMOOTH",
"248 678 OFFCURVE",
"258 663 OFFCURVE",
"286 670 CURVE",
"527 707 LINE",
"553 713 OFFCURVE",
"552 734 OFFCURVE",
"549 749 CURVE SMOOTH"
);
},
{
closed = 1;
nodes = (
"356 488 OFFCURVE",
"318 499 OFFCURVE",
"296 499 CURVE SMOOTH",
"240 499 OFFCURVE",
"165 461 OFFCURVE",
"114 405 CURVE SMOOTH",
"61 346 OFFCURVE",
"29 267 OFFCURVE",
"29 187 CURVE SMOOTH",
"29 64 OFFCURVE",
"108 -13 OFFCURVE",
"231 -13 CURVE SMOOTH",
"414 -13 OFFCURVE",
"563 159 OFFCURVE",
"563 351 CURVE SMOOTH",
"563 488 OFFCURVE",
"503 603 OFFCURVE",
"325 603 CURVE SMOOTH",
"293 603 OFFCURVE",
"275 585 OFFCURVE",
"275 568 CURVE SMOOTH",
"275 538 OFFCURVE",
"305 533 OFFCURVE",
"325 533 CURVE SMOOTH",
"414 533 OFFCURVE",
"493 475 OFFCURVE",
"493 351 CURVE SMOOTH",
"493 194 OFFCURVE",
"384 57 OFFCURVE",
"231 57 CURVE SMOOTH",
"165 57 OFFCURVE",
"99 90 OFFCURVE",
"99 187 CURVE SMOOTH",
"99 250 OFFCURVE",
"133 323 OFFCURVE",
"180 369 CURVE SMOOTH",
"212 401 OFFCURVE",
"258 428 OFFCURVE",
"296 429 CURVE SMOOTH",
"334 430 OFFCURVE",
"356 436 OFFCURVE",
"356 464 CURVE SMOOTH"
);
}
);
width = 600;
}
);
note = Oacute;
unicode = 00D3;
},
{
glyphname = Ocircumflex;
lastChange = "2018-07-06 16:40:04 +0000";
layers = (
{
layerId = "FFFF8F4E-B79A-404B-9AF7-1E6E36D02A09";
paths = (
{
closed = 1;
nodes = (
"187 645 OFFCURVE",
"203 630 OFFCURVE",
"223 639 CURVE SMOOTH",
"374 708 LINE",
"525 639 LINE SMOOTH",
"545 630 OFFCURVE",
"561 645 OFFCURVE",
"565 658 CURVE SMOOTH",
"570 673 OFFCURVE",
"567 695 OFFCURVE",
"546 704 CURVE SMOOTH",
"374 779 LINE",
"202 704 LINE SMOOTH",
"181 695 OFFCURVE",
"178 673 OFFCURVE",
"183 658 CURVE SMOOTH"
);
},
{
closed = 1;
nodes = (
"356 488 OFFCURVE",
"318 499 OFFCURVE",
"296 499 CURVE SMOOTH",
"240 499 OFFCURVE",
"165 461 OFFCURVE",
"114 405 CURVE SMOOTH",
"61 346 OFFCURVE",
"29 267 OFFCURVE",
"29 187 CURVE SMOOTH",
"29 64 OFFCURVE",
"108 -13 OFFCURVE",
"231 -13 CURVE SMOOTH",
"414 -13 OFFCURVE",
"563 159 OFFCURVE",
"563 351 CURVE SMOOTH",
"563 488 OFFCURVE",
"503 603 OFFCURVE",
"325 603 CURVE SMOOTH",
"293 603 OFFCURVE",
"275 585 OFFCURVE",
"275 568 CURVE SMOOTH",
"275 538 OFFCURVE",
"305 533 OFFCURVE",
"325 533 CURVE SMOOTH",
"414 533 OFFCURVE",
"493 475 OFFCURVE",
"493 351 CURVE SMOOTH",
"493 194 OFFCURVE",
"384 57 OFFCURVE",
"231 57 CURVE SMOOTH",
"165 57 OFFCURVE",
"99 90 OFFCURVE",
"99 187 CURVE SMOOTH",
"99 250 OFFCURVE",
"133 323 OFFCURVE",
"180 369 CURVE SMOOTH",
"212 401 OFFCURVE",
"258 428 OFFCURVE",
"296 429 CURVE SMOOTH",
"334 430 OFFCURVE",
"356 436 OFFCURVE",
"356 464 CURVE SMOOTH"
);
}
);
width = 600;
}
);
note = Ocircumflex;
unicode = 00D4;
},
{
glyphname = Odieresis;
lastChange = "2018-07-06 16:40:04 +0000";
layers = (
{
layerId = "FFFF8F4E-B79A-404B-9AF7-1E6E36D02A09";
paths = (
{
closed = 1;
nodes = (
"310 657 OFFCURVE",
"336 683 OFFCURVE",
"336 713 CURVE SMOOTH",
"336 750 OFFCURVE",
"315 774 OFFCURVE",
"276 774 CURVE SMOOTH",
"241 774 OFFCURVE",
"216 749 OFFCURVE",
"216 711 CURVE SMOOTH",
"216 682 OFFCURVE",
"245 657 OFFCURVE",
"276 657 CURVE SMOOTH"
);
},
{
closed = 1;
nodes = (
"509 657 OFFCURVE",
"535 683 OFFCURVE",
"535 713 CURVE SMOOTH",
"535 750 OFFCURVE",
"514 774 OFFCURVE",
"475 774 CURVE SMOOTH",
"440 774 OFFCURVE",
"415 749 OFFCURVE",
"415 711 CURVE SMOOTH",
"415 682 OFFCURVE",
"444 657 OFFCURVE",
"475 657 CURVE SMOOTH"
);
},
{
closed = 1;
nodes = (
"356 488 OFFCURVE",
"318 499 OFFCURVE",
"296 499 CURVE SMOOTH",
"240 499 OFFCURVE",
"165 461 OFFCURVE",
"114 405 CURVE SMOOTH",
"61 346 OFFCURVE",
"29 267 OFFCURVE",
"29 187 CURVE SMOOTH",
"29 64 OFFCURVE",
"108 -13 OFFCURVE",
"231 -13 CURVE SMOOTH",
"414 -13 OFFCURVE",
"563 159 OFFCURVE",
"563 351 CURVE SMOOTH",
"563 488 OFFCURVE",
"503 603 OFFCURVE",
"325 603 CURVE SMOOTH",
"293 603 OFFCURVE",
"275 585 OFFCURVE",
"275 568 CURVE SMOOTH",
"275 538 OFFCURVE",
"305 533 OFFCURVE",
"325 533 CURVE SMOOTH",
"414 533 OFFCURVE",
"493 475 OFFCURVE",
"493 351 CURVE SMOOTH",
"493 194 OFFCURVE",
"384 57 OFFCURVE",
"231 57 CURVE SMOOTH",
"165 57 OFFCURVE",
"99 90 OFFCURVE",
"99 187 CURVE SMOOTH",
"99 250 OFFCURVE",
"133 323 OFFCURVE",
"180 369 CURVE SMOOTH",
"212 401 OFFCURVE",
"258 428 OFFCURVE",
"296 429 CURVE SMOOTH",
"334 430 OFFCURVE",
"356 436 OFFCURVE",
"356 464 CURVE SMOOTH"
);
}
);
width = 600;
}
);
note = Odieresis;
unicode = 00D6;
},
{
glyphname = Ograve;
lastChange = "2018-07-06 16:40:04 +0000";
layers = (
{
layerId = "FFFF8F4E-B79A-404B-9AF7-1E6E36D02A09";
paths = (
{
closed = 1;
nodes = (
"200 733 OFFCURVE",
"199 712 OFFCURVE",
"225 706 CURVE",
"466 669 LINE",
"494 662 OFFCURVE",
"504 677 OFFCURVE",
"506 691 CURVE SMOOTH",
"508 703 OFFCURVE",
"501 720 OFFCURVE",
"476 725 CURVE SMOOTH",
"242 772 LINE",
"219 778 OFFCURVE",
"205 758 OFFCURVE",
"203 748 CURVE SMOOTH"
);
},
{
closed = 1;
nodes = (
"356 488 OFFCURVE",
"318 499 OFFCURVE",
"296 499 CURVE SMOOTH",
"240 499 OFFCURVE",
"165 461 OFFCURVE",
"114 405 CURVE SMOOTH",
"61 346 OFFCURVE",
"29 267 OFFCURVE",
"29 187 CURVE SMOOTH",
"29 64 OFFCURVE",
"108 -13 OFFCURVE",
"231 -13 CURVE SMOOTH",
"414 -13 OFFCURVE",
"563 159 OFFCURVE",
"563 351 CURVE SMOOTH",
"563 488 OFFCURVE",
"503 603 OFFCURVE",
"325 603 CURVE SMOOTH",
"293 603 OFFCURVE",
"275 585 OFFCURVE",
"275 568 CURVE SMOOTH",
"275 538 OFFCURVE",
"305 533 OFFCURVE",
"325 533 CURVE SMOOTH",
"414 533 OFFCURVE",
"493 475 OFFCURVE",
"493 351 CURVE SMOOTH",
"493 194 OFFCURVE",
"384 57 OFFCURVE",
"231 57 CURVE SMOOTH",
"165 57 OFFCURVE",
"99 90 OFFCURVE",
"99 187 CURVE SMOOTH",
"99 250 OFFCURVE",
"133 323 OFFCURVE",
"180 369 CURVE SMOOTH",
"212 401 OFFCURVE",
"258 428 OFFCURVE",
"296 429 CURVE SMOOTH",
"334 430 OFFCURVE",
"356 436 OFFCURVE",
"356 464 CURVE SMOOTH"
);
}
);
width = 600;
}
);
note = Ograve;
unicode = 00D2;
},
{
glyphname = Oslash;
lastChange = "2018-07-06 16:40:04 +0000";
layers = (
{
layerId = "FFFF8F4E-B79A-404B-9AF7-1E6E36D02A09";
paths = (
{
closed = 1;
nodes = (
"573 514 OFFCURVE",
"551 512 OFFCURVE",
"531 499 CURVE",
"496 561 OFFCURVE",
"432 603 OFFCURVE",
"325 603 CURVE SMOOTH",
"293 603 OFFCURVE",
"275 585 OFFCURVE",
"275 568 CURVE SMOOTH",
"275 538 OFFCURVE",
"305 533 OFFCURVE",
"325 533 CURVE SMOOTH",
"386 533 OFFCURVE",
"442 506 OFFCURVE",
"471 449 CURVE",
"105 141 LINE",
"101 154 OFFCURVE",
"99 170 OFFCURVE",
"99 187 CURVE SMOOTH",
"99 250 OFFCURVE",
"133 323 OFFCURVE",
"180 369 CURVE SMOOTH",
"212 401 OFFCURVE",
"258 428 OFFCURVE",
"296 429 CURVE SMOOTH",
"334 430 OFFCURVE",
"356 436 OFFCURVE",
"356 464 CURVE SMOOTH",
"356 488 OFFCURVE",
"318 499 OFFCURVE",
"296 499 CURVE SMOOTH",
"240 499 OFFCURVE",
"165 461 OFFCURVE",
"114 405 CURVE SMOOTH",
"61 346 OFFCURVE",
"29 267 OFFCURVE",
"29 187 CURVE SMOOTH",
"29 151 OFFCURVE",
"36 120 OFFCURVE",
"48 93 CURVE",
"15 65 LINE SMOOTH",
"-2 50 OFFCURVE",
"-4 30 OFFCURVE",
"11 15 CURVE SMOOTH",
"26 0 OFFCURVE",
"56 1 OFFCURVE",
"75 18 CURVE",
"93 33 LINE",
"127 3 OFFCURVE",
"174 -13 OFFCURVE",
"231 -13 CURVE SMOOTH",
"414 -13 OFFCURVE",
"563 159 OFFCURVE",
"563 351 CURVE SMOOTH",
"563 377 OFFCURVE",
"561 402 OFFCURVE",
"556 425 CURVE",
"581 446 LINE SMOOTH",
"598 460 OFFCURVE",
"611 485 OFFCURVE",
"590 501 CURVE SMOOTH"
);
},
{
closed = 1;
nodes = (
"493 194 OFFCURVE",
"384 57 OFFCURVE",
"231 57 CURVE SMOOTH",
"201 57 OFFCURVE",
"172 64 OFFCURVE",
"148 80 CURVE",
"492 371 LINE",
"493 365 OFFCURVE",
"493 358 OFFCURVE",
"493 351 CURVE SMOOTH"
);
}
);
width = 600;
}
);
note = Oslash;
unicode = 00D8;
},
{
glyphname = Otilde;
lastChange = "2018-07-06 16:40:04 +0000";
layers = (
{
layerId = "FFFF8F4E-B79A-404B-9AF7-1E6E36D02A09";
paths = (
{
closed = 1;
nodes = (
"413 654 OFFCURVE",
"390 666 OFFCURVE",
"376 679 CURVE SMOOTH",
"351 702 OFFCURVE",
"340 716 OFFCURVE",
"316 716 CURVE SMOOTH",
"303 716 OFFCURVE",
"278 695 OFFCURVE",
"249 663 CURVE SMOOTH",
"239 652 OFFCURVE",
"216 650 OFFCURVE",
"204 663 CURVE",
"195 672 OFFCURVE",
"194 690 OFFCURVE",
"204 701 CURVE SMOOTH",
"248 749 OFFCURVE",
"283 774 OFFCURVE",
"317 774 CURVE SMOOTH",
"340 774 OFFCURVE",
"363 764 OFFCURVE",
"381 748 CURVE SMOOTH",
"404 727 OFFCURVE",
"420 712 OFFCURVE",
"438 712 CURVE SMOOTH",
"461 712 OFFCURVE",
"476 729 OFFCURVE",
"504 763 CURVE SMOOTH",
"513 774 OFFCURVE",
"536 777 OFFCURVE",
"547 769 CURVE",
"561 758 OFFCURVE",
"560 737 OFFCURVE",
"551 726 CURVE SMOOTH",
"511 677 OFFCURVE",
"475 653 OFFCURVE",
"438 653 CURVE"
);
},
{
closed = 1;
nodes = (
"356 488 OFFCURVE",
"318 499 OFFCURVE",
"296 499 CURVE SMOOTH",
"240 499 OFFCURVE",
"165 461 OFFCURVE",
"114 405 CURVE SMOOTH",
"61 346 OFFCURVE",
"29 267 OFFCURVE",
"29 187 CURVE SMOOTH",
"29 64 OFFCURVE",
"108 -13 OFFCURVE",
"231 -13 CURVE SMOOTH",
"414 -13 OFFCURVE",
"563 159 OFFCURVE",
"563 351 CURVE SMOOTH",
"563 488 OFFCURVE",
"503 603 OFFCURVE",
"325 603 CURVE SMOOTH",
"293 603 OFFCURVE",
"275 585 OFFCURVE",
"275 568 CURVE SMOOTH",
"275 538 OFFCURVE",
"305 533 OFFCURVE",
"325 533 CURVE SMOOTH",
"414 533 OFFCURVE",
"493 475 OFFCURVE",
"493 351 CURVE SMOOTH",
"493 194 OFFCURVE",
"384 57 OFFCURVE",
"231 57 CURVE SMOOTH",
"165 57 OFFCURVE",
"99 90 OFFCURVE",
"99 187 CURVE SMOOTH",
"99 250 OFFCURVE",
"133 323 OFFCURVE",
"180 369 CURVE SMOOTH",
"212 401 OFFCURVE",
"258 428 OFFCURVE",
"296 429 CURVE SMOOTH",
"334 430 OFFCURVE",
"356 436 OFFCURVE",
"356 464 CURVE SMOOTH"
);
}
);
width = 600;
}
);
note = Otilde;
unicode = 00D5;
},
{
glyphname = OE;
lastChange = "2018-07-06 16:40:04 +0000";
layers = (
{
layerId = "FFFF8F4E-B79A-404B-9AF7-1E6E36D02A09";
paths = (
{
closed = 1;
nodes = (
"-1 80 OFFCURVE",
"68 -13 OFFCURVE",
"170 -13 CURVE SMOOTH",
"213 -13 OFFCURVE",
"257 0 OFFCURVE",
"297 25 CURVE",
"332 1 OFFCURVE",
"377 -13 OFFCURVE",
"430 -13 CURVE SMOOTH",
"488 -13 OFFCURVE",
"537 -5 OFFCURVE",
"580 17 CURVE",
"599 25 OFFCURVE",
"607 50 OFFCURVE",
"599 68 CURVE SMOOTH",
"593 82 OFFCURVE",
"570 89 OFFCURVE",
"555 80 CURVE",
"518 60 OFFCURVE",
"478 51 OFFCURVE",
"434 51 CURVE SMOOTH",
"402 51 OFFCURVE",
"374 57 OFFCURVE",
"352 68 CURVE",
"408 122 OFFCURVE",
"450 201 OFFCURVE",
"463 293 CURVE",
"476 293 OFFCURVE",
"491 292 OFFCURVE",
"506 291 CURVE SMOOTH",
"537 288 OFFCURVE",
"548 309 OFFCURVE",
"548 328 CURVE SMOOTH",
"548 350 OFFCURVE",
"540 358 OFFCURVE",
"518 368 CURVE SMOOTH",
"414 415 OFFCURVE",
"430 541 OFFCURVE",
"491 541 CURVE SMOOTH",
"520 541 OFFCURVE",
"536 517 OFFCURVE",
"529 479 CURVE SMOOTH",
"524 453 OFFCURVE",
"531 442 OFFCURVE",
"553 438 CURVE SMOOTH",
"574 434 OFFCURVE",
"587 440 OFFCURVE",
"596 477 CURVE SMOOTH",
"615 556 OFFCURVE",
"545 603 OFFCURVE",
"496 603 CURVE SMOOTH",
"448 603 OFFCURVE",
"419 585 OFFCURVE",
"402 552 CURVE",
"372 583 OFFCURVE",
"328 603 OFFCURVE",
"264 603 CURVE SMOOTH",
"232 603 OFFCURVE",
"214 585 OFFCURVE",
"214 568 CURVE SMOOTH",
"214 538 OFFCURVE",
"244 533 OFFCURVE",
"264 533 CURVE SMOOTH",
"328 533 OFFCURVE",
"397 494 OFFCURVE",
"397 351 CURVE SMOOTH",
"397 349 LINE",
"268 338 OFFCURVE",
"217 244 OFFCURVE",
"217 165 CURVE SMOOTH",
"217 133 OFFCURVE",
"227 101 OFFCURVE",
"246 74 CURVE",
"222 63 OFFCURVE",
"196 57 OFFCURVE",
"170 57 CURVE SMOOTH",
"104 57 OFFCURVE",
"68 122 OFFCURVE",
"68 187 CURVE SMOOTH",
"68 222 OFFCURVE",
"70 299 OFFCURVE",
"124 369 CURVE SMOOTH",
"147 398 OFFCURVE",
"180 429 OFFCURVE",
"223 429 CURVE SMOOTH",
"261 429 OFFCURVE",
"280 436 OFFCURVE",
"280 464 CURVE SMOOTH",
"280 488 OFFCURVE",
"242 499 OFFCURVE",
"220 499 CURVE SMOOTH",
"156 499 OFFCURVE",
"91 453 OFFCURVE",
"58 405 CURVE SMOOTH",
"16 343 OFFCURVE",
"-1 270 OFFCURVE",
"-1 187 CURVE SMOOTH"
);
},
{
closed = 1;
nodes = (
"293 219 OFFCURVE",
"321 266 OFFCURVE",
"391 285 CURVE",
"379 213 OFFCURVE",
"347 154 OFFCURVE",
"305 115 CURVE",
"297 130 OFFCURVE",
"293 147 OFFCURVE",
"293 166 CURVE SMOOTH"
);
}
);
width = 600;
}
);
note = OE;
unicode = 0152;
},
{
glyphname = P;
lastChange = "2018-07-06 16:40:04 +0000";
layers = (
{
layerId = "FFFF8F4E-B79A-404B-9AF7-1E6E36D02A09";
paths = (
{
closed = 1;
nodes = (
"215 602 OFFCURVE",
"145 581 OFFCURVE",
"79 528 CURVE SMOOTH",
"59 512 OFFCURVE",
"48 498 OFFCURVE",
"48 483 CURVE SMOOTH",
"48 476 OFFCURVE",
"51 469 OFFCURVE",
"57 462 CURVE",
"64 455 OFFCURVE",
"71 452 OFFCURVE",
"79 452 CURVE SMOOTH",
"92 452 OFFCURVE",
"107 460 OFFCURVE",
"123 473 CURVE SMOOTH",
"176 516 OFFCURVE",
"231 534 OFFCURVE",
"304 534 CURVE SMOOTH",
"397 534 OFFCURVE",
"494 502 OFFCURVE",
"494 404 CURVE SMOOTH",
"494 290 OFFCURVE",
"437 177 OFFCURVE",
"332 175 CURVE SMOOTH",
"308 175 OFFCURVE",
"280 180 OFFCURVE",
"248 192 CURVE",
"311 439 LINE SMOOTH",
"313 446 OFFCURVE",
"314 453 OFFCURVE",
"314 458 CURVE SMOOTH",
"314 479 OFFCURVE",
"303 489 OFFCURVE",
"284 489 CURVE SMOOTH",
"258 489 OFFCURVE",
"244 482 OFFCURVE",
"232 437 CURVE SMOOTH",
"88 -122 LINE SMOOTH",
"86 -130 OFFCURVE",
"85 -136 OFFCURVE",
"85 -141 CURVE SMOOTH",
"85 -164 OFFCURVE",
"100 -171 OFFCURVE",
"113 -171 CURVE SMOOTH",
"130 -171 OFFCURVE",
"154 -168 OFFCURVE",
"163 -133 CURVE SMOOTH",
"229 120 LINE",
"264 109 OFFCURVE",
"295 105 OFFCURVE",
"324 105 CURVE SMOOTH",
"477 105 OFFCURVE",
"564 258 OFFCURVE",
"564 404 CURVE SMOOTH",
"564 512 OFFCURVE",
"481 604 OFFCURVE",
"307 603 CURVE SMOOTH"
);
}
);
width = 600;
}
);
note = P;
unicode = 0050;
},
{
glyphname = Thorn;
lastChange = "2018-07-06 16:40:04 +0000";
layers = (
{
layerId = "FFFF8F4E-B79A-404B-9AF7-1E6E36D02A09";
paths = (
{
closed = 1;
nodes = (
"337 541 OFFCURVE",
"345 573 OFFCURVE",
"345 576 CURVE SMOOTH",
"345 597 OFFCURVE",
"334 607 OFFCURVE",
"315 607 CURVE SMOOTH",
"289 607 OFFCURVE",
"275 600 OFFCURVE",
"263 555 CURVE SMOOTH",
"237 456 LINE",
"157 452 OFFCURVE",
"94 430 OFFCURVE",
"34 382 CURVE SMOOTH",
"14 366 OFFCURVE",
"3 352 OFFCURVE",
"3 337 CURVE SMOOTH",
"3 330 OFFCURVE",
"6 323 OFFCURVE",
"12 316 CURVE",
"19 309 OFFCURVE",
"26 306 OFFCURVE",
"34 306 CURVE SMOOTH",
"47 306 OFFCURVE",
"62 314 OFFCURVE",
"78 327 CURVE SMOOTH",
"121 362 OFFCURVE",
"165 380 OFFCURVE",
"219 386 CURVE",
"88 -122 LINE SMOOTH",
"86 -130 OFFCURVE",
"85 -136 OFFCURVE",
"85 -141 CURVE SMOOTH",
"85 -164 OFFCURVE",
"100 -171 OFFCURVE",
"113 -171 CURVE SMOOTH",
"130 -171 OFFCURVE",
"154 -168 OFFCURVE",
"163 -133 CURVE SMOOTH",
"173 -96 OFFCURVE",
"182 -61 OFFCURVE",
"190 -28 CURVE",
"223 -37 OFFCURVE",
"252 -41 OFFCURVE",
"279 -41 CURVE SMOOTH",
"432 -41 OFFCURVE",
"519 112 OFFCURVE",
"519 258 CURVE SMOOTH",
"519 354 OFFCURVE",
"453 439 OFFCURVE",
"315 454 CURVE"
);
},
{
closed = 1;
nodes = (
"264 29 OFFCURVE",
"238 34 OFFCURVE",
"209 44 CURVE",
"248 195 OFFCURVE",
"277 306 OFFCURVE",
"297 386 CURVE",
"377 378 OFFCURVE",
"449 343 OFFCURVE",
"449 258 CURVE SMOOTH",
"449 144 OFFCURVE",
"392 29 OFFCURVE",
"287 29 CURVE SMOOTH"
);
}
);
width = 600;
}
);
note = Thorn;
unicode = 00DE;
},
{
glyphname = Q;
lastChange = "2018-07-06 16:40:04 +0000";
layers = (
{
layerId = "FFFF8F4E-B79A-404B-9AF7-1E6E36D02A09";
paths = (
{
closed = 1;
nodes = (
"23 23 OFFCURVE",
"86 -10 OFFCURVE",
"147 -10 CURVE SMOOTH",
"163 -10 OFFCURVE",
"182 -9 OFFCURVE",
"205 -8 CURVE",
"205 -82 OFFCURVE",
"231 -171 OFFCURVE",
"373 -171 CURVE SMOOTH",
"492 -171 OFFCURVE",
"578 -123 OFFCURVE",
"578 0 CURVE SMOOTH",
"578 34 OFFCURVE",
"570 53 OFFCURVE",
"547 53 CURVE SMOOTH",
"524 53 OFFCURVE",
"508 35 OFFCURVE",
"508 0 CURVE SMOOTH",
"508 -69 OFFCURVE",
"456 -101 OFFCURVE",
"373 -101 CURVE SMOOTH",
"287 -101 OFFCURVE",
"273 -53 OFFCURVE",
"273 0 CURVE",
"379 25 OFFCURVE",
"562 132 OFFCURVE",
"562 336 CURVE SMOOTH",
"562 520 OFFCURVE",
"486 603 OFFCURVE",
"344 603 CURVE SMOOTH",
"214 603 OFFCURVE",
"133 520 OFFCURVE",
"133 373 CURVE SMOOTH",
"133 337 OFFCURVE",
"148 327 OFFCURVE",
"168 327 CURVE SMOOTH",
"188 327 OFFCURVE",
"203 341 OFFCURVE",
"203 373 CURVE SMOOTH",
"203 505 OFFCURVE",
"282 533 OFFCURVE",
"344 533 CURVE SMOOTH",
"430 533 OFFCURVE",
"492 505 OFFCURVE",
"492 335 CURVE SMOOTH",
"492 197 OFFCURVE",
"399 98 OFFCURVE",
"269 72 CURVE",
"269 145 OFFCURVE",
"222 205 OFFCURVE",
"141 205 CURVE SMOOTH",
"90 205 OFFCURVE",
"23 175 OFFCURVE",
"23 100 CURVE SMOOTH"
);
},
{
closed = 1;
nodes = (
"93 127 OFFCURVE",
"119 135 OFFCURVE",
"141 135 CURVE SMOOTH",
"191 135 OFFCURVE",
"199 108 OFFCURVE",
"201 63 CURVE",
"181 61 OFFCURVE",
"163 60 OFFCURVE",
"147 60 CURVE SMOOTH",
"110 60 OFFCURVE",
"93 74 OFFCURVE",
"93 100 CURVE SMOOTH"
);
}
);
width = 600;
}
);
note = Q;
unicode = 0051;
},
{
glyphname = R;
lastChange = "2018-07-06 16:40:04 +0000";
layers = (
{
layerId = "FFFF8F4E-B79A-404B-9AF7-1E6E36D02A09";
paths = (
{
closed = 1;
nodes = (
"542 202 OFFCURVE",
"532 203 OFFCURVE",
"514 188 CURVE SMOOTH",
"478 158 OFFCURVE",
"429 116 OFFCURVE",
"396 88 CURVE",
"406 157 LINE",
"409 190 OFFCURVE",
"406 231 OFFCURVE",
"374 273 CURVE",
"456 320 OFFCURVE",
"552 394 OFFCURVE",
"552 476 CURVE SMOOTH",
"552 554 OFFCURVE",
"511 604 OFFCURVE",
"420 604 CURVE SMOOTH",
"341 604 OFFCURVE",
"261 501 OFFCURVE",
"211 428 CURVE",
"237 526 LINE SMOOTH",
"253 585 OFFCURVE",
"252 603 OFFCURVE",
"217 603 CURVE SMOOTH",
"179 603 OFFCURVE",
"172 579 OFFCURVE",
"165 551 CURVE SMOOTH",
"34 45 LINE SMOOTH",
"27 18 OFFCURVE",
"34 -13 OFFCURVE",
"63 -13 CURVE SMOOTH",
"96 -13 OFFCURVE",
"102 12 OFFCURVE",
"112 49 CURVE SMOOTH",
"161 235 LINE",
"211 329 OFFCURVE",
"345 534 OFFCURVE",
"420 534 CURVE SMOOTH",
"466 534 OFFCURVE",
"482 515 OFFCURVE",
"482 476 CURVE SMOOTH",
"482 411 OFFCURVE",
"330 329 OFFCURVE",
"267 291 CURVE",
"315 242 LINE SMOOTH",
"346 210 OFFCURVE",
"343 170 OFFCURVE",
"328 116 CURVE SMOOTH",
"307 39 LINE SMOOTH",
"300 13 OFFCURVE",
"315 -8 OFFCURVE",
"342 -13 CURVE SMOOTH",
"364 -17 OFFCURVE",
"387 -2 OFFCURVE",
"408 15 CURVE SMOOTH",
"475 69 OFFCURVE",
"518 108 OFFCURVE",
"557 141 CURVE SMOOTH",
"570 152 OFFCURVE",
"571 183 OFFCURVE",
"554 194 CURVE SMOOTH"
);
}
);
width = 600;
}
);
note = R;
unicode = 0052;
},
{
glyphname = S;
lastChange = "2018-07-06 16:40:04 +0000";
layers = (
{
layerId = "FFFF8F4E-B79A-404B-9AF7-1E6E36D02A09";
paths = (
{
closed = 1;
nodes = (
"32 -96 OFFCURVE",
"114 -173 OFFCURVE",
"219 -173 CURVE SMOOTH",
"321 -173 OFFCURVE",
"432 -129 OFFCURVE",
"471 0 CURVE SMOOTH",
"504 109 OFFCURVE",
"394 243 OFFCURVE",
"333 309 CURVE SMOOTH",
"303 341 OFFCURVE",
"270 399 OFFCURVE",
"283 460 CURVE SMOOTH",
"299 536 OFFCURVE",
"370 533 OFFCURVE",
"409 533 CURVE SMOOTH",
"464 533 OFFCURVE",
"495 510 OFFCURVE",
"495 457 CURVE SMOOTH",
"495 412 OFFCURVE",
"509 399 OFFCURVE",
"531 399 CURVE SMOOTH",
"555 399 OFFCURVE",
"566 412 OFFCURVE",
"566 457 CURVE SMOOTH",
"566 570 OFFCURVE",
"481 603 OFFCURVE",
"409 603 CURVE SMOOTH",
"357 603 OFFCURVE",
"238 598 OFFCURVE",
"211 462 CURVE SMOOTH",
"192 366 OFFCURVE",
"240 304 OFFCURVE",
"275 268 CURVE SMOOTH",
"343 198 OFFCURVE",
"432 88 OFFCURVE",
"401 0 CURVE SMOOTH",
"372 -83 OFFCURVE",
"280 -103 OFFCURVE",
"219 -103 CURVE SMOOTH",
"159 -103 OFFCURVE",
"102 -60 OFFCURVE",
"102 0 CURVE SMOOTH",
"102 44 OFFCURVE",
"111 107 OFFCURVE",
"198 107 CURVE SMOOTH",
"234 107 OFFCURVE",
"254 118 OFFCURVE",
"254 142 CURVE SMOOTH",
"254 172 OFFCURVE",
"234 177 OFFCURVE",
"198 177 CURVE SMOOTH",
"72 177 OFFCURVE",
"32 88 OFFCURVE",
"32 0 CURVE SMOOTH"
);
}
);
width = 600;
}
);
note = S;
unicode = 0053;
},
{
glyphname = Scaron;
lastChange = "2018-07-06 16:40:04 +0000";
layers = (
{
layerId = "FFFF8F4E-B79A-404B-9AF7-1E6E36D02A09";
paths = (
{
closed = 1;
nodes = (
"600 768 OFFCURVE",
"584 783 OFFCURVE",
"564 774 CURVE SMOOTH",
"413 705 LINE",
"262 774 LINE SMOOTH",
"242 783 OFFCURVE",
"226 768 OFFCURVE",
"222 755 CURVE SMOOTH",
"217 740 OFFCURVE",
"220 718 OFFCURVE",
"241 709 CURVE SMOOTH",
"413 634 LINE",
"585 709 LINE SMOOTH",
"606 718 OFFCURVE",
"609 740 OFFCURVE",
"604 755 CURVE SMOOTH"
);
},
{
closed = 1;
nodes = (
"32 -96 OFFCURVE",
"114 -173 OFFCURVE",
"219 -173 CURVE SMOOTH",
"321 -173 OFFCURVE",
"432 -129 OFFCURVE",
"471 0 CURVE SMOOTH",
"504 109 OFFCURVE",
"394 243 OFFCURVE",
"333 309 CURVE SMOOTH",
"303 341 OFFCURVE",
"270 399 OFFCURVE",
"283 460 CURVE SMOOTH",
"299 536 OFFCURVE",
"370 533 OFFCURVE",
"409 533 CURVE SMOOTH",
"464 533 OFFCURVE",
"495 510 OFFCURVE",
"495 457 CURVE SMOOTH",
"495 412 OFFCURVE",
"509 399 OFFCURVE",
"531 399 CURVE SMOOTH",
"555 399 OFFCURVE",
"566 412 OFFCURVE",
"566 457 CURVE SMOOTH",
"566 570 OFFCURVE",
"481 603 OFFCURVE",
"409 603 CURVE SMOOTH",
"357 603 OFFCURVE",
"238 598 OFFCURVE",
"211 462 CURVE SMOOTH",
"192 366 OFFCURVE",
"240 304 OFFCURVE",
"275 268 CURVE SMOOTH",
"343 198 OFFCURVE",
"432 88 OFFCURVE",
"401 0 CURVE SMOOTH",
"372 -83 OFFCURVE",
"280 -103 OFFCURVE",
"219 -103 CURVE SMOOTH",
"159 -103 OFFCURVE",
"102 -60 OFFCURVE",
"102 0 CURVE SMOOTH",
"102 44 OFFCURVE",
"111 107 OFFCURVE",
"198 107 CURVE SMOOTH",
"234 107 OFFCURVE",
"254 118 OFFCURVE",
"254 142 CURVE SMOOTH",
"254 172 OFFCURVE",
"234 177 OFFCURVE",
"198 177 CURVE SMOOTH",
"72 177 OFFCURVE",
"32 88 OFFCURVE",
"32 0 CURVE SMOOTH"
);
}
);
width = 600;
}
);
note = Scaron;
unicode = 0160;
},
{
glyphname = T;
lastChange = "2018-07-06 16:40:04 +0000";
layers = (
{
layerId = "FFFF8F4E-B79A-404B-9AF7-1E6E36D02A09";
paths = (
{
closed = 1;
nodes = (
"583 601 OFFCURVE",
"561 603 OFFCURVE",
"546 603 CURVE SMOOTH",
"302 603 LINE SMOOTH",
"123 603 OFFCURVE",
"46 531 OFFCURVE",
"46 430 CURVE SMOOTH",
"46 405 OFFCURVE",
"56 383 OFFCURVE",
"82 383 CURVE SMOOTH",
"106 383 OFFCURVE",
"117 406 OFFCURVE",
"117 430 CURVE SMOOTH",
"117 494 OFFCURVE",
"171 533 OFFCURVE",
"318 533 CURVE",
"272 351 OFFCURVE",
"251 270 OFFCURVE",
"218 146 CURVE SMOOTH",
"213 126 OFFCURVE",
"208 105 OFFCURVE",
"196 88 CURVE SMOOTH",
"181 67 OFFCURVE",
"161 58 OFFCURVE",
"121 58 CURVE SMOOTH",
"93 58 OFFCURVE",
"80 45 OFFCURVE",
"80 21 CURVE SMOOTH",
"80 1 OFFCURVE",
"93 -13 OFFCURVE",
"121 -13 CURVE SMOOTH",
"190 -13 OFFCURVE",
"233 11 OFFCURVE",
"264 60 CURVE SMOOTH",
"282 88 OFFCURVE",
"288 105 OFFCURVE",
"298 146 CURVE SMOOTH",
"334 281 OFFCURVE",
"361 388 OFFCURVE",
"399 533 CURVE",
"527 533 LINE",
"507 455 LINE SMOOTH",
"501 429 OFFCURVE",
"523 419 OFFCURVE",
"539 419 CURVE SMOOTH",
"552 419 OFFCURVE",
"572 427 OFFCURVE",
"578 455 CURVE SMOOTH",
"592 517 LINE SMOOTH",
"597 541 OFFCURVE",
"604 566 OFFCURVE",
"596 579 CURVE SMOOTH"
);
}
);
width = 600;
}
);
note = T;
unicode = 0054;
},
{
glyphname = U;
lastChange = "2018-07-06 16:40:04 +0000";
layers = (
{
layerId = "FFFF8F4E-B79A-404B-9AF7-1E6E36D02A09";
paths = (
{
closed = 1;
nodes = (
"547 599 OFFCURVE",
"530 568 OFFCURVE",
"518 525 CURVE SMOOTH",
"434 224 OFFCURVE",
"265 53 OFFCURVE",
"204 53 CURVE SMOOTH",
"161 53 OFFCURVE",
"183 162 OFFCURVE",
"214 273 CURVE SMOOTH",
"289 541 LINE SMOOTH",
"296 567 OFFCURVE",
"281 588 OFFCURVE",
"254 593 CURVE SMOOTH",
"232 597 OFFCURVE",
"209 582 OFFCURVE",
"188 565 CURVE SMOOTH",
"121 511 OFFCURVE",
"78 472 OFFCURVE",
"39 439 CURVE SMOOTH",
"26 428 OFFCURVE",
"25 397 OFFCURVE",
"42 386 CURVE SMOOTH",
"54 378 OFFCURVE",
"64 377 OFFCURVE",
"82 392 CURVE SMOOTH",
"118 422 OFFCURVE",
"167 464 OFFCURVE",
"200 492 CURVE",
"160 352 LINE",
"161 352 LINE",
"131 246 LINE SMOOTH",
"96 122 OFFCURVE",
"87 -22 OFFCURVE",
"194 -22 CURVE SMOOTH",
"231 -22 OFFCURVE",
"318 12 OFFCURVE",
"408 126 CURVE",
"379 28 LINE SMOOTH",
"370 -2 OFFCURVE",
"375 -19 OFFCURVE",
"400 -22 CURVE SMOOTH",
"417 -24 OFFCURVE",
"442 -19 OFFCURVE",
"450 14 CURVE",
"582 485 LINE SMOOTH",
"586 500 OFFCURVE",
"591 516 OFFCURVE",
"595 532 CURVE SMOOTH",
"604 566 OFFCURVE",
"604 588 OFFCURVE",
"578 593 CURVE SMOOTH"
);
}
);
width = 600;
}
);
note = U;
unicode = 0055;
},
{
glyphname = Uacute;
lastChange = "2018-07-06 16:40:04 +0000";
layers = (
{
layerId = "FFFF8F4E-B79A-404B-9AF7-1E6E36D02A09";
paths = (
{
closed = 1;
nodes = (
"581 747 OFFCURVE",
"567 767 OFFCURVE",
"544 761 CURVE",
"310 714 LINE SMOOTH",
"285 709 OFFCURVE",
"278 692 OFFCURVE",
"280 680 CURVE SMOOTH",
"282 666 OFFCURVE",
"292 651 OFFCURVE",
"320 658 CURVE",
"561 695 LINE",
"587 701 OFFCURVE",
"586 722 OFFCURVE",
"583 737 CURVE SMOOTH"
);
},
{
closed = 1;
nodes = (
"547 599 OFFCURVE",
"530 568 OFFCURVE",
"518 525 CURVE SMOOTH",
"434 224 OFFCURVE",
"265 53 OFFCURVE",
"204 53 CURVE SMOOTH",
"161 53 OFFCURVE",
"183 162 OFFCURVE",
"214 273 CURVE SMOOTH",
"289 541 LINE SMOOTH",
"296 567 OFFCURVE",
"281 588 OFFCURVE",
"254 593 CURVE SMOOTH",
"232 597 OFFCURVE",
"209 582 OFFCURVE",
"188 565 CURVE SMOOTH",
"121 511 OFFCURVE",
"78 472 OFFCURVE",
"39 439 CURVE SMOOTH",
"26 428 OFFCURVE",
"25 397 OFFCURVE",
"42 386 CURVE SMOOTH",
"54 378 OFFCURVE",
"64 377 OFFCURVE",
"82 392 CURVE SMOOTH",
"118 422 OFFCURVE",
"167 464 OFFCURVE",
"200 492 CURVE",
"160 352 LINE",
"161 352 LINE",
"131 246 LINE SMOOTH",
"96 122 OFFCURVE",
"87 -22 OFFCURVE",
"194 -22 CURVE SMOOTH",
"231 -22 OFFCURVE",
"318 12 OFFCURVE",
"408 126 CURVE",
"379 28 LINE SMOOTH",
"370 -2 OFFCURVE",
"375 -19 OFFCURVE",
"400 -22 CURVE SMOOTH",
"417 -24 OFFCURVE",
"442 -19 OFFCURVE",
"450 14 CURVE",
"582 485 LINE SMOOTH",
"586 500 OFFCURVE",
"591 516 OFFCURVE",
"595 532 CURVE SMOOTH",
"604 566 OFFCURVE",
"604 588 OFFCURVE",
"578 593 CURVE SMOOTH"
);
}
);
width = 600;
}
);
note = Uacute;
unicode = 00DA;
},
{
glyphname = Ucircumflex;
lastChange = "2018-07-06 16:40:04 +0000";
layers = (
{
layerId = "FFFF8F4E-B79A-404B-9AF7-1E6E36D02A09";
paths = (
{
closed = 1;
nodes = (
"221 633 OFFCURVE",
"237 618 OFFCURVE",
"257 627 CURVE SMOOTH",
"408 696 LINE",
"559 627 LINE SMOOTH",
"579 618 OFFCURVE",
"595 633 OFFCURVE",
"599 646 CURVE SMOOTH",
"604 661 OFFCURVE",
"601 683 OFFCURVE",
"580 692 CURVE SMOOTH",
"408 767 LINE",
"236 692 LINE SMOOTH",
"215 683 OFFCURVE",
"212 661 OFFCURVE",
"217 646 CURVE SMOOTH"
);
},
{
closed = 1;
nodes = (
"547 599 OFFCURVE",
"530 568 OFFCURVE",
"518 525 CURVE SMOOTH",
"434 224 OFFCURVE",
"265 53 OFFCURVE",
"204 53 CURVE SMOOTH",
"161 53 OFFCURVE",
"183 162 OFFCURVE",
"214 273 CURVE SMOOTH",
"289 541 LINE SMOOTH",
"296 567 OFFCURVE",
"281 588 OFFCURVE",
"254 593 CURVE SMOOTH",
"232 597 OFFCURVE",
"209 582 OFFCURVE",
"188 565 CURVE SMOOTH",
"121 511 OFFCURVE",
"78 472 OFFCURVE",
"39 439 CURVE SMOOTH",
"26 428 OFFCURVE",
"25 397 OFFCURVE",
"42 386 CURVE SMOOTH",
"54 378 OFFCURVE",
"64 377 OFFCURVE",
"82 392 CURVE SMOOTH",
"118 422 OFFCURVE",
"167 464 OFFCURVE",
"200 492 CURVE",
"160 352 LINE",
"161 352 LINE",
"131 246 LINE SMOOTH",
"96 122 OFFCURVE",
"87 -22 OFFCURVE",
"194 -22 CURVE SMOOTH",
"231 -22 OFFCURVE",
"318 12 OFFCURVE",
"408 126 CURVE",
"379 28 LINE SMOOTH",
"370 -2 OFFCURVE",
"375 -19 OFFCURVE",
"400 -22 CURVE SMOOTH",
"417 -24 OFFCURVE",
"442 -19 OFFCURVE",
"450 14 CURVE",
"582 485 LINE SMOOTH",
"586 500 OFFCURVE",
"591 516 OFFCURVE",
"595 532 CURVE SMOOTH",
"604 566 OFFCURVE",
"604 588 OFFCURVE",
"578 593 CURVE SMOOTH"
);
}
);
width = 600;
}
);
note = Ucircumflex;
unicode = 00DB;
},
{
glyphname = Udieresis;
lastChange = "2018-07-06 16:40:04 +0000";
layers = (
{
layerId = "FFFF8F4E-B79A-404B-9AF7-1E6E36D02A09";
paths = (
{
closed = 1;
nodes = (
"344 645 OFFCURVE",
"370 671 OFFCURVE",
"370 701 CURVE SMOOTH",
"370 738 OFFCURVE",
"349 762 OFFCURVE",
"310 762 CURVE SMOOTH",
"275 762 OFFCURVE",
"250 737 OFFCURVE",
"250 699 CURVE SMOOTH",
"250 670 OFFCURVE",
"279 645 OFFCURVE",
"310 645 CURVE SMOOTH"
);
},
{
closed = 1;
nodes = (
"543 645 OFFCURVE",
"569 671 OFFCURVE",
"569 701 CURVE SMOOTH",
"569 738 OFFCURVE",
"548 762 OFFCURVE",
"509 762 CURVE SMOOTH",
"474 762 OFFCURVE",
"449 737 OFFCURVE",
"449 699 CURVE SMOOTH",
"449 670 OFFCURVE",
"478 645 OFFCURVE",
"509 645 CURVE SMOOTH"
);
},
{
closed = 1;
nodes = (
"547 599 OFFCURVE",
"530 568 OFFCURVE",
"518 525 CURVE SMOOTH",
"434 224 OFFCURVE",
"265 53 OFFCURVE",
"204 53 CURVE SMOOTH",
"161 53 OFFCURVE",
"183 162 OFFCURVE",
"214 273 CURVE SMOOTH",
"289 541 LINE SMOOTH",
"296 567 OFFCURVE",
"281 588 OFFCURVE",
"254 593 CURVE SMOOTH",
"232 597 OFFCURVE",
"209 582 OFFCURVE",
"188 565 CURVE SMOOTH",
"121 511 OFFCURVE",
"78 472 OFFCURVE",
"39 439 CURVE SMOOTH",
"26 428 OFFCURVE",
"25 397 OFFCURVE",
"42 386 CURVE SMOOTH",
"54 378 OFFCURVE",
"64 377 OFFCURVE",
"82 392 CURVE SMOOTH",
"118 422 OFFCURVE",
"167 464 OFFCURVE",
"200 492 CURVE",
"160 352 LINE",
"161 352 LINE",
"131 246 LINE SMOOTH",
"96 122 OFFCURVE",
"87 -22 OFFCURVE",
"194 -22 CURVE SMOOTH",
"231 -22 OFFCURVE",
"318 12 OFFCURVE",
"408 126 CURVE",
"379 28 LINE SMOOTH",
"370 -2 OFFCURVE",
"375 -19 OFFCURVE",
"400 -22 CURVE SMOOTH",
"417 -24 OFFCURVE",
"442 -19 OFFCURVE",
"450 14 CURVE",
"582 485 LINE SMOOTH",
"586 500 OFFCURVE",
"591 516 OFFCURVE",
"595 532 CURVE SMOOTH",
"604 566 OFFCURVE",
"604 588 OFFCURVE",
"578 593 CURVE SMOOTH"
);
}
);
width = 600;
}
);
note = Udieresis;
unicode = 00DC;
},
{
glyphname = Ugrave;
lastChange = "2018-07-06 16:40:04 +0000";
layers = (
{
layerId = "FFFF8F4E-B79A-404B-9AF7-1E6E36D02A09";
paths = (
{
closed = 1;
nodes = (
"234 721 OFFCURVE",
"233 700 OFFCURVE",
"259 694 CURVE",
"500 657 LINE",
"528 650 OFFCURVE",
"538 665 OFFCURVE",
"540 679 CURVE SMOOTH",
"542 691 OFFCURVE",
"535 708 OFFCURVE",
"510 713 CURVE SMOOTH",
"276 760 LINE",
"253 766 OFFCURVE",
"239 746 OFFCURVE",
"237 736 CURVE SMOOTH"
);
},
{
closed = 1;
nodes = (
"547 599 OFFCURVE",
"530 568 OFFCURVE",
"518 525 CURVE SMOOTH",
"434 224 OFFCURVE",
"265 53 OFFCURVE",
"204 53 CURVE SMOOTH",
"161 53 OFFCURVE",
"183 162 OFFCURVE",
"214 273 CURVE SMOOTH",
"289 541 LINE SMOOTH",
"296 567 OFFCURVE",
"281 588 OFFCURVE",
"254 593 CURVE SMOOTH",
"232 597 OFFCURVE",
"209 582 OFFCURVE",
"188 565 CURVE SMOOTH",
"121 511 OFFCURVE",
"78 472 OFFCURVE",
"39 439 CURVE SMOOTH",
"26 428 OFFCURVE",
"25 397 OFFCURVE",
"42 386 CURVE SMOOTH",
"54 378 OFFCURVE",
"64 377 OFFCURVE",
"82 392 CURVE SMOOTH",
"118 422 OFFCURVE",
"167 464 OFFCURVE",
"200 492 CURVE",
"160 352 LINE",
"161 352 LINE",
"131 246 LINE SMOOTH",
"96 122 OFFCURVE",
"87 -22 OFFCURVE",
"194 -22 CURVE SMOOTH",
"231 -22 OFFCURVE",
"318 12 OFFCURVE",
"408 126 CURVE",
"379 28 LINE SMOOTH",
"370 -2 OFFCURVE",
"375 -19 OFFCURVE",
"400 -22 CURVE SMOOTH",
"417 -24 OFFCURVE",
"442 -19 OFFCURVE",
"450 14 CURVE",
"582 485 LINE SMOOTH",
"586 500 OFFCURVE",
"591 516 OFFCURVE",
"595 532 CURVE SMOOTH",
"604 566 OFFCURVE",
"604 588 OFFCURVE",
"578 593 CURVE SMOOTH"
);
}
);
width = 600;
}
);
note = Ugrave;
unicode = 00D9;
},
{
glyphname = V;
lastChange = "2018-07-06 16:40:04 +0000";
layers = (
{
layerId = "FFFF8F4E-B79A-404B-9AF7-1E6E36D02A09";
paths = (
{
closed = 1;
nodes = (
"519 476 OFFCURVE",
"499 485 OFFCURVE",
"484 506 CURVE SMOOTH",
"472 523 OFFCURVE",
"467 544 OFFCURVE",
"462 564 CURVE",
"454 591 OFFCURVE",
"441 603 OFFCURVE",
"422 603 CURVE SMOOTH",
"403 603 OFFCURVE",
"382 586 OFFCURVE",
"386 558 CURVE",
"396 517 OFFCURVE",
"398 506 OFFCURVE",
"416 478 CURVE SMOOTH",
"428 460 OFFCURVE",
"441 445 OFFCURVE",
"457 433 CURVE",
"366 246 OFFCURVE",
"267 61 OFFCURVE",
"175 61 CURVE SMOOTH",
"132 61 OFFCURVE",
"130 88 OFFCURVE",
"154 172 CURVE SMOOTH",
"260 549 LINE SMOOTH",
"267 575 OFFCURVE",
"252 596 OFFCURVE",
"225 601 CURVE SMOOTH",
"203 605 OFFCURVE",
"180 590 OFFCURVE",
"159 573 CURVE SMOOTH",
"92 519 OFFCURVE",
"129 548 OFFCURVE",
"90 515 CURVE SMOOTH",
"77 504 OFFCURVE",
"76 473 OFFCURVE",
"93 462 CURVE SMOOTH",
"105 454 OFFCURVE",
"115 453 OFFCURVE",
"133 468 CURVE SMOOTH",
"171 500 LINE",
"71 145 LINE SMOOTH",
"44 47 OFFCURVE",
"58 -14 OFFCURVE",
"165 -14 CURVE SMOOTH",
"304 -14 OFFCURVE",
"361 97 OFFCURVE",
"520 408 CURVE",
"532 406 OFFCURVE",
"545 405 OFFCURVE",
"559 405 CURVE SMOOTH",
"587 405 OFFCURVE",
"600 419 OFFCURVE",
"600 439 CURVE SMOOTH",
"600 463 OFFCURVE",
"587 476 OFFCURVE",
"559 476 CURVE SMOOTH"
);
}
);
width = 600;
}
);
note = V;
unicode = 0056;
},
{
glyphname = W;
lastChange = "2018-07-06 16:40:04 +0000";
layers = (
{
layerId = "FFFF8F4E-B79A-404B-9AF7-1E6E36D02A09";
paths = (
{
closed = 1;
nodes = (
"519 476 OFFCURVE",
"499 485 OFFCURVE",
"484 506 CURVE SMOOTH",
"472 523 OFFCURVE",
"467 544 OFFCURVE",
"462 564 CURVE",
"454 591 OFFCURVE",
"441 603 OFFCURVE",
"422 603 CURVE SMOOTH",
"403 603 OFFCURVE",
"382 586 OFFCURVE",
"386 558 CURVE",
"396 517 OFFCURVE",
"398 506 OFFCURVE",
"416 478 CURVE SMOOTH",
"434 451 OFFCURVE",
"454 432 OFFCURVE",
"481 420 CURVE",
"423 209 OFFCURVE",
"377 62 OFFCURVE",
"313 62 CURVE SMOOTH",
"274 62 OFFCURVE",
"288 140 OFFCURVE",
"348 369 CURVE SMOOTH",
"356 400 OFFCURVE",
"348 414 OFFCURVE",
"327 416 CURVE SMOOTH",
"307 418 OFFCURVE",
"285 405 OFFCURVE",
"279 383 CURVE SMOOTH",
"272 355 OFFCURVE",
"264 328 OFFCURVE",
"258 303 CURVE SMOOTH",
"225 181 OFFCURVE",
"142 62 OFFCURVE",
"98 62 CURVE SMOOTH",
"62 62 OFFCURVE",
"77 171 OFFCURVE",
"108 282 CURVE SMOOTH",
"183 549 LINE SMOOTH",
"190 575 OFFCURVE",
"175 596 OFFCURVE",
"148 601 CURVE SMOOTH",
"126 605 OFFCURVE",
"103 590 OFFCURVE",
"82 573 CURVE SMOOTH",
"15 519 OFFCURVE",
"52 548 OFFCURVE",
"13 515 CURVE SMOOTH",
"0 504 OFFCURVE",
"-1 473 OFFCURVE",
"16 462 CURVE SMOOTH",
"28 454 OFFCURVE",
"38 453 OFFCURVE",
"56 468 CURVE SMOOTH",
"94 500 LINE",
"25 255 LINE SMOOTH",
"-10 131 OFFCURVE",
"-12 -13 OFFCURVE",
"88 -13 CURVE SMOOTH",
"135 -13 OFFCURVE",
"182 23 OFFCURVE",
"226 89 CURVE",
"232 33 OFFCURVE",
"254 -13 OFFCURVE",
"303 -13 CURVE SMOOTH",
"440 -13 OFFCURVE",
"477 146 OFFCURVE",
"549 405 CURVE",
"559 405 LINE SMOOTH",
"587 405 OFFCURVE",
"600 419 OFFCURVE",
"600 439 CURVE SMOOTH",
"600 463 OFFCURVE",
"587 476 OFFCURVE",
"559 476 CURVE SMOOTH"
);
}
);
width = 600;
}
);
note = W;
unicode = 0057;
},
{
glyphname = X;
lastChange = "2018-07-06 16:40:04 +0000";
layers = (
{
layerId = "FFFF8F4E-B79A-404B-9AF7-1E6E36D02A09";
paths = (
{
closed = 1;
nodes = (
"524 198 OFFCURVE",
"510 173 OFFCURVE",
"501 141 CURVE SMOOTH",
"486 91 OFFCURVE",
"477 59 OFFCURVE",
"448 59 CURVE SMOOTH",
"429 59 OFFCURVE",
"417 56 OFFCURVE",
"394 123 CURVE SMOOTH",
"340 281 LINE",
"532 524 LINE SMOOTH",
"551 548 OFFCURVE",
"558 568 OFFCURVE",
"538 590 CURVE SMOOTH",
"523 606 OFFCURVE",
"491 591 OFFCURVE",
"472 567 CURVE SMOOTH",
"302 346 LINE",
"215 558 LINE SMOOTH",
"207 579 OFFCURVE",
"197 594 OFFCURVE",
"186 601 CURVE",
"184 602 OFFCURVE",
"182 603 OFFCURVE",
"179 603 CURVE SMOOTH",
"177 603 OFFCURVE",
"175 604 OFFCURVE",
"173 603 CURVE",
"169 603 OFFCURVE",
"152 598 OFFCURVE",
"136 582 CURVE SMOOTH",
"87 533 LINE SMOOTH",
"67 513 OFFCURVE",
"34 481 OFFCURVE",
"58 460 CURVE SMOOTH",
"82 439 OFFCURVE",
"107 461 OFFCURVE",
"134 490 CURVE SMOOTH",
"155 512 LINE",
"250 286 LINE",
"60 55 LINE SMOOTH",
"45 36 OFFCURVE",
"37 11 OFFCURVE",
"51 -3 CURVE SMOOTH",
"72 -24 OFFCURVE",
"99 -13 OFFCURVE",
"118 10 CURVE SMOOTH",
"288 223 LINE",
"345 62 LINE SMOOTH",
"363 10 OFFCURVE",
"401 -12 OFFCURVE",
"435 -12 CURVE SMOOTH",
"506 -12 OFFCURVE",
"538 23 OFFCURVE",
"571 142 CURVE SMOOTH",
"580 175 OFFCURVE",
"573 190 OFFCURVE",
"550 194 CURVE SMOOTH"
);
}
);
width = 600;
}
);
note = X;
unicode = 0058;
},
{
glyphname = Y;
lastChange = "2018-07-06 16:40:04 +0000";
layers = (
{
layerId = "FFFF8F4E-B79A-404B-9AF7-1E6E36D02A09";
paths = (
{
closed = 1;
nodes = (
"550 604 OFFCURVE",
"530 591 OFFCURVE",
"517 543 CURVE",
"442 341 OFFCURVE",
"307 161 OFFCURVE",
"231 161 CURVE SMOOTH",
"193 161 OFFCURVE",
"206 245 OFFCURVE",
"230 341 CURVE SMOOTH",
"289 551 LINE SMOOTH",
"296 577 OFFCURVE",
"281 598 OFFCURVE",
"254 603 CURVE SMOOTH",
"232 607 OFFCURVE",
"209 592 OFFCURVE",
"188 575 CURVE SMOOTH",
"121 521 OFFCURVE",
"78 482 OFFCURVE",
"39 449 CURVE SMOOTH",
"26 438 OFFCURVE",
"25 407 OFFCURVE",
"42 396 CURVE SMOOTH",
"54 388 OFFCURVE",
"64 387 OFFCURVE",
"82 402 CURVE SMOOTH",
"118 432 OFFCURVE",
"167 474 OFFCURVE",
"200 502 CURVE",
"160 362 LINE",
"158 354 LINE SMOOTH",
"123 230 OFFCURVE",
"114 86 OFFCURVE",
"221 86 CURVE SMOOTH",
"257 86 OFFCURVE",
"346 120 OFFCURVE",
"437 233 CURVE",
"394 70 LINE",
"219 61 OFFCURVE",
"71 26 OFFCURVE",
"52 -48 CURVE SMOOTH",
"32 -124 OFFCURVE",
"82 -173 OFFCURVE",
"178 -173 CURVE SMOOTH",
"263 -173 OFFCURVE",
"420 -141 OFFCURVE",
"454 3 CURVE",
"500 8 LINE SMOOTH",
"520 10 OFFCURVE",
"546 10 OFFCURVE",
"546 42 CURVE SMOOTH",
"546 57 OFFCURVE",
"529 72 OFFCURVE",
"494 72 CURVE SMOOTH",
"473 72 LINE",
"595 543 LINE SMOOTH",
"608 591 OFFCURVE",
"596 604 OFFCURVE",
"573 604 CURVE SMOOTH"
);
},
{
closed = 1;
nodes = (
"137 -105 OFFCURVE",
"112 -94 OFFCURVE",
"121 -60 CURVE SMOOTH",
"135 -7 OFFCURVE",
"360 0 OFFCURVE",
"376 0 CURVE",
"347 -112 OFFCURVE",
"215 -105 OFFCURVE",
"179 -105 CURVE SMOOTH"
);
}
);
width = 600;
}
);
note = Y;
unicode = 0059;
},
{
glyphname = Yacute;
lastChange = "2018-07-06 16:40:04 +0000";
layers = (
{
layerId = "FFFF8F4E-B79A-404B-9AF7-1E6E36D02A09";
paths = (
{
closed = 1;
nodes = (
"575 761 OFFCURVE",
"561 781 OFFCURVE",
"538 775 CURVE",
"304 728 LINE SMOOTH",
"279 723 OFFCURVE",
"272 706 OFFCURVE",
"274 694 CURVE SMOOTH",
"276 680 OFFCURVE",
"286 665 OFFCURVE",
"314 672 CURVE",
"555 709 LINE",
"581 715 OFFCURVE",
"580 736 OFFCURVE",
"577 751 CURVE SMOOTH"
);
},
{
closed = 1;
nodes = (
"550 604 OFFCURVE",
"530 591 OFFCURVE",
"517 543 CURVE",
"442 341 OFFCURVE",
"307 161 OFFCURVE",
"231 161 CURVE SMOOTH",
"193 161 OFFCURVE",
"206 245 OFFCURVE",
"230 341 CURVE SMOOTH",
"289 551 LINE SMOOTH",
"296 577 OFFCURVE",
"281 598 OFFCURVE",
"254 603 CURVE SMOOTH",
"232 607 OFFCURVE",
"209 592 OFFCURVE",
"188 575 CURVE SMOOTH",
"121 521 OFFCURVE",
"78 482 OFFCURVE",
"39 449 CURVE SMOOTH",
"26 438 OFFCURVE",
"25 407 OFFCURVE",
"42 396 CURVE SMOOTH",
"54 388 OFFCURVE",
"64 387 OFFCURVE",
"82 402 CURVE SMOOTH",
"118 432 OFFCURVE",
"167 474 OFFCURVE",
"200 502 CURVE",
"160 362 LINE",
"158 354 LINE SMOOTH",
"123 230 OFFCURVE",
"114 86 OFFCURVE",
"221 86 CURVE SMOOTH",
"257 86 OFFCURVE",
"346 120 OFFCURVE",
"437 233 CURVE",
"394 70 LINE",
"219 61 OFFCURVE",
"71 26 OFFCURVE",
"52 -48 CURVE SMOOTH",
"32 -124 OFFCURVE",
"82 -173 OFFCURVE",
"178 -173 CURVE SMOOTH",
"263 -173 OFFCURVE",
"420 -141 OFFCURVE",
"454 3 CURVE",
"500 8 LINE SMOOTH",
"520 10 OFFCURVE",
"546 10 OFFCURVE",
"546 42 CURVE SMOOTH",
"546 57 OFFCURVE",
"529 72 OFFCURVE",
"494 72 CURVE SMOOTH",
"473 72 LINE",
"595 543 LINE SMOOTH",
"608 591 OFFCURVE",
"596 604 OFFCURVE",
"573 604 CURVE SMOOTH"
);
},
{
closed = 1;
nodes = (
"137 -105 OFFCURVE",
"112 -94 OFFCURVE",
"121 -60 CURVE SMOOTH",
"135 -7 OFFCURVE",
"360 0 OFFCURVE",
"376 0 CURVE",
"347 -112 OFFCURVE",
"215 -105 OFFCURVE",
"179 -105 CURVE SMOOTH"
);
}
);
width = 600;
}
);
note = Yacute;
unicode = 00DD;
},
{
glyphname = Ydieresis;
lastChange = "2018-07-06 16:40:04 +0000";
layers = (
{
layerId = "FFFF8F4E-B79A-404B-9AF7-1E6E36D02A09";
paths = (
{
closed = 1;
nodes = (
"338 659 OFFCURVE",
"364 685 OFFCURVE",
"364 715 CURVE SMOOTH",
"364 752 OFFCURVE",
"343 776 OFFCURVE",
"304 776 CURVE SMOOTH",
"269 776 OFFCURVE",
"244 751 OFFCURVE",
"244 713 CURVE SMOOTH",
"244 684 OFFCURVE",
"273 659 OFFCURVE",
"304 659 CURVE SMOOTH"
);
},
{
closed = 1;
nodes = (
"537 659 OFFCURVE",
"563 685 OFFCURVE",
"563 715 CURVE SMOOTH",
"563 752 OFFCURVE",
"542 776 OFFCURVE",
"503 776 CURVE SMOOTH",
"468 776 OFFCURVE",
"443 751 OFFCURVE",
"443 713 CURVE SMOOTH",
"443 684 OFFCURVE",
"472 659 OFFCURVE",
"503 659 CURVE SMOOTH"
);
},
{
closed = 1;
nodes = (
"550 604 OFFCURVE",
"530 591 OFFCURVE",
"517 543 CURVE",
"442 341 OFFCURVE",
"307 161 OFFCURVE",
"231 161 CURVE SMOOTH",
"193 161 OFFCURVE",
"206 245 OFFCURVE",
"230 341 CURVE SMOOTH",
"289 551 LINE SMOOTH",
"296 577 OFFCURVE",
"281 598 OFFCURVE",
"254 603 CURVE SMOOTH",
"232 607 OFFCURVE",
"209 592 OFFCURVE",
"188 575 CURVE SMOOTH",
"121 521 OFFCURVE",
"78 482 OFFCURVE",
"39 449 CURVE SMOOTH",
"26 438 OFFCURVE",
"25 407 OFFCURVE",
"42 396 CURVE SMOOTH",
"54 388 OFFCURVE",
"64 387 OFFCURVE",
"82 402 CURVE SMOOTH",
"118 432 OFFCURVE",
"167 474 OFFCURVE",
"200 502 CURVE",
"160 362 LINE",
"158 354 LINE SMOOTH",
"123 230 OFFCURVE",
"114 86 OFFCURVE",
"221 86 CURVE SMOOTH",
"257 86 OFFCURVE",
"346 120 OFFCURVE",
"437 233 CURVE",
"394 70 LINE",
"219 61 OFFCURVE",
"71 26 OFFCURVE",
"52 -48 CURVE SMOOTH",
"32 -124 OFFCURVE",
"82 -173 OFFCURVE",
"178 -173 CURVE SMOOTH",
"263 -173 OFFCURVE",
"420 -141 OFFCURVE",
"454 3 CURVE",
"500 8 LINE SMOOTH",
"520 10 OFFCURVE",
"546 10 OFFCURVE",
"546 42 CURVE SMOOTH",
"546 57 OFFCURVE",
"529 72 OFFCURVE",
"494 72 CURVE SMOOTH",
"473 72 LINE",
"595 543 LINE SMOOTH",
"608 591 OFFCURVE",
"596 604 OFFCURVE",
"573 604 CURVE SMOOTH"
);
},
{
closed = 1;
nodes = (
"137 -105 OFFCURVE",
"112 -94 OFFCURVE",
"121 -60 CURVE SMOOTH",
"135 -7 OFFCURVE",
"360 0 OFFCURVE",
"376 0 CURVE",
"347 -112 OFFCURVE",
"215 -105 OFFCURVE",
"179 -105 CURVE SMOOTH"
);
}
);
width = 600;
}
);
note = Ydieresis;
unicode = 0178;
},
{
glyphname = Z;
lastChange = "2018-07-06 16:40:04 +0000";
layers = (
{
layerId = "FFFF8F4E-B79A-404B-9AF7-1E6E36D02A09";
paths = (
{
closed = 1;
nodes = (
"538 191 OFFCURVE",
"532 171 OFFCURVE",
"523 139 CURVE SMOOTH",
"507 80 OFFCURVE",
"479 59 OFFCURVE",
"417 59 CURVE SMOOTH",
"361 59 OFFCURVE",
"326 164 OFFCURVE",
"233 169 CURVE",
"540 524 LINE",
"558 547 OFFCURVE",
"561 570 OFFCURVE",
"541 590 CURVE SMOOTH",
"528 603 OFFCURVE",
"504 603 OFFCURVE",
"479 603 CURVE SMOOTH",
"268 602 LINE",
"120 603 LINE SMOOTH",
"107 603 OFFCURVE",
"84 591 OFFCURVE",
"78 563 CURVE",
"61 501 LINE SMOOTH",
"54 477 OFFCURVE",
"43 435 OFFCURVE",
"77 428 CURVE SMOOTH",
"112 421 OFFCURVE",
"120 450 OFFCURVE",
"129 485 CURVE SMOOTH",
"141 531 LINE",
"453 531 LINE",
"40 53 LINE SMOOTH",
"24 35 OFFCURVE",
"17 3 OFFCURVE",
"32 -8 CURVE SMOOTH",
"49 -21 OFFCURVE",
"75 -12 OFFCURVE",
"94 8 CURVE",
"130 49 LINE",
"180 102 OFFCURVE",
"200 96 OFFCURVE",
"226 96 CURVE SMOOTH",
"292 96 OFFCURVE",
"325 -12 OFFCURVE",
"417 -12 CURVE SMOOTH",
"495 -12 OFFCURVE",
"560 13 OFFCURVE",
"593 140 CURVE SMOOTH",
"602 173 OFFCURVE",
"585 193 OFFCURVE",
"562 192 CURVE SMOOTH"
);
}
);
width = 600;
}
);
note = Z;
unicode = 005A;
},
{
glyphname = a;
lastChange = "2018-07-06 16:40:04 +0000";
layers = (
{
layerId = "FFFF8F4E-B79A-404B-9AF7-1E6E36D02A09";
paths = (
{
closed = 1;
nodes = (
"31 34 OFFCURVE",
"56 -12 OFFCURVE",
"120 -12 CURVE SMOOTH",
"179 -12 OFFCURVE",
"288 126 OFFCURVE",
"390 245 CURVE",
"357 58 LINE SMOOTH",
"349 14 OFFCURVE",
"355 -13 OFFCURVE",
"391 -13 CURVE SMOOTH",
"427 -13 OFFCURVE",
"443 -1 OFFCURVE",
"485 35 CURVE SMOOTH",
"720 236 LINE SMOOTH",
"740 254 OFFCURVE",
"752 273 OFFCURVE",
"742 292 CURVE SMOOTH",
"733 309 OFFCURVE",
"712 310 OFFCURVE",
"694 295 CURVE SMOOTH",
"434 74 LINE",
"476 297 LINE SMOOTH",
"481 324 OFFCURVE",
"465 345 OFFCURVE",
"439 345 CURVE SMOOTH",
"416 345 OFFCURVE",
"395 334 OFFCURVE",
"384 322 CURVE SMOOTH",
"197 119 OFFCURVE",
"147 58 OFFCURVE",
"120 58 CURVE SMOOTH",
"107 58 OFFCURVE",
"102 76 OFFCURVE",
"102 100 CURVE SMOOTH",
"102 243 OFFCURVE",
"212 372 OFFCURVE",
"379 372 CURVE SMOOTH",
"424 372 OFFCURVE",
"455 363 OFFCURVE",
"481 353 CURVE SMOOTH",
"491 349 OFFCURVE",
"511 351 OFFCURVE",
"520 365 CURVE SMOOTH",
"530 380 OFFCURVE",
"529 403 OFFCURVE",
"518 412 CURVE",
"486 436 OFFCURVE",
"447 443 OFFCURVE",
"380 443 CURVE SMOOTH",
"155 443 OFFCURVE",
"31 270 OFFCURVE",
"31 100 CURVE SMOOTH"
);
}
);
width = 600;
}
);
note = a;
unicode = 0061;
},
{
glyphname = aacute;
lastChange = "2018-07-06 16:40:04 +0000";
layers = (
{
layerId = "FFFF8F4E-B79A-404B-9AF7-1E6E36D02A09";
paths = (
{
closed = 1;
nodes = (
"488 599 OFFCURVE",
"474 619 OFFCURVE",
"451 613 CURVE",
"217 566 LINE SMOOTH",
"192 561 OFFCURVE",
"185 544 OFFCURVE",
"187 532 CURVE SMOOTH",
"189 518 OFFCURVE",
"199 503 OFFCURVE",
"227 510 CURVE",
"468 547 LINE",
"494 553 OFFCURVE",
"493 574 OFFCURVE",
"490 589 CURVE SMOOTH"
);
},
{
closed = 1;
nodes = (
"31 34 OFFCURVE",
"56 -12 OFFCURVE",
"120 -12 CURVE SMOOTH",
"179 -12 OFFCURVE",
"288 126 OFFCURVE",
"390 245 CURVE",
"357 58 LINE SMOOTH",
"349 14 OFFCURVE",
"355 -13 OFFCURVE",
"391 -13 CURVE SMOOTH",
"427 -13 OFFCURVE",
"443 -1 OFFCURVE",
"485 35 CURVE SMOOTH",
"720 236 LINE SMOOTH",
"740 254 OFFCURVE",
"752 273 OFFCURVE",
"742 292 CURVE SMOOTH",
"733 309 OFFCURVE",
"712 310 OFFCURVE",
"694 295 CURVE SMOOTH",
"434 74 LINE",
"476 297 LINE SMOOTH",
"481 324 OFFCURVE",
"465 345 OFFCURVE",
"439 345 CURVE SMOOTH",
"416 345 OFFCURVE",
"395 334 OFFCURVE",
"384 322 CURVE SMOOTH",
"197 119 OFFCURVE",
"147 58 OFFCURVE",
"120 58 CURVE SMOOTH",
"107 58 OFFCURVE",
"102 76 OFFCURVE",
"102 100 CURVE SMOOTH",
"102 243 OFFCURVE",
"212 372 OFFCURVE",
"379 372 CURVE SMOOTH",
"424 372 OFFCURVE",
"455 363 OFFCURVE",
"481 353 CURVE SMOOTH",
"491 349 OFFCURVE",
"511 351 OFFCURVE",
"520 365 CURVE SMOOTH",
"530 380 OFFCURVE",
"529 403 OFFCURVE",
"518 412 CURVE",
"486 436 OFFCURVE",
"447 443 OFFCURVE",
"380 443 CURVE SMOOTH",
"155 443 OFFCURVE",
"31 270 OFFCURVE",
"31 100 CURVE SMOOTH"
);
}
);
width = 600;
}
);
note = aacute;
unicode = 00E1;
},
{
glyphname = acircumflex;
lastChange = "2018-07-06 16:40:04 +0000";
layers = (
{
layerId = "FFFF8F4E-B79A-404B-9AF7-1E6E36D02A09";
paths = (
{
closed = 1;
nodes = (
"128 485 OFFCURVE",
"144 470 OFFCURVE",
"164 479 CURVE SMOOTH",
"315 548 LINE",
"466 479 LINE SMOOTH",
"486 470 OFFCURVE",
"502 485 OFFCURVE",
"506 498 CURVE SMOOTH",
"511 513 OFFCURVE",
"508 535 OFFCURVE",
"487 544 CURVE SMOOTH",
"315 619 LINE",
"143 544 LINE SMOOTH",
"122 535 OFFCURVE",
"119 513 OFFCURVE",
"124 498 CURVE SMOOTH"
);
},
{
closed = 1;
nodes = (
"31 34 OFFCURVE",
"56 -12 OFFCURVE",
"120 -12 CURVE SMOOTH",
"179 -12 OFFCURVE",
"288 126 OFFCURVE",
"390 245 CURVE",
"357 58 LINE SMOOTH",
"349 14 OFFCURVE",
"355 -13 OFFCURVE",
"391 -13 CURVE SMOOTH",
"427 -13 OFFCURVE",
"443 -1 OFFCURVE",
"485 35 CURVE SMOOTH",
"720 236 LINE SMOOTH",
"740 254 OFFCURVE",
"752 273 OFFCURVE",
"742 292 CURVE SMOOTH",
"733 309 OFFCURVE",
"712 310 OFFCURVE",
"694 295 CURVE SMOOTH",
"434 74 LINE",
"476 297 LINE SMOOTH",
"481 324 OFFCURVE",
"465 345 OFFCURVE",
"439 345 CURVE SMOOTH",
"416 345 OFFCURVE",
"395 334 OFFCURVE",
"384 322 CURVE SMOOTH",
"197 119 OFFCURVE",
"147 58 OFFCURVE",
"120 58 CURVE SMOOTH",
"107 58 OFFCURVE",
"102 76 OFFCURVE",
"102 100 CURVE SMOOTH",
"102 243 OFFCURVE",
"212 372 OFFCURVE",
"379 372 CURVE SMOOTH",
"424 372 OFFCURVE",
"455 363 OFFCURVE",
"481 353 CURVE SMOOTH",
"491 349 OFFCURVE",
"511 351 OFFCURVE",
"520 365 CURVE SMOOTH",
"530 380 OFFCURVE",
"529 403 OFFCURVE",
"518 412 CURVE",
"486 436 OFFCURVE",
"447 443 OFFCURVE",
"380 443 CURVE SMOOTH",
"155 443 OFFCURVE",
"31 270 OFFCURVE",
"31 100 CURVE SMOOTH"
);
}
);
width = 600;
}
);
note = acircumflex;
unicode = 00E2;
},
{
glyphname = adieresis;
lastChange = "2018-07-06 16:40:04 +0000";
layers = (
{
layerId = "FFFF8F4E-B79A-404B-9AF7-1E6E36D02A09";
paths = (
{
closed = 1;
nodes = (
"251 497 OFFCURVE",
"277 523 OFFCURVE",
"277 553 CURVE SMOOTH",
"277 590 OFFCURVE",
"256 614 OFFCURVE",
"217 614 CURVE SMOOTH",
"182 614 OFFCURVE",
"157 589 OFFCURVE",
"157 551 CURVE SMOOTH",
"157 522 OFFCURVE",
"186 497 OFFCURVE",
"217 497 CURVE SMOOTH"
);
},
{
closed = 1;
nodes = (
"450 497 OFFCURVE",
"476 523 OFFCURVE",
"476 553 CURVE SMOOTH",
"476 590 OFFCURVE",
"455 614 OFFCURVE",
"416 614 CURVE SMOOTH",
"381 614 OFFCURVE",
"356 589 OFFCURVE",
"356 551 CURVE SMOOTH",
"356 522 OFFCURVE",
"385 497 OFFCURVE",
"416 497 CURVE SMOOTH"
);
},
{
closed = 1;
nodes = (
"31 34 OFFCURVE",
"56 -12 OFFCURVE",
"120 -12 CURVE SMOOTH",
"179 -12 OFFCURVE",
"288 126 OFFCURVE",
"390 245 CURVE",
"357 58 LINE SMOOTH",
"349 14 OFFCURVE",
"355 -13 OFFCURVE",
"391 -13 CURVE SMOOTH",
"427 -13 OFFCURVE",
"443 -1 OFFCURVE",
"485 35 CURVE SMOOTH",
"720 236 LINE SMOOTH",
"740 254 OFFCURVE",
"752 273 OFFCURVE",
"742 292 CURVE SMOOTH",
"733 309 OFFCURVE",
"712 310 OFFCURVE",
"694 295 CURVE SMOOTH",
"434 74 LINE",
"476 297 LINE SMOOTH",
"481 324 OFFCURVE",
"465 345 OFFCURVE",
"439 345 CURVE SMOOTH",
"416 345 OFFCURVE",
"395 334 OFFCURVE",
"384 322 CURVE SMOOTH",
"197 119 OFFCURVE",
"147 58 OFFCURVE",
"120 58 CURVE SMOOTH",
"107 58 OFFCURVE",
"102 76 OFFCURVE",
"102 100 CURVE SMOOTH",
"102 243 OFFCURVE",
"212 372 OFFCURVE",
"379 372 CURVE SMOOTH",
"424 372 OFFCURVE",
"455 363 OFFCURVE",
"481 353 CURVE SMOOTH",
"491 349 OFFCURVE",
"511 351 OFFCURVE",
"520 365 CURVE SMOOTH",
"530 380 OFFCURVE",
"529 403 OFFCURVE",
"518 412 CURVE",
"486 436 OFFCURVE",
"447 443 OFFCURVE",
"380 443 CURVE SMOOTH",
"155 443 OFFCURVE",
"31 270 OFFCURVE",
"31 100 CURVE SMOOTH"
);
}
);
width = 600;
}
);
note = adieresis;
unicode = 00E4;
},
{
glyphname = agrave;
lastChange = "2018-07-06 16:40:04 +0000";
layers = (
{
layerId = "FFFF8F4E-B79A-404B-9AF7-1E6E36D02A09";
paths = (
{
closed = 1;
nodes = (
"141 573 OFFCURVE",
"140 552 OFFCURVE",
"166 546 CURVE",
"407 509 LINE",
"435 502 OFFCURVE",
"445 517 OFFCURVE",
"447 531 CURVE SMOOTH",
"449 543 OFFCURVE",
"442 560 OFFCURVE",
"417 565 CURVE SMOOTH",
"183 612 LINE",
"160 618 OFFCURVE",
"146 598 OFFCURVE",
"144 588 CURVE SMOOTH"
);
},
{
closed = 1;
nodes = (
"31 34 OFFCURVE",
"56 -12 OFFCURVE",
"120 -12 CURVE SMOOTH",
"179 -12 OFFCURVE",
"288 126 OFFCURVE",
"390 245 CURVE",
"357 58 LINE SMOOTH",
"349 14 OFFCURVE",
"355 -13 OFFCURVE",
"391 -13 CURVE SMOOTH",
"427 -13 OFFCURVE",
"443 -1 OFFCURVE",
"485 35 CURVE SMOOTH",
"720 236 LINE SMOOTH",
"740 254 OFFCURVE",
"752 273 OFFCURVE",
"742 292 CURVE SMOOTH",
"733 309 OFFCURVE",
"712 310 OFFCURVE",
"694 295 CURVE SMOOTH",
"434 74 LINE",
"476 297 LINE SMOOTH",
"481 324 OFFCURVE",
"465 345 OFFCURVE",
"439 345 CURVE SMOOTH",
"416 345 OFFCURVE",
"395 334 OFFCURVE",
"384 322 CURVE SMOOTH",
"197 119 OFFCURVE",
"147 58 OFFCURVE",
"120 58 CURVE SMOOTH",
"107 58 OFFCURVE",
"102 76 OFFCURVE",
"102 100 CURVE SMOOTH",
"102 243 OFFCURVE",
"212 372 OFFCURVE",
"379 372 CURVE SMOOTH",
"424 372 OFFCURVE",
"455 363 OFFCURVE",
"481 353 CURVE SMOOTH",
"491 349 OFFCURVE",
"511 351 OFFCURVE",
"520 365 CURVE SMOOTH",
"530 380 OFFCURVE",
"529 403 OFFCURVE",
"518 412 CURVE",
"486 436 OFFCURVE",
"447 443 OFFCURVE",
"380 443 CURVE SMOOTH",
"155 443 OFFCURVE",
"31 270 OFFCURVE",
"31 100 CURVE SMOOTH"
);
}
);
width = 600;
}
);
note = agrave;
unicode = 00E0;
},
{
glyphname = aring;
lastChange = "2018-07-06 16:40:04 +0000";
layers = (
{
layerId = "FFFF8F4E-B79A-404B-9AF7-1E6E36D02A09";
paths = (
{
closed = 1;
nodes = (
"334 486 OFFCURVE",
"360 512 OFFCURVE",
"360 542 CURVE SMOOTH",
"360 579 OFFCURVE",
"339 603 OFFCURVE",
"300 603 CURVE SMOOTH",
"265 603 OFFCURVE",
"240 578 OFFCURVE",
"240 540 CURVE SMOOTH",
"240 511 OFFCURVE",
"269 486 OFFCURVE",
"300 486 CURVE SMOOTH"
);
},
{
closed = 1;
nodes = (
"290 525 OFFCURVE",
"280 534 OFFCURVE",
"280 543 CURVE SMOOTH",
"280 555 OFFCURVE",
"289 564 OFFCURVE",
"300 564 CURVE SMOOTH",
"313 564 OFFCURVE",
"320 556 OFFCURVE",
"320 544 CURVE SMOOTH",
"320 534 OFFCURVE",
"311 525 OFFCURVE",
"300 525 CURVE SMOOTH"
);
},
{
closed = 1;
nodes = (
"31 34 OFFCURVE",
"56 -12 OFFCURVE",
"120 -12 CURVE SMOOTH",
"179 -12 OFFCURVE",
"288 126 OFFCURVE",
"390 245 CURVE",
"357 58 LINE SMOOTH",
"349 14 OFFCURVE",
"355 -13 OFFCURVE",
"391 -13 CURVE SMOOTH",
"427 -13 OFFCURVE",
"443 -1 OFFCURVE",
"485 35 CURVE SMOOTH",
"720 236 LINE SMOOTH",
"740 254 OFFCURVE",
"752 273 OFFCURVE",
"742 292 CURVE SMOOTH",
"733 309 OFFCURVE",
"712 310 OFFCURVE",
"694 295 CURVE SMOOTH",
"434 74 LINE",
"476 297 LINE SMOOTH",
"481 324 OFFCURVE",
"465 345 OFFCURVE",
"439 345 CURVE SMOOTH",
"416 345 OFFCURVE",
"395 334 OFFCURVE",
"384 322 CURVE SMOOTH",
"197 119 OFFCURVE",
"147 58 OFFCURVE",
"120 58 CURVE SMOOTH",
"107 58 OFFCURVE",
"102 76 OFFCURVE",
"102 100 CURVE SMOOTH",
"102 243 OFFCURVE",
"212 372 OFFCURVE",
"379 372 CURVE SMOOTH",
"424 372 OFFCURVE",
"455 363 OFFCURVE",
"481 353 CURVE SMOOTH",
"491 349 OFFCURVE",
"511 351 OFFCURVE",
"520 365 CURVE SMOOTH",
"530 380 OFFCURVE",
"529 403 OFFCURVE",
"518 412 CURVE",
"486 436 OFFCURVE",
"447 443 OFFCURVE",
"380 443 CURVE SMOOTH",
"155 443 OFFCURVE",
"31 270 OFFCURVE",
"31 100 CURVE SMOOTH"
);
}
);
width = 600;
}
);
note = aring;
unicode = 00E5;
},
{
glyphname = atilde;
lastChange = "2018-07-06 16:40:04 +0000";
layers = (
{
layerId = "FFFF8F4E-B79A-404B-9AF7-1E6E36D02A09";
paths = (
{
closed = 1;
nodes = (
"354 494 OFFCURVE",
"331 506 OFFCURVE",
"317 519 CURVE SMOOTH",
"292 542 OFFCURVE",
"281 556 OFFCURVE",
"257 556 CURVE SMOOTH",
"244 556 OFFCURVE",
"219 535 OFFCURVE",
"190 503 CURVE SMOOTH",
"180 492 OFFCURVE",
"157 490 OFFCURVE",
"145 503 CURVE",
"136 512 OFFCURVE",
"135 530 OFFCURVE",
"145 541 CURVE SMOOTH",
"189 589 OFFCURVE",
"224 614 OFFCURVE",
"258 614 CURVE SMOOTH",
"281 614 OFFCURVE",
"304 604 OFFCURVE",
"322 588 CURVE SMOOTH",
"345 567 OFFCURVE",
"361 552 OFFCURVE",
"379 552 CURVE SMOOTH",
"402 552 OFFCURVE",
"417 569 OFFCURVE",
"445 603 CURVE SMOOTH",
"454 614 OFFCURVE",
"477 617 OFFCURVE",
"488 609 CURVE",
"502 598 OFFCURVE",
"501 577 OFFCURVE",
"492 566 CURVE SMOOTH",
"452 517 OFFCURVE",
"416 493 OFFCURVE",
"379 493 CURVE"
);
},
{
closed = 1;
nodes = (
"31 34 OFFCURVE",
"56 -12 OFFCURVE",
"120 -12 CURVE SMOOTH",
"179 -12 OFFCURVE",
"288 126 OFFCURVE",
"390 245 CURVE",
"357 58 LINE SMOOTH",
"349 14 OFFCURVE",
"355 -13 OFFCURVE",
"391 -13 CURVE SMOOTH",
"427 -13 OFFCURVE",
"443 -1 OFFCURVE",
"485 35 CURVE SMOOTH",
"720 236 LINE SMOOTH",
"740 254 OFFCURVE",
"752 273 OFFCURVE",
"742 292 CURVE SMOOTH",
"733 309 OFFCURVE",
"712 310 OFFCURVE",
"694 295 CURVE SMOOTH",
"434 74 LINE",
"476 297 LINE SMOOTH",
"481 324 OFFCURVE",
"465 345 OFFCURVE",
"439 345 CURVE SMOOTH",
"416 345 OFFCURVE",
"395 334 OFFCURVE",
"384 322 CURVE SMOOTH",
"197 119 OFFCURVE",
"147 58 OFFCURVE",
"120 58 CURVE SMOOTH",
"107 58 OFFCURVE",
"102 76 OFFCURVE",
"102 100 CURVE SMOOTH",
"102 243 OFFCURVE",
"212 372 OFFCURVE",
"379 372 CURVE SMOOTH",
"424 372 OFFCURVE",
"455 363 OFFCURVE",
"481 353 CURVE SMOOTH",
"491 349 OFFCURVE",
"511 351 OFFCURVE",
"520 365 CURVE SMOOTH",
"530 380 OFFCURVE",
"529 403 OFFCURVE",
"518 412 CURVE",
"486 436 OFFCURVE",
"447 443 OFFCURVE",
"380 443 CURVE SMOOTH",
"155 443 OFFCURVE",
"31 270 OFFCURVE",
"31 100 CURVE SMOOTH"
);
}
);
width = 600;
}
);
note = atilde;
unicode = 00E3;
},
{
glyphname = ae;
lastChange = "2018-07-06 16:40:04 +0000";
layers = (
{
layerId = "FFFF8F4E-B79A-404B-9AF7-1E6E36D02A09";
paths = (
{
closed = 1;
nodes = (
"733 309 OFFCURVE",
"712 310 OFFCURVE",
"694 295 CURVE SMOOTH",
"604 218 LINE SMOOTH",
"472 105 OFFCURVE",
"415 50 OFFCURVE",
"348 50 CURVE SMOOTH",
"299 50 OFFCURVE",
"289 87 OFFCURVE",
"319 193 CURVE",
"480 193 OFFCURVE",
"568 253 OFFCURVE",
"590 338 CURVE SMOOTH",
"602 385 OFFCURVE",
"590 443 OFFCURVE",
"487 443 CURVE SMOOTH",
"418 443 OFFCURVE",
"366 411 OFFCURVE",
"327 360 CURVE SMOOTH",
"268 277 OFFCURVE",
"175 132 OFFCURVE",
"132 77 CURVE SMOOTH",
"112 53 OFFCURVE",
"101 45 OFFCURVE",
"89 79 CURVE SMOOTH",
"50 188 OFFCURVE",
"73 323 OFFCURVE",
"185 363 CURVE SMOOTH",
"216 374 OFFCURVE",
"241 373 OFFCURVE",
"264 373 CURVE",
"282 374 OFFCURVE",
"301 378 OFFCURVE",
"307 408 CURVE SMOOTH",
"311 426 OFFCURVE",
"290 439 OFFCURVE",
"274 441 CURVE",
"245 443 OFFCURVE",
"212 446 OFFCURVE",
"161 428 CURVE SMOOTH",
"-10 368 OFFCURVE",
"-23 182 OFFCURVE",
"23 54 CURVE SMOOTH",
"44 -4 OFFCURVE",
"87 -25 OFFCURVE",
"133 -9 CURVE SMOOTH",
"152 -2 OFFCURVE",
"183 42 OFFCURVE",
"228 110 CURVE",
"229 88 OFFCURVE",
"232 67 OFFCURVE",
"240 47 CURVE SMOOTH",
"250 22 OFFCURVE",
"284 -14 OFFCURVE",
"343 -14 CURVE SMOOTH",
"426 -14 OFFCURVE",
"492 34 OFFCURVE",
"626 156 CURVE SMOOTH",
"720 236 LINE SMOOTH",
"739 252 OFFCURVE",
"752 273 OFFCURVE",
"742 292 CURVE SMOOTH"
);
},
{
closed = 1;
nodes = (
"509 382 OFFCURVE",
"530 378 OFFCURVE",
"520 338 CURVE SMOOTH",
"507 285 OFFCURVE",
"430 259 OFFCURVE",
"333 261 CURVE",
"333 263 LINE",
"373 338 OFFCURVE",
"409 382 OFFCURVE",
"469 382 CURVE SMOOTH"
);
}
);
width = 600;
}
);
note = ae;
unicode = 00E6;
},
{
glyphname = b;
lastChange = "2018-07-06 16:40:04 +0000";
layers = (
{
layerId = "FFFF8F4E-B79A-404B-9AF7-1E6E36D02A09";
paths = (
{
closed = 1;
nodes = (
"25 25 LINE SMOOTH",
"20 5 OFFCURVE",
"32 -13 OFFCURVE",
"56 -13 CURVE SMOOTH",
"79 -13 OFFCURVE",
"97 6 OFFCURVE",
"106 20 CURVE SMOOTH",
"229 203 OFFCURVE",
"421 368 OFFCURVE",
"454 368 CURVE SMOOTH",
"489 368 OFFCURVE",
"487 303 OFFCURVE",
"489 279 CURVE SMOOTH",
"500 119 OFFCURVE",
"478 38 OFFCURVE",
"266 65 CURVE SMOOTH",
"216 71 OFFCURVE",
"214 1 OFFCURVE",
"266 -5 CURVE SMOOTH",
"384 -18 OFFCURVE",
"449 6 OFFCURVE",
"498 47 CURVE SMOOTH",
"720 236 LINE SMOOTH",
"740 253 OFFCURVE",
"752 273 OFFCURVE",
"742 292 CURVE SMOOTH",
"733 309 OFFCURVE",
"712 310 OFFCURVE",
"694 295 CURVE SMOOTH",
"557 179 LINE",
"561 209 OFFCURVE",
"562 243 OFFCURVE",
"561 277 CURVE SMOOTH",
"559 343 OFFCURVE",
"536 442 OFFCURVE",
"449 442 CURVE SMOOTH",
"384 442 OFFCURVE",
"261 307 OFFCURVE",
"145 192 CURVE",
"243 568 LINE SMOOTH",
"246 580 OFFCURVE",
"237 603 OFFCURVE",
"210 603 CURVE SMOOTH",
"188 603 OFFCURVE",
"170 582 OFFCURVE",
"166 567 CURVE SMOOTH"
);
}
);
width = 600;
}
);
note = b;
unicode = 0062;
},
{
glyphname = c;
lastChange = "2018-07-06 16:40:04 +0000";
layers = (
{
layerId = "FFFF8F4E-B79A-404B-9AF7-1E6E36D02A09";
paths = (
{
closed = 1;
nodes = (
"50 12 OFFCURVE",
"129 -13 OFFCURVE",
"238 -13 CURVE SMOOTH",
"375 -13 OFFCURVE",
"496 46 OFFCURVE",
"637 165 CURVE SMOOTH",
"710 227 LINE",
"720 236 LINE SMOOTH",
"739 252 OFFCURVE",
"752 273 OFFCURVE",
"742 292 CURVE SMOOTH",
"733 309 OFFCURVE",
"712 310 OFFCURVE",
"694 295 CURVE SMOOTH",
"604 218 LINE SMOOTH",
"484 116 OFFCURVE",
"352 51 OFFCURVE",
"243 51 CURVE SMOOTH",
"152 51 OFFCURVE",
"119 84 OFFCURVE",
"119 166 CURVE SMOOTH",
"119 258 OFFCURVE",
"240 383 OFFCURVE",
"340 383 CURVE SMOOTH",
"420 383 OFFCURVE",
"405 297 OFFCURVE",
"335 241 CURVE SMOOTH",
"318 227 OFFCURVE",
"320 205 OFFCURVE",
"335 194 CURVE SMOOTH",
"353 181 OFFCURVE",
"379 191 OFFCURVE",
"405 213 CURVE SMOOTH",
"508 301 OFFCURVE",
"481 444 OFFCURVE",
"338 444 CURVE SMOOTH",
"202 444 OFFCURVE",
"50 293 OFFCURVE",
"50 162 CURVE SMOOTH"
);
}
);
width = 600;
}
);
note = c;
unicode = 0063;
},
{
glyphname = ccedilla;
lastChange = "2018-07-06 16:40:04 +0000";
layers = (
{
layerId = "FFFF8F4E-B79A-404B-9AF7-1E6E36D02A09";
paths = (
{
closed = 1;
nodes = (
"733 309 OFFCURVE",
"712 310 OFFCURVE",
"694 295 CURVE SMOOTH",
"604 218 LINE SMOOTH",
"484 116 OFFCURVE",
"352 51 OFFCURVE",
"243 51 CURVE SMOOTH",
"152 51 OFFCURVE",
"119 84 OFFCURVE",
"119 166 CURVE SMOOTH",
"119 258 OFFCURVE",
"240 383 OFFCURVE",
"340 383 CURVE SMOOTH",
"420 383 OFFCURVE",
"405 297 OFFCURVE",
"335 241 CURVE SMOOTH",
"318 227 OFFCURVE",
"320 205 OFFCURVE",
"335 194 CURVE SMOOTH",
"353 181 OFFCURVE",
"379 191 OFFCURVE",
"405 213 CURVE SMOOTH",
"508 301 OFFCURVE",
"481 444 OFFCURVE",
"338 444 CURVE SMOOTH",
"202 444 OFFCURVE",
"50 293 OFFCURVE",
"50 162 CURVE SMOOTH",
"50 39 OFFCURVE",
"103 0 OFFCURVE",
"183 -10 CURVE",
"170 -54 LINE",
"219 -72 OFFCURVE",
"253 -81 OFFCURVE",
"253 -98 CURVE SMOOTH",
"253 -139 OFFCURVE",
"195 -128 OFFCURVE",
"130 -81 CURVE SMOOTH",
"118 -72 OFFCURVE",
"98 -77 OFFCURVE",
"90 -89 CURVE",
"83 -103 OFFCURVE",
"86 -120 OFFCURVE",
"98 -128 CURVE SMOOTH",
"142 -158 OFFCURVE",
"182 -174 OFFCURVE",
"219 -174 CURVE SMOOTH",
"258 -174 OFFCURVE",
"306 -146 OFFCURVE",
"306 -98 CURVE SMOOTH",
"306 -61 OFFCURVE",
"286 -48 OFFCURVE",
"237 -21 CURVE",
"239 -13 LINE",
"376 -13 OFFCURVE",
"496 46 OFFCURVE",
"637 165 CURVE SMOOTH",
"710 227 LINE",
"720 236 LINE SMOOTH",
"739 252 OFFCURVE",
"752 273 OFFCURVE",
"742 292 CURVE SMOOTH"
);
}
);
width = 600;
}
);
note = ccedilla;
unicode = 00E7;
},
{
glyphname = d;
lastChange = "2018-07-06 16:40:04 +0000";
layers = (
{
layerId = "FFFF8F4E-B79A-404B-9AF7-1E6E36D02A09";
paths = (
{
closed = 1;
nodes = (
"49 34 OFFCURVE",
"74 -12 OFFCURVE",
"138 -12 CURVE SMOOTH",
"197 -12 OFFCURVE",
"302 128 OFFCURVE",
"408 245 CURVE",
"357 58 LINE SMOOTH",
"345 14 OFFCURVE",
"355 -13 OFFCURVE",
"391 -13 CURVE SMOOTH",
"427 -13 OFFCURVE",
"443 -1 OFFCURVE",
"485 35 CURVE SMOOTH",
"720 236 LINE SMOOTH",
"740 254 OFFCURVE",
"752 273 OFFCURVE",
"742 292 CURVE SMOOTH",
"733 309 OFFCURVE",
"712 310 OFFCURVE",
"694 295 CURVE SMOOTH",
"434 74 LINE",
"566 558 LINE SMOOTH",
"574 586 OFFCURVE",
"562 603 OFFCURVE",
"541 603 CURVE SMOOTH",
"520 603 OFFCURVE",
"502 588 OFFCURVE",
"495 563 CURVE SMOOTH",
"461 438 LINE",
"443 441 OFFCURVE",
"422 443 OFFCURVE",
"398 443 CURVE SMOOTH",
"173 443 OFFCURVE",
"49 270 OFFCURVE",
"49 100 CURVE SMOOTH"
);
},
{
closed = 1;
nodes = (
"121 241 OFFCURVE",
"230 374 OFFCURVE",
"397 374 CURVE SMOOTH",
"414 374 OFFCURVE",
"429 372 OFFCURVE",
"442 370 CURVE",
"374 295 OFFCURVE",
"176 62 OFFCURVE",
"150 62 CURVE SMOOTH",
"129 62 OFFCURVE",
"121 74 OFFCURVE",
"121 98 CURVE SMOOTH"
);
}
);
width = 600;
}
);
note = d;
unicode = 0064;
},
{
glyphname = eth;
lastChange = "2018-07-06 16:40:04 +0000";
layers = (
{
layerId = "FFFF8F4E-B79A-404B-9AF7-1E6E36D02A09";
paths = (
{
closed = 1;
nodes = (
"527 637 OFFCURVE",
"506 646 OFFCURVE",
"485 636 CURVE SMOOTH",
"422 606 LINE",
"366 644 OFFCURVE",
"288 661 OFFCURVE",
"199 661 CURVE SMOOTH",
"179 661 OFFCURVE",
"163 651 OFFCURVE",
"163 629 CURVE SMOOTH",
"163 606 OFFCURVE",
"179 599 OFFCURVE",
"200 599 CURVE SMOOTH",
"267 599 OFFCURVE",
"318 591 OFFCURVE",
"357 575 CURVE",
"311 553 LINE SMOOTH",
"298 547 OFFCURVE",
"287 525 OFFCURVE",
"295 512 CURVE SMOOTH",
"307 493 OFFCURVE",
"328 494 OFFCURVE",
"345 502 CURVE SMOOTH",
"415 535 LINE",
"438 510 OFFCURVE",
"448 478 OFFCURVE",
"448 441 CURVE",
"436 443 OFFCURVE",
"412 443 OFFCURVE",
"398 443 CURVE SMOOTH",
"166 443 OFFCURVE",
"49 270 OFFCURVE",
"49 100 CURVE SMOOTH",
"49 34 OFFCURVE",
"74 -12 OFFCURVE",
"138 -12 CURVE SMOOTH",
"251 -12 OFFCURVE",
"489 253 OFFCURVE",
"508 354 CURVE SMOOTH",
"525 444 OFFCURVE",
"510 513 OFFCURVE",
"471 562 CURVE",
"492 572 LINE SMOOTH",
"517 584 OFFCURVE",
"534 597 OFFCURVE",
"530 619 CURVE SMOOTH"
);
},
{
closed = 1;
nodes = (
"129 62 OFFCURVE",
"121 74 OFFCURVE",
"121 98 CURVE SMOOTH",
"121 241 OFFCURVE",
"230 374 OFFCURVE",
"397 374 CURVE SMOOTH",
"414 374 OFFCURVE",
"429 372 OFFCURVE",
"442 370 CURVE",
"439 267 OFFCURVE",
"176 62 OFFCURVE",
"150 62 CURVE SMOOTH"
);
}
);
width = 600;
}
);
note = eth;
unicode = 00F0;
},
{
glyphname = e;
lastChange = "2018-07-06 16:40:04 +0000";
layers = (
{
layerId = "FFFF8F4E-B79A-404B-9AF7-1E6E36D02A09";
paths = (
{
closed = 1;
nodes = (
"733 309 OFFCURVE",
"712 310 OFFCURVE",
"694 295 CURVE SMOOTH",
"604 218 LINE SMOOTH",
"472 105 OFFCURVE",
"346 48 OFFCURVE",
"241 51 CURVE SMOOTH",
"159 53 OFFCURVE",
"125 81 OFFCURVE",
"125 166 CURVE SMOOTH",
"125 173 OFFCURVE",
"125 180 OFFCURVE",
"126 187 CURVE",
"317 187 OFFCURVE",
"471 258 OFFCURVE",
"471 346 CURVE SMOOTH",
"471 407 OFFCURVE",
"437 444 OFFCURVE",
"352 444 CURVE SMOOTH",
"213 444 OFFCURVE",
"51 322 OFFCURVE",
"51 162 CURVE SMOOTH",
"51 11 OFFCURVE",
"136 -13 OFFCURVE",
"236 -13 CURVE SMOOTH",
"352 -13 OFFCURVE",
"483 34 OFFCURVE",
"626 156 CURVE SMOOTH",
"720 236 LINE SMOOTH",
"739 252 OFFCURVE",
"752 273 OFFCURVE",
"742 292 CURVE SMOOTH"
);
},
{
closed = 1;
nodes = (
"374 383 OFFCURVE",
"391 372 OFFCURVE",
"391 344 CURVE SMOOTH",
"391 290 OFFCURVE",
"280 252 OFFCURVE",
"148 252 CURVE",
"188 328 OFFCURVE",
"274 383 OFFCURVE",
"334 383 CURVE SMOOTH"
);
}
);
width = 600;
}
);
note = e;
unicode = 0065;
},
{
glyphname = eacute;
lastChange = "2018-07-06 16:40:04 +0000";
layers = (
{
layerId = "FFFF8F4E-B79A-404B-9AF7-1E6E36D02A09";
paths = (
{
closed = 1;
nodes = (
"507 588 OFFCURVE",
"493 608 OFFCURVE",
"470 602 CURVE",
"236 555 LINE SMOOTH",
"211 550 OFFCURVE",
"204 533 OFFCURVE",
"206 521 CURVE SMOOTH",
"208 507 OFFCURVE",
"218 492 OFFCURVE",
"246 499 CURVE",
"487 536 LINE",
"513 542 OFFCURVE",
"512 563 OFFCURVE",
"509 578 CURVE SMOOTH"
);
},
{
closed = 1;
nodes = (
"733 309 OFFCURVE",
"712 310 OFFCURVE",
"694 295 CURVE SMOOTH",
"604 218 LINE SMOOTH",
"472 105 OFFCURVE",
"346 48 OFFCURVE",
"241 51 CURVE SMOOTH",
"159 53 OFFCURVE",
"125 81 OFFCURVE",
"125 166 CURVE SMOOTH",
"125 173 OFFCURVE",
"125 180 OFFCURVE",
"126 187 CURVE",
"317 187 OFFCURVE",
"471 258 OFFCURVE",
"471 346 CURVE SMOOTH",
"471 407 OFFCURVE",
"437 444 OFFCURVE",
"352 444 CURVE SMOOTH",
"213 444 OFFCURVE",
"51 322 OFFCURVE",
"51 162 CURVE SMOOTH",
"51 11 OFFCURVE",
"136 -13 OFFCURVE",
"236 -13 CURVE SMOOTH",
"352 -13 OFFCURVE",
"483 34 OFFCURVE",
"626 156 CURVE SMOOTH",
"720 236 LINE SMOOTH",
"739 252 OFFCURVE",
"752 273 OFFCURVE",
"742 292 CURVE SMOOTH"
);
},
{
closed = 1;
nodes = (
"374 383 OFFCURVE",
"391 372 OFFCURVE",
"391 344 CURVE SMOOTH",
"391 290 OFFCURVE",
"280 252 OFFCURVE",
"148 252 CURVE",
"188 328 OFFCURVE",
"274 383 OFFCURVE",
"334 383 CURVE SMOOTH"
);
}
);
width = 600;
}
);
note = eacute;
unicode = 00E9;
},
{
glyphname = ecircumflex;
lastChange = "2018-07-06 16:40:04 +0000";
layers = (
{
layerId = "FFFF8F4E-B79A-404B-9AF7-1E6E36D02A09";
paths = (
{
closed = 1;
nodes = (
"147 474 OFFCURVE",
"163 459 OFFCURVE",
"183 468 CURVE SMOOTH",
"334 537 LINE",
"485 468 LINE SMOOTH",
"505 459 OFFCURVE",
"521 474 OFFCURVE",
"525 487 CURVE SMOOTH",
"530 502 OFFCURVE",
"527 524 OFFCURVE",
"506 533 CURVE SMOOTH",
"334 608 LINE",
"162 533 LINE SMOOTH",
"141 524 OFFCURVE",
"138 502 OFFCURVE",
"143 487 CURVE SMOOTH"
);
},
{
closed = 1;
nodes = (
"733 309 OFFCURVE",
"712 310 OFFCURVE",
"694 295 CURVE SMOOTH",
"604 218 LINE SMOOTH",
"472 105 OFFCURVE",
"346 48 OFFCURVE",
"241 51 CURVE SMOOTH",
"159 53 OFFCURVE",
"125 81 OFFCURVE",
"125 166 CURVE SMOOTH",
"125 173 OFFCURVE",
"125 180 OFFCURVE",
"126 187 CURVE",
"317 187 OFFCURVE",
"471 258 OFFCURVE",
"471 346 CURVE SMOOTH",
"471 407 OFFCURVE",
"437 444 OFFCURVE",
"352 444 CURVE SMOOTH",
"213 444 OFFCURVE",
"51 322 OFFCURVE",
"51 162 CURVE SMOOTH",
"51 11 OFFCURVE",
"136 -13 OFFCURVE",
"236 -13 CURVE SMOOTH",
"352 -13 OFFCURVE",
"483 34 OFFCURVE",
"626 156 CURVE SMOOTH",
"720 236 LINE SMOOTH",
"739 252 OFFCURVE",
"752 273 OFFCURVE",
"742 292 CURVE SMOOTH"
);
},
{
closed = 1;
nodes = (
"374 383 OFFCURVE",
"391 372 OFFCURVE",
"391 344 CURVE SMOOTH",
"391 290 OFFCURVE",
"280 252 OFFCURVE",
"148 252 CURVE",
"188 328 OFFCURVE",
"274 383 OFFCURVE",
"334 383 CURVE SMOOTH"
);
}
);
width = 600;
}
);
note = ecircumflex;
unicode = 00EA;
},
{
glyphname = edieresis;
lastChange = "2018-07-06 16:40:04 +0000";
layers = (
{
layerId = "FFFF8F4E-B79A-404B-9AF7-1E6E36D02A09";
paths = (
{
closed = 1;
nodes = (
"270 486 OFFCURVE",
"296 512 OFFCURVE",
"296 542 CURVE SMOOTH",
"296 579 OFFCURVE",
"275 603 OFFCURVE",
"236 603 CURVE SMOOTH",
"201 603 OFFCURVE",
"176 578 OFFCURVE",
"176 540 CURVE SMOOTH",
"176 511 OFFCURVE",
"205 486 OFFCURVE",
"236 486 CURVE SMOOTH"
);
},
{
closed = 1;
nodes = (
"469 486 OFFCURVE",
"495 512 OFFCURVE",
"495 542 CURVE SMOOTH",
"495 579 OFFCURVE",
"474 603 OFFCURVE",
"435 603 CURVE SMOOTH",
"400 603 OFFCURVE",
"375 578 OFFCURVE",
"375 540 CURVE SMOOTH",
"375 511 OFFCURVE",
"404 486 OFFCURVE",
"435 486 CURVE SMOOTH"
);
},
{
closed = 1;
nodes = (
"733 309 OFFCURVE",
"712 310 OFFCURVE",
"694 295 CURVE SMOOTH",
"604 218 LINE SMOOTH",
"472 105 OFFCURVE",
"346 48 OFFCURVE",
"241 51 CURVE SMOOTH",
"159 53 OFFCURVE",
"125 81 OFFCURVE",
"125 166 CURVE SMOOTH",
"125 173 OFFCURVE",
"125 180 OFFCURVE",
"126 187 CURVE",
"317 187 OFFCURVE",
"471 258 OFFCURVE",
"471 346 CURVE SMOOTH",
"471 407 OFFCURVE",
"437 444 OFFCURVE",
"352 444 CURVE SMOOTH",
"213 444 OFFCURVE",
"51 322 OFFCURVE",
"51 162 CURVE SMOOTH",
"51 11 OFFCURVE",
"136 -13 OFFCURVE",
"236 -13 CURVE SMOOTH",
"352 -13 OFFCURVE",
"483 34 OFFCURVE",
"626 156 CURVE SMOOTH",
"720 236 LINE SMOOTH",
"739 252 OFFCURVE",
"752 273 OFFCURVE",
"742 292 CURVE SMOOTH"
);
},
{
closed = 1;
nodes = (
"374 383 OFFCURVE",
"391 372 OFFCURVE",
"391 344 CURVE SMOOTH",
"391 290 OFFCURVE",
"280 252 OFFCURVE",
"148 252 CURVE",
"188 328 OFFCURVE",
"274 383 OFFCURVE",
"334 383 CURVE SMOOTH"
);
}
);
width = 600;
}
);
note = edieresis;
unicode = 00EB;
},
{
glyphname = egrave;
lastChange = "2018-07-06 16:40:04 +0000";
layers = (
{
layerId = "FFFF8F4E-B79A-404B-9AF7-1E6E36D02A09";
paths = (
{
closed = 1;
nodes = (
"160 562 OFFCURVE",
"159 541 OFFCURVE",
"185 535 CURVE",
"426 498 LINE",
"454 491 OFFCURVE",
"464 506 OFFCURVE",
"466 520 CURVE SMOOTH",
"468 532 OFFCURVE",
"461 549 OFFCURVE",
"436 554 CURVE SMOOTH",
"202 601 LINE",
"179 607 OFFCURVE",
"165 587 OFFCURVE",
"163 577 CURVE SMOOTH"
);
},
{
closed = 1;
nodes = (
"733 309 OFFCURVE",
"712 310 OFFCURVE",
"694 295 CURVE SMOOTH",
"604 218 LINE SMOOTH",
"472 105 OFFCURVE",
"346 48 OFFCURVE",
"241 51 CURVE SMOOTH",
"159 53 OFFCURVE",
"125 81 OFFCURVE",
"125 166 CURVE SMOOTH",
"125 173 OFFCURVE",
"125 180 OFFCURVE",
"126 187 CURVE",
"317 187 OFFCURVE",
"471 258 OFFCURVE",
"471 346 CURVE SMOOTH",
"471 407 OFFCURVE",
"437 444 OFFCURVE",
"352 444 CURVE SMOOTH",
"213 444 OFFCURVE",
"51 322 OFFCURVE",
"51 162 CURVE SMOOTH",
"51 11 OFFCURVE",
"136 -13 OFFCURVE",
"236 -13 CURVE SMOOTH",
"352 -13 OFFCURVE",
"483 34 OFFCURVE",
"626 156 CURVE SMOOTH",
"720 236 LINE SMOOTH",
"739 252 OFFCURVE",
"752 273 OFFCURVE",
"742 292 CURVE SMOOTH"
);
},
{
closed = 1;
nodes = (
"374 383 OFFCURVE",
"391 372 OFFCURVE",
"391 344 CURVE SMOOTH",
"391 290 OFFCURVE",
"280 252 OFFCURVE",
"148 252 CURVE",
"188 328 OFFCURVE",
"274 383 OFFCURVE",
"334 383 CURVE SMOOTH"
);
}
);
width = 600;
}
);
note = egrave;
unicode = 00E8;
},
{
glyphname = f;
lastChange = "2018-07-06 16:40:04 +0000";
layers = (
{
layerId = "FFFF8F4E-B79A-404B-9AF7-1E6E36D02A09";
paths = (
{
closed = 1;
nodes = (
"733 309 OFFCURVE",
"712 310 OFFCURVE",
"694 295 CURVE SMOOTH",
"554 176 LINE SMOOTH",
"457 94 OFFCURVE",
"389 52 OFFCURVE",
"321 52 CURVE SMOOTH",
"289 52 OFFCURVE",
"265 61 OFFCURVE",
"253 79 CURVE",
"335 416 LINE",
"407 472 OFFCURVE",
"442 512 OFFCURVE",
"442 551 CURVE SMOOTH",
"442 577 OFFCURVE",
"425 603 OFFCURVE",
"388 603 CURVE SMOOTH",
"336 603 OFFCURVE",
"295 571 OFFCURVE",
"281 512 CURVE SMOOTH",
"263 438 LINE",
"13 226 LINE SMOOTH",
"1 216 OFFCURVE",
"-6 201 OFFCURVE",
"10 183 CURVE SMOOTH",
"27 164 OFFCURVE",
"45 173 OFFCURVE",
"58 183 CURVE",
"245 345 LINE",
"175 68 LINE SMOOTH",
"144 -56 OFFCURVE",
"114 -97 OFFCURVE",
"90 -113 CURVE SMOOTH",
"73 -124 OFFCURVE",
"66 -140 OFFCURVE",
"74 -155 CURVE SMOOTH",
"85 -175 OFFCURVE",
"104 -178 OFFCURVE",
"127 -165 CURVE SMOOTH",
"148 -153 OFFCURVE",
"196 -102 OFFCURVE",
"233 8 CURVE",
"254 -7 OFFCURVE",
"282 -13 OFFCURVE",
"307 -13 CURVE SMOOTH",
"387 -13 OFFCURVE",
"464 16 OFFCURVE",
"581 117 CURVE SMOOTH",
"720 236 LINE SMOOTH",
"740 254 OFFCURVE",
"752 273 OFFCURVE",
"742 292 CURVE SMOOTH"
);
}
);
width = 600;
}
);
note = f;
unicode = 0066;
},
{
glyphname = g;
lastChange = "2018-07-06 16:40:04 +0000";
layers = (
{
layerId = "FFFF8F4E-B79A-404B-9AF7-1E6E36D02A09";
paths = (
{
closed = 1;
nodes = (
"49 34 OFFCURVE",
"74 -12 OFFCURVE",
"138 -12 CURVE SMOOTH",
"197 -12 OFFCURVE",
"302 127 OFFCURVE",
"407 244 CURVE",
"371 89 LINE SMOOTH",
"353 11 OFFCURVE",
"338 -10 OFFCURVE",
"269 -69 CURVE SMOOTH",
"239 -95 OFFCURVE",
"213 -109 OFFCURVE",
"184 -110 CURVE SMOOTH",
"164 -111 OFFCURVE",
"149 -122 OFFCURVE",
"149 -139 CURVE SMOOTH",
"149 -161 OFFCURVE",
"165 -173 OFFCURVE",
"191 -173 CURVE SMOOTH",
"220 -173 OFFCURVE",
"252 -165 OFFCURVE",
"414 -26 CURVE SMOOTH",
"720 236 LINE SMOOTH",
"740 253 OFFCURVE",
"752 273 OFFCURVE",
"742 292 CURVE SMOOTH",
"733 309 OFFCURVE",
"712 310 OFFCURVE",
"694 295 CURVE SMOOTH",
"437 76 LINE",
"494 297 LINE SMOOTH",
"501 324 OFFCURVE",
"483 345 OFFCURVE",
"457 345 CURVE SMOOTH",
"434 345 OFFCURVE",
"413 333 OFFCURVE",
"402 322 CURVE SMOOTH",
"199 119 OFFCURVE",
"177 62 OFFCURVE",
"150 62 CURVE SMOOTH",
"129 62 OFFCURVE",
"121 74 OFFCURVE",
"121 98 CURVE SMOOTH",
"121 241 OFFCURVE",
"230 374 OFFCURVE",
"397 374 CURVE SMOOTH",
"442 374 OFFCURVE",
"472 363 OFFCURVE",
"498 352 CURVE SMOOTH",
"508 348 OFFCURVE",
"529 351 OFFCURVE",
"538 365 CURVE SMOOTH",
"548 380 OFFCURVE",
"549 398 OFFCURVE",
"538 407 CURVE",
"506 431 OFFCURVE",
"465 443 OFFCURVE",
"398 443 CURVE SMOOTH",
"173 443 OFFCURVE",
"49 270 OFFCURVE",
"49 100 CURVE SMOOTH"
);
}
);
width = 600;
}
);
note = g;
unicode = 0067;
},
{
glyphname = h;
lastChange = "2018-07-06 16:40:04 +0000";
layers = (
{
layerId = "FFFF8F4E-B79A-404B-9AF7-1E6E36D02A09";
paths = (
{
closed = 1;
nodes = (
"33 40 LINE SMOOTH",
"25 9 OFFCURVE",
"38 -13 OFFCURVE",
"68 -13 CURVE SMOOTH",
"94 -13 OFFCURVE",
"113 5 OFFCURVE",
"131 34 CURVE SMOOTH",
"303 316 OFFCURVE",
"366 374 OFFCURVE",
"408 374 CURVE SMOOTH",
"429 374 OFFCURVE",
"436 363 OFFCURVE",
"431 342 CURVE SMOOTH",
"357 58 LINE SMOOTH",
"345 12 OFFCURVE",
"355 -13 OFFCURVE",
"391 -13 CURVE SMOOTH",
"427 -13 OFFCURVE",
"443 -1 OFFCURVE",
"485 35 CURVE SMOOTH",
"720 236 LINE SMOOTH",
"740 254 OFFCURVE",
"752 273 OFFCURVE",
"742 292 CURVE SMOOTH",
"733 309 OFFCURVE",
"712 310 OFFCURVE",
"694 295 CURVE SMOOTH",
"437 76 LINE",
"505 337 LINE SMOOTH",
"522 402 OFFCURVE",
"495 446 OFFCURVE",
"434 446 CURVE SMOOTH",
"363 446 OFFCURVE",
"325 419 OFFCURVE",
"279 367 CURVE SMOOTH",
"241 325 OFFCURVE",
"196 259 OFFCURVE",
"137 160 CURVE",
"244 562 LINE SMOOTH",
"248 576 OFFCURVE",
"243 602 OFFCURVE",
"213 602 CURVE SMOOTH",
"194 602 OFFCURVE",
"173 591 OFFCURVE",
"168 570 CURVE SMOOTH"
);
}
);
width = 600;
}
);
note = h;
unicode = 0068;
},
{
glyphname = i;
lastChange = "2018-07-06 16:40:04 +0000";
layers = (
{
layerId = "FFFF8F4E-B79A-404B-9AF7-1E6E36D02A09";
paths = (
{
closed = 1;
nodes = (
"426 489 OFFCURVE",
"452 515 OFFCURVE",
"452 545 CURVE SMOOTH",
"452 582 OFFCURVE",
"431 606 OFFCURVE",
"392 606 CURVE SMOOTH",
"357 606 OFFCURVE",
"332 581 OFFCURVE",
"332 543 CURVE SMOOTH",
"332 514 OFFCURVE",
"361 489 OFFCURVE",
"392 489 CURVE SMOOTH"
);
},
{
closed = 1;
nodes = (
"74 278 LINE",
"36 243 OFFCURVE",
"76 199 OFFCURVE",
"112 229 CURVE SMOOTH",
"258 354 LINE SMOOTH",
"274 368 OFFCURVE",
"282 374 OFFCURVE",
"292 374 CURVE SMOOTH",
"309 374 OFFCURVE",
"316 360 OFFCURVE",
"310 336 CURVE SMOOTH",
"256 110 LINE SMOOTH",
"238 35 OFFCURVE",
"287 -13 OFFCURVE",
"359 -13 CURVE SMOOTH",
"399 -13 OFFCURVE",
"446 2 OFFCURVE",
"485 35 CURVE SMOOTH",
"720 236 LINE SMOOTH",
"740 254 OFFCURVE",
"752 273 OFFCURVE",
"742 292 CURVE SMOOTH",
"733 309 OFFCURVE",
"712 310 OFFCURVE",
"694 295 CURVE SMOOTH",
"607 221 OFFCURVE",
"522 148 OFFCURVE",
"436 74 CURVE SMOOTH",
"415 56 OFFCURVE",
"388 48 OFFCURVE",
"371 48 CURVE SMOOTH",
"337 48 OFFCURVE",
"311 70 OFFCURVE",
"325 127 CURVE SMOOTH",
"378 346 LINE SMOOTH",
"391 399 OFFCURVE",
"353 444 OFFCURVE",
"299 444 CURVE SMOOTH",
"278 444 OFFCURVE",
"258 435 OFFCURVE",
"239 419 CURVE SMOOTH"
);
}
);
width = 600;
}
);
note = i;
unicode = 0069;
},
{
glyphname = idotless;
lastChange = "2018-07-06 16:40:04 +0000";
layers = (
{
layerId = "FFFF8F4E-B79A-404B-9AF7-1E6E36D02A09";
paths = (
{
closed = 1;
nodes = (
"74 278 LINE",
"36 243 OFFCURVE",
"76 199 OFFCURVE",
"112 229 CURVE SMOOTH",
"258 354 LINE SMOOTH",
"274 368 OFFCURVE",
"282 374 OFFCURVE",
"292 374 CURVE SMOOTH",
"309 374 OFFCURVE",
"316 360 OFFCURVE",
"310 336 CURVE SMOOTH",
"256 110 LINE SMOOTH",
"238 35 OFFCURVE",
"287 -13 OFFCURVE",
"359 -13 CURVE SMOOTH",
"399 -13 OFFCURVE",
"446 2 OFFCURVE",
"485 35 CURVE SMOOTH",
"720 236 LINE SMOOTH",
"740 254 OFFCURVE",
"752 273 OFFCURVE",
"742 292 CURVE SMOOTH",
"733 309 OFFCURVE",
"712 310 OFFCURVE",
"694 295 CURVE SMOOTH",
"607 221 OFFCURVE",
"522 148 OFFCURVE",
"436 74 CURVE SMOOTH",
"415 56 OFFCURVE",
"388 48 OFFCURVE",
"371 48 CURVE SMOOTH",
"337 48 OFFCURVE",
"311 70 OFFCURVE",
"325 127 CURVE SMOOTH",
"378 346 LINE SMOOTH",
"391 399 OFFCURVE",
"353 444 OFFCURVE",
"299 444 CURVE SMOOTH",
"278 444 OFFCURVE",
"258 435 OFFCURVE",
"239 419 CURVE SMOOTH"
);
}
);
width = 600;
}
);
note = dotlessi;
unicode = 0131;
},
{
glyphname = iacute;
lastChange = "2018-07-06 16:40:04 +0000";
layers = (
{
layerId = "FFFF8F4E-B79A-404B-9AF7-1E6E36D02A09";
paths = (
{
closed = 1;
nodes = (
"499 588 OFFCURVE",
"485 608 OFFCURVE",
"462 602 CURVE",
"228 555 LINE SMOOTH",
"203 550 OFFCURVE",
"196 533 OFFCURVE",
"198 521 CURVE SMOOTH",
"200 507 OFFCURVE",
"210 492 OFFCURVE",
"238 499 CURVE",
"479 536 LINE",
"505 542 OFFCURVE",
"504 563 OFFCURVE",
"501 578 CURVE SMOOTH"
);
},
{
closed = 1;
nodes = (
"74 278 LINE",
"36 243 OFFCURVE",
"76 199 OFFCURVE",
"112 229 CURVE SMOOTH",
"258 354 LINE SMOOTH",
"274 368 OFFCURVE",
"282 374 OFFCURVE",
"292 374 CURVE SMOOTH",
"309 374 OFFCURVE",
"316 360 OFFCURVE",
"310 336 CURVE SMOOTH",
"256 110 LINE SMOOTH",
"238 35 OFFCURVE",
"287 -13 OFFCURVE",
"359 -13 CURVE SMOOTH",
"399 -13 OFFCURVE",
"446 2 OFFCURVE",
"485 35 CURVE SMOOTH",
"720 236 LINE SMOOTH",
"740 254 OFFCURVE",
"752 273 OFFCURVE",
"742 292 CURVE SMOOTH",
"733 309 OFFCURVE",
"712 310 OFFCURVE",
"694 295 CURVE SMOOTH",
"607 221 OFFCURVE",
"522 148 OFFCURVE",
"436 74 CURVE SMOOTH",
"415 56 OFFCURVE",
"388 48 OFFCURVE",
"371 48 CURVE SMOOTH",
"337 48 OFFCURVE",
"311 70 OFFCURVE",
"325 127 CURVE SMOOTH",
"378 346 LINE SMOOTH",
"391 399 OFFCURVE",
"353 444 OFFCURVE",
"299 444 CURVE SMOOTH",
"278 444 OFFCURVE",
"258 435 OFFCURVE",
"239 419 CURVE SMOOTH"
);
}
);
width = 600;
}
);
note = iacute;
unicode = 00ED;
},
{
glyphname = icircumflex;
lastChange = "2018-07-06 16:40:04 +0000";
layers = (
{
layerId = "FFFF8F4E-B79A-404B-9AF7-1E6E36D02A09";
paths = (
{
closed = 1;
nodes = (
"138 488 OFFCURVE",
"154 473 OFFCURVE",
"174 482 CURVE SMOOTH",
"325 551 LINE",
"476 482 LINE SMOOTH",
"496 473 OFFCURVE",
"512 488 OFFCURVE",
"516 501 CURVE SMOOTH",
"521 516 OFFCURVE",
"518 538 OFFCURVE",
"497 547 CURVE SMOOTH",
"325 622 LINE",
"153 547 LINE SMOOTH",
"132 538 OFFCURVE",
"129 516 OFFCURVE",
"134 501 CURVE SMOOTH"
);
},
{
closed = 1;
nodes = (
"74 278 LINE",
"36 243 OFFCURVE",
"76 199 OFFCURVE",
"112 229 CURVE SMOOTH",
"258 354 LINE SMOOTH",
"274 368 OFFCURVE",
"282 374 OFFCURVE",
"292 374 CURVE SMOOTH",
"309 374 OFFCURVE",
"316 360 OFFCURVE",
"310 336 CURVE SMOOTH",
"256 110 LINE SMOOTH",
"238 35 OFFCURVE",
"287 -13 OFFCURVE",
"359 -13 CURVE SMOOTH",
"399 -13 OFFCURVE",
"446 2 OFFCURVE",
"485 35 CURVE SMOOTH",
"720 236 LINE SMOOTH",
"740 254 OFFCURVE",
"752 273 OFFCURVE",
"742 292 CURVE SMOOTH",
"733 309 OFFCURVE",
"712 310 OFFCURVE",
"694 295 CURVE SMOOTH",
"607 221 OFFCURVE",
"522 148 OFFCURVE",
"436 74 CURVE SMOOTH",
"415 56 OFFCURVE",
"388 48 OFFCURVE",
"371 48 CURVE SMOOTH",
"337 48 OFFCURVE",
"311 70 OFFCURVE",
"325 127 CURVE SMOOTH",
"378 346 LINE SMOOTH",
"391 399 OFFCURVE",
"353 444 OFFCURVE",
"299 444 CURVE SMOOTH",
"278 444 OFFCURVE",
"258 435 OFFCURVE",
"239 419 CURVE SMOOTH"
);
}
);
width = 600;
}
);
note = icircumflex;
unicode = 00EE;
},
{
glyphname = idieresis;
lastChange = "2018-07-06 16:40:04 +0000";
layers = (
{
layerId = "FFFF8F4E-B79A-404B-9AF7-1E6E36D02A09";
paths = (
{
closed = 1;
nodes = (
"261 500 OFFCURVE",
"287 526 OFFCURVE",
"287 556 CURVE SMOOTH",
"287 593 OFFCURVE",
"266 617 OFFCURVE",
"227 617 CURVE SMOOTH",
"192 617 OFFCURVE",
"167 592 OFFCURVE",
"167 554 CURVE SMOOTH",
"167 525 OFFCURVE",
"196 500 OFFCURVE",
"227 500 CURVE SMOOTH"
);
},
{
closed = 1;
nodes = (
"460 500 OFFCURVE",
"486 526 OFFCURVE",
"486 556 CURVE SMOOTH",
"486 593 OFFCURVE",
"465 617 OFFCURVE",
"426 617 CURVE SMOOTH",
"391 617 OFFCURVE",
"366 592 OFFCURVE",
"366 554 CURVE SMOOTH",
"366 525 OFFCURVE",
"395 500 OFFCURVE",
"426 500 CURVE SMOOTH"
);
},
{
closed = 1;
nodes = (
"74 278 LINE",
"36 243 OFFCURVE",
"76 199 OFFCURVE",
"112 229 CURVE SMOOTH",
"258 354 LINE SMOOTH",
"274 368 OFFCURVE",
"282 374 OFFCURVE",
"292 374 CURVE SMOOTH",
"309 374 OFFCURVE",
"316 360 OFFCURVE",
"310 336 CURVE SMOOTH",
"256 110 LINE SMOOTH",
"238 35 OFFCURVE",
"287 -13 OFFCURVE",
"359 -13 CURVE SMOOTH",
"399 -13 OFFCURVE",
"446 2 OFFCURVE",
"485 35 CURVE SMOOTH",
"720 236 LINE SMOOTH",
"740 254 OFFCURVE",
"752 273 OFFCURVE",
"742 292 CURVE SMOOTH",
"733 309 OFFCURVE",
"712 310 OFFCURVE",
"694 295 CURVE SMOOTH",
"607 221 OFFCURVE",
"522 148 OFFCURVE",
"436 74 CURVE SMOOTH",
"415 56 OFFCURVE",
"388 48 OFFCURVE",
"371 48 CURVE SMOOTH",
"337 48 OFFCURVE",
"311 70 OFFCURVE",
"325 127 CURVE SMOOTH",
"378 346 LINE SMOOTH",
"391 399 OFFCURVE",
"353 444 OFFCURVE",
"299 444 CURVE SMOOTH",
"278 444 OFFCURVE",
"258 435 OFFCURVE",
"239 419 CURVE SMOOTH"
);
}
);
width = 600;
}
);
note = idieresis;
unicode = 00EF;
},
{
glyphname = igrave;
lastChange = "2018-07-06 16:40:04 +0000";
layers = (
{
layerId = "FFFF8F4E-B79A-404B-9AF7-1E6E36D02A09";
paths = (
{
closed = 1;
nodes = (
"151 576 OFFCURVE",
"150 555 OFFCURVE",
"176 549 CURVE",
"417 512 LINE",
"445 505 OFFCURVE",
"455 520 OFFCURVE",
"457 534 CURVE SMOOTH",
"459 546 OFFCURVE",
"452 563 OFFCURVE",
"427 568 CURVE SMOOTH",
"193 615 LINE",
"170 621 OFFCURVE",
"156 601 OFFCURVE",
"154 591 CURVE SMOOTH"
);
},
{
closed = 1;
nodes = (
"74 278 LINE",
"36 243 OFFCURVE",
"76 199 OFFCURVE",
"112 229 CURVE SMOOTH",
"258 354 LINE SMOOTH",
"274 368 OFFCURVE",
"282 374 OFFCURVE",
"292 374 CURVE SMOOTH",
"309 374 OFFCURVE",
"316 360 OFFCURVE",
"310 336 CURVE SMOOTH",
"256 110 LINE SMOOTH",
"238 35 OFFCURVE",
"287 -13 OFFCURVE",
"359 -13 CURVE SMOOTH",
"399 -13 OFFCURVE",
"446 2 OFFCURVE",
"485 35 CURVE SMOOTH",
"720 236 LINE SMOOTH",
"740 254 OFFCURVE",
"752 273 OFFCURVE",
"742 292 CURVE SMOOTH",
"733 309 OFFCURVE",
"712 310 OFFCURVE",
"694 295 CURVE SMOOTH",
"607 221 OFFCURVE",
"522 148 OFFCURVE",
"436 74 CURVE SMOOTH",
"415 56 OFFCURVE",
"388 48 OFFCURVE",
"371 48 CURVE SMOOTH",
"337 48 OFFCURVE",
"311 70 OFFCURVE",
"325 127 CURVE SMOOTH",
"378 346 LINE SMOOTH",
"391 399 OFFCURVE",
"353 444 OFFCURVE",
"299 444 CURVE SMOOTH",
"278 444 OFFCURVE",
"258 435 OFFCURVE",
"239 419 CURVE SMOOTH"
);
}
);
width = 600;
}
);
note = igrave;
unicode = 00EC;
},
{
glyphname = j;
lastChange = "2018-07-06 16:40:04 +0000";
layers = (
{
layerId = "FFFF8F4E-B79A-404B-9AF7-1E6E36D02A09";
paths = (
{
closed = 1;
nodes = (
"426 489 OFFCURVE",
"452 515 OFFCURVE",
"452 545 CURVE SMOOTH",
"452 582 OFFCURVE",
"431 606 OFFCURVE",
"392 606 CURVE SMOOTH",
"357 606 OFFCURVE",
"332 581 OFFCURVE",
"332 543 CURVE SMOOTH",
"332 514 OFFCURVE",
"361 489 OFFCURVE",
"392 489 CURVE SMOOTH"
);
},
{
closed = 1;
nodes = (
"29 -161 OFFCURVE",
"45 -173 OFFCURVE",
"71 -173 CURVE SMOOTH",
"183 -173 OFFCURVE",
"269 -64 OFFCURVE",
"300 4 CURVE",
"320 -13 OFFCURVE",
"343 -13 OFFCURVE",
"359 -13 CURVE SMOOTH",
"403 -13 OFFCURVE",
"452 7 OFFCURVE",
"497 45 CURVE SMOOTH",
"734 246 LINE",
"733 245 OFFCURVE",
"746 256 OFFCURVE",
"746 272 CURVE SMOOTH",
"746 279 OFFCURVE",
"745 287 OFFCURVE",
"737 295 CURVE SMOOTH",
"717 315 OFFCURVE",
"717 297 OFFCURVE",
"691 291 CURVE",
"552 173 OFFCURVE",
"483 111 OFFCURVE",
"440 79 CURVE SMOOTH",
"408 55 OFFCURVE",
"391 48 OFFCURVE",
"371 48 CURVE SMOOTH",
"337 48 OFFCURVE",
"311 70 OFFCURVE",
"325 127 CURVE SMOOTH",
"378 346 LINE SMOOTH",
"391 399 OFFCURVE",
"353 444 OFFCURVE",
"299 444 CURVE SMOOTH",
"278 444 OFFCURVE",
"258 435 OFFCURVE",
"239 419 CURVE SMOOTH",
"74 278 LINE",
"36 243 OFFCURVE",
"76 199 OFFCURVE",
"112 229 CURVE SMOOTH",
"258 354 LINE SMOOTH",
"274 368 OFFCURVE",
"282 374 OFFCURVE",
"292 374 CURVE SMOOTH",
"309 374 OFFCURVE",
"316 360 OFFCURVE",
"310 336 CURVE SMOOTH",
"251 89 LINE SMOOTH",
"224 -24 OFFCURVE",
"142 -107 OFFCURVE",
"64 -110 CURVE SMOOTH",
"44 -111 OFFCURVE",
"29 -122 OFFCURVE",
"29 -139 CURVE SMOOTH"
);
}
);
width = 600;
}
);
note = j;
unicode = 006A;
},
{
glyphname = jdotless;
lastChange = "2018-07-06 16:40:04 +0000";
layers = (
{
layerId = "FFFF8F4E-B79A-404B-9AF7-1E6E36D02A09";
paths = (
{
closed = 1;
nodes = (
"29 -161 OFFCURVE",
"45 -173 OFFCURVE",
"71 -173 CURVE SMOOTH",
"183 -173 OFFCURVE",
"269 -64 OFFCURVE",
"300 4 CURVE",
"320 -13 OFFCURVE",
"343 -13 OFFCURVE",
"359 -13 CURVE SMOOTH",
"403 -13 OFFCURVE",
"452 7 OFFCURVE",
"497 45 CURVE SMOOTH",
"734 246 LINE",
"733 245 OFFCURVE",
"746 256 OFFCURVE",
"746 272 CURVE SMOOTH",
"746 279 OFFCURVE",
"745 287 OFFCURVE",
"737 295 CURVE SMOOTH",
"717 315 OFFCURVE",
"717 297 OFFCURVE",
"691 291 CURVE",
"552 173 OFFCURVE",
"483 111 OFFCURVE",
"440 79 CURVE SMOOTH",
"408 55 OFFCURVE",
"391 48 OFFCURVE",
"371 48 CURVE SMOOTH",
"337 48 OFFCURVE",
"311 70 OFFCURVE",
"325 127 CURVE SMOOTH",
"378 346 LINE SMOOTH",
"391 399 OFFCURVE",
"353 444 OFFCURVE",
"299 444 CURVE SMOOTH",
"278 444 OFFCURVE",
"258 435 OFFCURVE",
"239 419 CURVE SMOOTH",
"74 278 LINE",
"36 243 OFFCURVE",
"76 199 OFFCURVE",
"112 229 CURVE SMOOTH",
"258 354 LINE SMOOTH",
"274 368 OFFCURVE",
"282 374 OFFCURVE",
"292 374 CURVE SMOOTH",
"309 374 OFFCURVE",
"316 360 OFFCURVE",
"310 336 CURVE SMOOTH",
"251 89 LINE SMOOTH",
"224 -24 OFFCURVE",
"142 -107 OFFCURVE",
"64 -110 CURVE SMOOTH",
"44 -111 OFFCURVE",
"29 -122 OFFCURVE",
"29 -139 CURVE SMOOTH"
);
}
);
width = 600;
}
);
note = uni0237;
unicode = 0237;
},
{
glyphname = k;
lastChange = "2018-07-06 16:40:04 +0000";
layers = (
{
layerId = "FFFF8F4E-B79A-404B-9AF7-1E6E36D02A09";
paths = (
{
closed = 1;
nodes = (
"33 40 LINE SMOOTH",
"25 9 OFFCURVE",
"38 -13 OFFCURVE",
"68 -13 CURVE SMOOTH",
"94 -13 OFFCURVE",
"114 5 OFFCURVE",
"131 34 CURVE SMOOTH",
"166 92 OFFCURVE",
"196 141 OFFCURVE",
"222 181 CURVE",
"298 69 LINE SMOOTH",
"333 15 OFFCURVE",
"362 -13 OFFCURVE",
"391 -13 CURVE SMOOTH",
"427 -13 OFFCURVE",
"443 -1 OFFCURVE",
"485 35 CURVE SMOOTH",
"720 236 LINE SMOOTH",
"740 254 OFFCURVE",
"752 273 OFFCURVE",
"742 292 CURVE SMOOTH",
"733 309 OFFCURVE",
"712 310 OFFCURVE",
"694 295 CURVE SMOOTH",
"625 236 OFFCURVE",
"552 174 OFFCURVE",
"484 115 CURVE",
"472 107 OFFCURVE",
"421 56 OFFCURVE",
"397 56 CURVE SMOOTH",
"383 56 OFFCURVE",
"336 134 OFFCURVE",
"306 184 CURVE",
"435 201 OFFCURVE",
"512 274 OFFCURVE",
"512 362 CURVE SMOOTH",
"512 413 OFFCURVE",
"476 443 OFFCURVE",
"425 443 CURVE SMOOTH",
"353 443 OFFCURVE",
"287 412 OFFCURVE",
"137 160 CURVE",
"242 564 LINE SMOOTH",
"247 582 OFFCURVE",
"243 603 OFFCURVE",
"215 603 CURVE SMOOTH",
"192 603 OFFCURVE",
"173 590 OFFCURVE",
"168 570 CURVE SMOOTH"
);
},
{
closed = 1;
nodes = (
"263 242 LINE",
"338 347 OFFCURVE",
"378 374 OFFCURVE",
"406 374 CURVE SMOOTH",
"427 374 OFFCURVE",
"436 359 OFFCURVE",
"436 344 CURVE SMOOTH",
"436 279 OFFCURVE",
"342 242 OFFCURVE",
"265 242 CURVE SMOOTH"
);
}
);
width = 600;
}
);
note = k;
unicode = 006B;
},
{
glyphname = l;
lastChange = "2018-07-06 16:40:04 +0000";
layers = (
{
layerId = "FFFF8F4E-B79A-404B-9AF7-1E6E36D02A09";
paths = (
{
closed = 1;
nodes = (
"733 309 OFFCURVE",
"712 310 OFFCURVE",
"694 295 CURVE SMOOTH",
"507 136 LINE SMOOTH",
"443 81 OFFCURVE",
"367 55 OFFCURVE",
"321 55 CURVE SMOOTH",
"270 55 OFFCURVE",
"255 83 OFFCURVE",
"267 133 CURVE SMOOTH",
"336 416 LINE",
"408 472 OFFCURVE",
"442 512 OFFCURVE",
"442 551 CURVE SMOOTH",
"442 577 OFFCURVE",
"425 603 OFFCURVE",
"388 603 CURVE SMOOTH",
"336 603 OFFCURVE",
"295 571 OFFCURVE",
"281 512 CURVE SMOOTH",
"263 438 LINE",
"13 226 LINE SMOOTH",
"1 216 OFFCURVE",
"-6 201 OFFCURVE",
"10 183 CURVE SMOOTH",
"27 164 OFFCURVE",
"45 173 OFFCURVE",
"58 183 CURVE",
"242 343 LINE",
"242 341 LINE",
"193 137 LINE SMOOTH",
"172 49 OFFCURVE",
"207 -13 OFFCURVE",
"313 -13 CURVE SMOOTH",
"363 -13 OFFCURVE",
"457 11 OFFCURVE",
"549 90 CURVE SMOOTH",
"720 236 LINE SMOOTH",
"740 253 OFFCURVE",
"752 273 OFFCURVE",
"742 292 CURVE SMOOTH"
);
}
);
width = 600;
}
);
note = l;
unicode = 006C;
},
{
glyphname = lslash;
lastChange = "2018-07-06 16:40:04 +0000";
layers = (
{
layerId = "FFFF8F4E-B79A-404B-9AF7-1E6E36D02A09";
paths = (
{
closed = 1;
nodes = (
"370 284 LINE",
"467 331 LINE SMOOTH",
"491 342 OFFCURVE",
"509 356 OFFCURVE",
"505 378 CURVE SMOOTH",
"502 396 OFFCURVE",
"481 405 OFFCURVE",
"460 395 CURVE SMOOTH",
"391 362 LINE",
"436 531 LINE SMOOTH",
"443 557 OFFCURVE",
"459 604 OFFCURVE",
"420 605 CURVE SMOOTH",
"419 605 LINE SMOOTH",
"393 605 OFFCURVE",
"383 594 OFFCURVE",
"342 557 CURVE SMOOTH",
"216 443 LINE",
"201 428 OFFCURVE",
"175 404 OFFCURVE",
"189 381 CURVE SMOOTH",
"197 368 OFFCURVE",
"211 344 OFFCURVE",
"245 374 CURVE SMOOTH",
"347 466 LINE",
"309 322 LINE",
"205 272 LINE SMOOTH",
"192 266 OFFCURVE",
"181 244 OFFCURVE",
"189 231 CURVE SMOOTH",
"201 212 OFFCURVE",
"222 213 OFFCURVE",
"239 221 CURVE SMOOTH",
"288 245 LINE",
"270 177 LINE SMOOTH",
"251 105 OFFCURVE",
"251 57 OFFCURVE",
"294 15 CURVE SMOOTH",
"344 -33 OFFCURVE",
"420 -12 OFFCURVE",
"456 24 CURVE SMOOTH",
"471 39 OFFCURVE",
"471 60 OFFCURVE",
"460 73 CURVE SMOOTH",
"454 80 OFFCURVE",
"430 87 OFFCURVE",
"415 72 CURVE SMOOTH",
"388 45 OFFCURVE",
"364 45 OFFCURVE",
"344 62 CURVE SMOOTH",
"330 74 OFFCURVE",
"318 89 OFFCURVE",
"334 148 CURVE SMOOTH"
);
}
);
width = 600;
}
);
note = lslash;
unicode = 0142;
},
{
glyphname = m;
lastChange = "2018-07-06 16:40:04 +0000";
layers = (
{
layerId = "FFFF8F4E-B79A-404B-9AF7-1E6E36D02A09";
paths = (
{
closed = 1;
nodes = (
"16 42 LINE SMOOTH",
"8 11 OFFCURVE",
"16 -13 OFFCURVE",
"44 -13 CURVE SMOOTH",
"72 -13 OFFCURVE",
"80 19 OFFCURVE",
"86 41 CURVE SMOOTH",
"147 274 LINE",
"173 340 OFFCURVE",
"263 391 OFFCURVE",
"278 376 CURVE SMOOTH",
"286 368 OFFCURVE",
"268 299 OFFCURVE",
"260 270 CURVE SMOOTH",
"200 42 LINE SMOOTH",
"192 11 OFFCURVE",
"200 -13 OFFCURVE",
"228 -13 CURVE SMOOTH",
"255 -13 OFFCURVE",
"264 19 OFFCURVE",
"270 41 CURVE SMOOTH",
"330 265 LINE SMOOTH",
"349 336 OFFCURVE",
"447 393 OFFCURVE",
"462 376 CURVE SMOOTH",
"469 368 OFFCURVE",
"451 300 OFFCURVE",
"443 271 CURVE SMOOTH",
"383 42 LINE SMOOTH",
"375 11 OFFCURVE",
"383 -13 OFFCURVE",
"411 -13 CURVE SMOOTH",
"429 -13 OFFCURVE",
"434 -8 OFFCURVE",
"444 0 CURVE SMOOTH",
"720 236 LINE SMOOTH",
"740 253 OFFCURVE",
"752 273 OFFCURVE",
"742 292 CURVE SMOOTH",
"733 309 OFFCURVE",
"712 310 OFFCURVE",
"694 295 CURVE SMOOTH",
"470 105 LINE",
"514 265 LINE SMOOTH",
"531 328 OFFCURVE",
"545 387 OFFCURVE",
"510 426 CURVE SMOOTH",
"480 459 OFFCURVE",
"407 438 OFFCURVE",
"346 388 CURVE",
"331 461 OFFCURVE",
"254 453 OFFCURVE",
"181 402 CURVE",
"189 433 OFFCURVE",
"183 443 OFFCURVE",
"156 443 CURVE SMOOTH",
"132 443 OFFCURVE",
"118 428 OFFCURVE",
"112 407 CURVE SMOOTH"
);
}
);
width = 600;
}
);
note = m;
unicode = 006D;
},
{
glyphname = n;
lastChange = "2018-07-06 16:40:04 +0000";
layers = (
{
layerId = "FFFF8F4E-B79A-404B-9AF7-1E6E36D02A09";
paths = (
{
closed = 1;
nodes = (
"33 40 LINE SMOOTH",
"25 9 OFFCURVE",
"38 -13 OFFCURVE",
"68 -13 CURVE SMOOTH",
"94 -13 OFFCURVE",
"113 5 OFFCURVE",
"131 34 CURVE SMOOTH",
"303 316 OFFCURVE",
"366 374 OFFCURVE",
"408 374 CURVE SMOOTH",
"429 374 OFFCURVE",
"436 363 OFFCURVE",
"431 342 CURVE SMOOTH",
"357 58 LINE SMOOTH",
"345 12 OFFCURVE",
"355 -13 OFFCURVE",
"391 -13 CURVE SMOOTH",
"427 -13 OFFCURVE",
"443 -1 OFFCURVE",
"485 35 CURVE SMOOTH",
"720 236 LINE SMOOTH",
"740 254 OFFCURVE",
"752 273 OFFCURVE",
"742 292 CURVE SMOOTH",
"733 309 OFFCURVE",
"712 310 OFFCURVE",
"694 295 CURVE SMOOTH",
"437 76 LINE",
"505 337 LINE SMOOTH",
"522 402 OFFCURVE",
"495 446 OFFCURVE",
"434 446 CURVE SMOOTH",
"350 446 OFFCURVE",
"291 420 OFFCURVE",
"137 160 CURVE",
"204 413 OFFCURVE",
"204 410 OFFCURVE",
"204 418 CURVE SMOOTH",
"204 433 OFFCURVE",
"194 443 OFFCURVE",
"173 443 CURVE SMOOTH",
"149 443 OFFCURVE",
"133 432 OFFCURVE",
"128 411 CURVE SMOOTH"
);
}
);
width = 600;
}
);
note = n;
unicode = 006E;
},
{
glyphname = o;
lastChange = "2018-07-06 16:40:04 +0000";
layers = (
{
layerId = "FFFF8F4E-B79A-404B-9AF7-1E6E36D02A09";
paths = (
{
closed = 1;
nodes = (
"63 29 OFFCURVE",
"133 -12 OFFCURVE",
"216 -12 CURVE SMOOTH",
"260 -12 OFFCURVE",
"308 3 OFFCURVE",
"356 35 CURVE",
"377 28 OFFCURVE",
"392 25 OFFCURVE",
"412 25 CURVE SMOOTH",
"478 25 OFFCURVE",
"492 41 OFFCURVE",
"727 242 CURVE",
"744 259 OFFCURVE",
"751 275 OFFCURVE",
"742 292 CURVE SMOOTH",
"733 309 OFFCURVE",
"712 311 OFFCURVE",
"694 295 CURVE SMOOTH",
"465 100 OFFCURVE",
"460 90 OFFCURVE",
"422 90 CURVE",
"473 143 OFFCURVE",
"504 204 OFFCURVE",
"504 266 CURVE SMOOTH",
"504 399 OFFCURVE",
"439 444 OFFCURVE",
"351 444 CURVE SMOOTH",
"191 444 OFFCURVE",
"63 315 OFFCURVE",
"63 162 CURVE SMOOTH"
);
},
{
closed = 1;
nodes = (
"129 291 OFFCURVE",
"237 380 OFFCURVE",
"369 378 CURVE",
"284 357 OFFCURVE",
"237 271 OFFCURVE",
"237 204 CURVE SMOOTH",
"237 148 OFFCURVE",
"257 101 OFFCURVE",
"292 69 CURVE",
"267 59 OFFCURVE",
"247 47 OFFCURVE",
"217 47 CURVE SMOOTH",
"158 49 OFFCURVE",
"129 90 OFFCURVE",
"129 170 CURVE SMOOTH"
);
},
{
closed = 1;
nodes = (
"302 261 OFFCURVE",
"353 328 OFFCURVE",
"423 330 CURVE",
"435 316 OFFCURVE",
"437 295 OFFCURVE",
"437 266 CURVE SMOOTH",
"437 203 OFFCURVE",
"398 145 OFFCURVE",
"352 106 CURVE",
"321 127 OFFCURVE",
"302 164 OFFCURVE",
"302 206 CURVE SMOOTH"
);
}
);
width = 600;
}
);
note = o;
unicode = 006F;
},
{
glyphname = oacute;
lastChange = "2018-07-06 16:40:04 +0000";
layers = (
{
layerId = "FFFF8F4E-B79A-404B-9AF7-1E6E36D02A09";
paths = (
{
closed = 1;
nodes = (
"524 602 OFFCURVE",
"510 622 OFFCURVE",
"487 616 CURVE",
"253 569 LINE SMOOTH",
"228 564 OFFCURVE",
"221 547 OFFCURVE",
"223 535 CURVE SMOOTH",
"225 521 OFFCURVE",
"235 506 OFFCURVE",
"263 513 CURVE",
"504 550 LINE",
"530 556 OFFCURVE",
"529 577 OFFCURVE",
"526 592 CURVE SMOOTH"
);
},
{
closed = 1;
nodes = (
"63 29 OFFCURVE",
"133 -12 OFFCURVE",
"216 -12 CURVE SMOOTH",
"260 -12 OFFCURVE",
"308 3 OFFCURVE",
"356 35 CURVE",
"377 28 OFFCURVE",
"392 25 OFFCURVE",
"412 25 CURVE SMOOTH",
"478 25 OFFCURVE",
"492 41 OFFCURVE",
"727 242 CURVE",
"744 259 OFFCURVE",
"751 275 OFFCURVE",
"742 292 CURVE SMOOTH",
"733 309 OFFCURVE",
"712 311 OFFCURVE",
"694 295 CURVE SMOOTH",
"465 100 OFFCURVE",
"460 90 OFFCURVE",
"422 90 CURVE",
"473 143 OFFCURVE",
"504 204 OFFCURVE",
"504 266 CURVE SMOOTH",
"504 399 OFFCURVE",
"439 444 OFFCURVE",
"351 444 CURVE SMOOTH",
"191 444 OFFCURVE",
"63 315 OFFCURVE",
"63 162 CURVE SMOOTH"
);
},
{
closed = 1;
nodes = (
"129 291 OFFCURVE",
"237 380 OFFCURVE",
"369 378 CURVE",
"284 357 OFFCURVE",
"237 271 OFFCURVE",
"237 204 CURVE SMOOTH",
"237 148 OFFCURVE",
"257 101 OFFCURVE",
"292 69 CURVE",
"267 59 OFFCURVE",
"247 47 OFFCURVE",
"217 47 CURVE SMOOTH",
"158 49 OFFCURVE",
"129 90 OFFCURVE",
"129 170 CURVE SMOOTH"
);
},
{
closed = 1;
nodes = (
"302 261 OFFCURVE",
"353 328 OFFCURVE",
"423 330 CURVE",
"435 316 OFFCURVE",
"437 295 OFFCURVE",
"437 266 CURVE SMOOTH",
"437 203 OFFCURVE",
"398 145 OFFCURVE",
"352 106 CURVE",
"321 127 OFFCURVE",
"302 164 OFFCURVE",
"302 206 CURVE SMOOTH"
);
}
);
width = 600;
}
);
note = oacute;
unicode = 00F3;
},
{
glyphname = ocircumflex;
lastChange = "2018-07-06 16:40:04 +0000";
layers = (
{
layerId = "FFFF8F4E-B79A-404B-9AF7-1E6E36D02A09";
paths = (
{
closed = 1;
nodes = (
"164 488 OFFCURVE",
"180 473 OFFCURVE",
"200 482 CURVE SMOOTH",
"351 551 LINE",
"502 482 LINE SMOOTH",
"522 473 OFFCURVE",
"538 488 OFFCURVE",
"542 501 CURVE SMOOTH",
"547 516 OFFCURVE",
"544 538 OFFCURVE",
"523 547 CURVE SMOOTH",
"351 622 LINE",
"179 547 LINE SMOOTH",
"158 538 OFFCURVE",
"155 516 OFFCURVE",
"160 501 CURVE SMOOTH"
);
},
{
closed = 1;
nodes = (
"63 29 OFFCURVE",
"133 -12 OFFCURVE",
"216 -12 CURVE SMOOTH",
"260 -12 OFFCURVE",
"308 3 OFFCURVE",
"356 35 CURVE",
"377 28 OFFCURVE",
"392 25 OFFCURVE",
"412 25 CURVE SMOOTH",
"478 25 OFFCURVE",
"492 41 OFFCURVE",
"727 242 CURVE",
"744 259 OFFCURVE",
"751 275 OFFCURVE",
"742 292 CURVE SMOOTH",
"733 309 OFFCURVE",
"712 311 OFFCURVE",
"694 295 CURVE SMOOTH",
"465 100 OFFCURVE",
"460 90 OFFCURVE",
"422 90 CURVE",
"473 143 OFFCURVE",
"504 204 OFFCURVE",
"504 266 CURVE SMOOTH",
"504 399 OFFCURVE",
"439 444 OFFCURVE",
"351 444 CURVE SMOOTH",
"191 444 OFFCURVE",
"63 315 OFFCURVE",
"63 162 CURVE SMOOTH"
);
},
{
closed = 1;
nodes = (
"129 291 OFFCURVE",
"237 380 OFFCURVE",
"369 378 CURVE",
"284 357 OFFCURVE",
"237 271 OFFCURVE",
"237 204 CURVE SMOOTH",
"237 148 OFFCURVE",
"257 101 OFFCURVE",
"292 69 CURVE",
"267 59 OFFCURVE",
"247 47 OFFCURVE",
"217 47 CURVE SMOOTH",
"158 49 OFFCURVE",
"129 90 OFFCURVE",
"129 170 CURVE SMOOTH"
);
},
{
closed = 1;
nodes = (
"302 261 OFFCURVE",
"353 328 OFFCURVE",
"423 330 CURVE",
"435 316 OFFCURVE",
"437 295 OFFCURVE",
"437 266 CURVE SMOOTH",
"437 203 OFFCURVE",
"398 145 OFFCURVE",
"352 106 CURVE",
"321 127 OFFCURVE",
"302 164 OFFCURVE",
"302 206 CURVE SMOOTH"
);
}
);
width = 600;
}
);
note = ocircumflex;
unicode = 00F4;
},
{
glyphname = odieresis;
lastChange = "2018-07-06 16:40:04 +0000";
layers = (
{
layerId = "FFFF8F4E-B79A-404B-9AF7-1E6E36D02A09";
paths = (
{
closed = 1;
nodes = (
"297 486 OFFCURVE",
"323 512 OFFCURVE",
"323 542 CURVE SMOOTH",
"323 579 OFFCURVE",
"302 603 OFFCURVE",
"263 603 CURVE SMOOTH",
"228 603 OFFCURVE",
"203 578 OFFCURVE",
"203 540 CURVE SMOOTH",
"203 511 OFFCURVE",
"232 486 OFFCURVE",
"263 486 CURVE SMOOTH"
);
},
{
closed = 1;
nodes = (
"496 486 OFFCURVE",
"522 512 OFFCURVE",
"522 542 CURVE SMOOTH",
"522 579 OFFCURVE",
"501 603 OFFCURVE",
"462 603 CURVE SMOOTH",
"427 603 OFFCURVE",
"402 578 OFFCURVE",
"402 540 CURVE SMOOTH",
"402 511 OFFCURVE",
"431 486 OFFCURVE",
"462 486 CURVE SMOOTH"
);
},
{
closed = 1;
nodes = (
"63 29 OFFCURVE",
"133 -12 OFFCURVE",
"216 -12 CURVE SMOOTH",
"260 -12 OFFCURVE",
"308 3 OFFCURVE",
"356 35 CURVE",
"377 28 OFFCURVE",
"392 25 OFFCURVE",
"412 25 CURVE SMOOTH",
"478 25 OFFCURVE",
"492 41 OFFCURVE",
"727 242 CURVE",
"744 259 OFFCURVE",
"751 275 OFFCURVE",
"742 292 CURVE SMOOTH",
"733 309 OFFCURVE",
"712 311 OFFCURVE",
"694 295 CURVE SMOOTH",
"465 100 OFFCURVE",
"460 90 OFFCURVE",
"422 90 CURVE",
"473 143 OFFCURVE",
"504 204 OFFCURVE",
"504 266 CURVE SMOOTH",
"504 399 OFFCURVE",
"439 444 OFFCURVE",
"351 444 CURVE SMOOTH",
"191 444 OFFCURVE",
"63 315 OFFCURVE",
"63 162 CURVE SMOOTH"
);
},
{
closed = 1;
nodes = (
"129 291 OFFCURVE",
"237 380 OFFCURVE",
"369 378 CURVE",
"284 357 OFFCURVE",
"237 271 OFFCURVE",
"237 204 CURVE SMOOTH",
"237 148 OFFCURVE",
"257 101 OFFCURVE",
"292 69 CURVE",
"267 59 OFFCURVE",
"247 47 OFFCURVE",
"217 47 CURVE SMOOTH",
"158 49 OFFCURVE",
"129 90 OFFCURVE",
"129 170 CURVE SMOOTH"
);
},
{
closed = 1;
nodes = (
"302 261 OFFCURVE",
"353 328 OFFCURVE",
"423 330 CURVE",
"435 316 OFFCURVE",
"437 295 OFFCURVE",
"437 266 CURVE SMOOTH",
"437 203 OFFCURVE",
"398 145 OFFCURVE",
"352 106 CURVE",
"321 127 OFFCURVE",
"302 164 OFFCURVE",
"302 206 CURVE SMOOTH"
);
}
);
width = 600;
}
);
note = odieresis;
unicode = 00F6;
},
{
glyphname = ograve;
lastChange = "2018-07-06 16:40:04 +0000";
layers = (
{
layerId = "FFFF8F4E-B79A-404B-9AF7-1E6E36D02A09";
paths = (
{
closed = 1;
nodes = (
"177 576 OFFCURVE",
"176 555 OFFCURVE",
"202 549 CURVE",
"443 512 LINE",
"471 505 OFFCURVE",
"481 520 OFFCURVE",
"483 534 CURVE SMOOTH",
"485 546 OFFCURVE",
"478 563 OFFCURVE",
"453 568 CURVE SMOOTH",
"219 615 LINE",
"196 621 OFFCURVE",
"182 601 OFFCURVE",
"180 591 CURVE SMOOTH"
);
},
{
closed = 1;
nodes = (
"63 29 OFFCURVE",
"133 -12 OFFCURVE",
"216 -12 CURVE SMOOTH",
"260 -12 OFFCURVE",
"308 3 OFFCURVE",
"356 35 CURVE",
"377 28 OFFCURVE",
"392 25 OFFCURVE",
"412 25 CURVE SMOOTH",
"478 25 OFFCURVE",
"492 41 OFFCURVE",
"727 242 CURVE",
"744 259 OFFCURVE",
"751 275 OFFCURVE",
"742 292 CURVE SMOOTH",
"733 309 OFFCURVE",
"712 311 OFFCURVE",
"694 295 CURVE SMOOTH",
"465 100 OFFCURVE",
"460 90 OFFCURVE",
"422 90 CURVE",
"473 143 OFFCURVE",
"504 204 OFFCURVE",
"504 266 CURVE SMOOTH",
"504 399 OFFCURVE",
"439 444 OFFCURVE",
"351 444 CURVE SMOOTH",
"191 444 OFFCURVE",
"63 315 OFFCURVE",
"63 162 CURVE SMOOTH"
);
},
{
closed = 1;
nodes = (
"129 291 OFFCURVE",
"237 380 OFFCURVE",
"369 378 CURVE",
"284 357 OFFCURVE",
"237 271 OFFCURVE",
"237 204 CURVE SMOOTH",
"237 148 OFFCURVE",
"257 101 OFFCURVE",
"292 69 CURVE",
"267 59 OFFCURVE",
"247 47 OFFCURVE",
"217 47 CURVE SMOOTH",
"158 49 OFFCURVE",
"129 90 OFFCURVE",
"129 170 CURVE SMOOTH"
);
},
{
closed = 1;
nodes = (
"302 261 OFFCURVE",
"353 328 OFFCURVE",
"423 330 CURVE",
"435 316 OFFCURVE",
"437 295 OFFCURVE",
"437 266 CURVE SMOOTH",
"437 203 OFFCURVE",
"398 145 OFFCURVE",
"352 106 CURVE",
"321 127 OFFCURVE",
"302 164 OFFCURVE",
"302 206 CURVE SMOOTH"
);
}
);
width = 600;
}
);
note = ograve;
unicode = 00F2;
},
{
glyphname = oslash;
lastChange = "2018-07-06 16:40:04 +0000";
layers = (
{
layerId = "FFFF8F4E-B79A-404B-9AF7-1E6E36D02A09";
paths = (
{
closed = 1;
nodes = (
"733 309 OFFCURVE",
"712 311 OFFCURVE",
"694 295 CURVE SMOOTH",
"465 100 OFFCURVE",
"460 90 OFFCURVE",
"422 90 CURVE",
"473 143 OFFCURVE",
"504 204 OFFCURVE",
"504 266 CURVE SMOOTH",
"504 300 OFFCURVE",
"500 327 OFFCURVE",
"492 350 CURVE",
"527 380 LINE SMOOTH",
"544 394 OFFCURVE",
"557 419 OFFCURVE",
"536 435 CURVE SMOOTH",
"516 450 OFFCURVE",
"489 445 OFFCURVE",
"467 425 CURVE",
"452 413 LINE",
"426 435 OFFCURVE",
"391 444 OFFCURVE",
"351 444 CURVE SMOOTH",
"191 444 OFFCURVE",
"63 315 OFFCURVE",
"63 162 CURVE SMOOTH",
"63 134 OFFCURVE",
"66 111 OFFCURVE",
"72 91 CURVE",
"21 48 LINE SMOOTH",
"4 33 OFFCURVE",
"2 13 OFFCURVE",
"17 -2 CURVE SMOOTH",
"32 -17 OFFCURVE",
"62 -16 OFFCURVE",
"81 1 CURVE SMOOTH",
"109 25 LINE",
"137 -2 OFFCURVE",
"175 -12 OFFCURVE",
"216 -12 CURVE SMOOTH",
"260 -12 OFFCURVE",
"308 3 OFFCURVE",
"356 35 CURVE",
"377 28 OFFCURVE",
"392 25 OFFCURVE",
"412 25 CURVE SMOOTH",
"478 25 OFFCURVE",
"492 41 OFFCURVE",
"727 242 CURVE",
"744 259 OFFCURVE",
"751 275 OFFCURVE",
"742 292 CURVE SMOOTH"
);
},
{
closed = 1;
nodes = (
"129 291 OFFCURVE",
"237 380 OFFCURVE",
"369 378 CURVE SMOOTH",
"381 378 OFFCURVE",
"391 375 OFFCURVE",
"400 368 CURVE",
"130 141 LINE",
"129 150 OFFCURVE",
"129 160 OFFCURVE",
"129 170 CURVE SMOOTH"
);
},
{
closed = 1;
nodes = (
"311 75 OFFCURVE",
"257 47 OFFCURVE",
"217 47 CURVE",
"193 48 OFFCURVE",
"174 55 OFFCURVE",
"160 68 CURVE",
"434 301 LINE",
"436 290 OFFCURVE",
"437 279 OFFCURVE",
"437 266 CURVE SMOOTH",
"437 203 OFFCURVE",
"398 145 OFFCURVE",
"352 106 CURVE"
);
}
);
width = 600;
}
);
note = oslash;
unicode = 00F8;
},
{
glyphname = otilde;
lastChange = "2018-07-06 16:40:04 +0000";
layers = (
{
layerId = "FFFF8F4E-B79A-404B-9AF7-1E6E36D02A09";
paths = (
{
closed = 1;
nodes = (
"390 497 OFFCURVE",
"367 509 OFFCURVE",
"353 522 CURVE SMOOTH",
"328 545 OFFCURVE",
"317 559 OFFCURVE",
"293 559 CURVE SMOOTH",
"280 559 OFFCURVE",
"255 538 OFFCURVE",
"226 506 CURVE SMOOTH",
"216 495 OFFCURVE",
"193 493 OFFCURVE",
"181 506 CURVE",
"172 515 OFFCURVE",
"171 533 OFFCURVE",
"181 544 CURVE SMOOTH",
"225 592 OFFCURVE",
"260 617 OFFCURVE",
"294 617 CURVE SMOOTH",
"317 617 OFFCURVE",
"340 607 OFFCURVE",
"358 591 CURVE SMOOTH",
"381 570 OFFCURVE",
"397 555 OFFCURVE",
"415 555 CURVE SMOOTH",
"438 555 OFFCURVE",
"453 572 OFFCURVE",
"481 606 CURVE SMOOTH",
"490 617 OFFCURVE",
"513 620 OFFCURVE",
"524 612 CURVE",
"538 601 OFFCURVE",
"537 580 OFFCURVE",
"528 569 CURVE SMOOTH",
"488 520 OFFCURVE",
"452 496 OFFCURVE",
"415 496 CURVE"
);
},
{
closed = 1;
nodes = (
"63 29 OFFCURVE",
"133 -12 OFFCURVE",
"216 -12 CURVE SMOOTH",
"260 -12 OFFCURVE",
"308 3 OFFCURVE",
"356 35 CURVE",
"377 28 OFFCURVE",
"392 25 OFFCURVE",
"412 25 CURVE SMOOTH",
"478 25 OFFCURVE",
"492 41 OFFCURVE",
"727 242 CURVE",
"744 259 OFFCURVE",
"751 275 OFFCURVE",
"742 292 CURVE SMOOTH",
"733 309 OFFCURVE",
"712 311 OFFCURVE",
"694 295 CURVE SMOOTH",
"465 100 OFFCURVE",
"460 90 OFFCURVE",
"422 90 CURVE",
"473 143 OFFCURVE",
"504 204 OFFCURVE",
"504 266 CURVE SMOOTH",
"504 399 OFFCURVE",
"439 444 OFFCURVE",
"351 444 CURVE SMOOTH",
"191 444 OFFCURVE",
"63 315 OFFCURVE",
"63 162 CURVE SMOOTH"
);
},
{
closed = 1;
nodes = (
"129 291 OFFCURVE",
"237 380 OFFCURVE",
"369 378 CURVE",
"284 357 OFFCURVE",
"237 271 OFFCURVE",
"237 204 CURVE SMOOTH",
"237 148 OFFCURVE",
"257 101 OFFCURVE",
"292 69 CURVE",
"267 59 OFFCURVE",
"247 47 OFFCURVE",
"217 47 CURVE SMOOTH",
"158 49 OFFCURVE",
"129 90 OFFCURVE",
"129 170 CURVE SMOOTH"
);
},
{
closed = 1;
nodes = (
"302 261 OFFCURVE",
"353 328 OFFCURVE",
"423 330 CURVE",
"435 316 OFFCURVE",
"437 295 OFFCURVE",
"437 266 CURVE SMOOTH",
"437 203 OFFCURVE",
"398 145 OFFCURVE",
"352 106 CURVE",
"321 127 OFFCURVE",
"302 164 OFFCURVE",
"302 206 CURVE SMOOTH"
);
}
);
width = 600;
}
);
note = otilde;
unicode = 00F5;
},
{
glyphname = oe;
lastChange = "2018-07-06 16:40:04 +0000";
layers = (
{
layerId = "FFFF8F4E-B79A-404B-9AF7-1E6E36D02A09";
paths = (
{
closed = 1;
nodes = (
"733 309 OFFCURVE",
"712 310 OFFCURVE",
"694 295 CURVE SMOOTH",
"604 218 LINE SMOOTH",
"472 105 OFFCURVE",
"415 50 OFFCURVE",
"348 50 CURVE SMOOTH",
"299 50 OFFCURVE",
"289 87 OFFCURVE",
"319 193 CURVE",
"480 193 OFFCURVE",
"568 253 OFFCURVE",
"590 338 CURVE SMOOTH",
"602 385 OFFCURVE",
"590 443 OFFCURVE",
"487 443 CURVE SMOOTH",
"418 443 OFFCURVE",
"366 411 OFFCURVE",
"327 360 CURVE",
"312 412 OFFCURVE",
"276 444 OFFCURVE",
"226 444 CURVE SMOOTH",
"123 444 OFFCURVE",
"43 366 OFFCURVE",
"0 213 CURVE SMOOTH",
"-36 84 OFFCURVE",
"13 -12 OFFCURVE",
"96 -12 CURVE SMOOTH",
"158 -12 OFFCURVE",
"204 10 OFFCURVE",
"240 47 CURVE",
"260 5 OFFCURVE",
"303 -14 OFFCURVE",
"343 -14 CURVE SMOOTH",
"426 -14 OFFCURVE",
"492 34 OFFCURVE",
"626 156 CURVE SMOOTH",
"720 236 LINE SMOOTH",
"739 252 OFFCURVE",
"752 273 OFFCURVE",
"742 292 CURVE SMOOTH"
);
},
{
closed = 1;
nodes = (
"509 382 OFFCURVE",
"530 378 OFFCURVE",
"520 338 CURVE SMOOTH",
"507 285 OFFCURVE",
"429 259 OFFCURVE",
"332 261 CURVE",
"372 337 OFFCURVE",
"409 382 OFFCURVE",
"469 382 CURVE SMOOTH"
);
},
{
closed = 1;
nodes = (
"189 260 OFFCURVE",
"151 281 OFFCURVE",
"156 357 CURVE",
"175 370 OFFCURVE",
"198 375 OFFCURVE",
"226 374 CURVE SMOOTH",
"271 372 OFFCURVE",
"273 316 OFFCURVE",
"263 260 CURVE"
);
},
{
closed = 1;
nodes = (
"38 47 OFFCURVE",
"43 137 OFFCURVE",
"70 214 CURVE SMOOTH",
"79 241 OFFCURVE",
"89 263 OFFCURVE",
"98 283 CURVE",
"125 212 OFFCURVE",
"193 195 OFFCURVE",
"247 193 CURVE",
"221 107 OFFCURVE",
"188 47 OFFCURVE",
"97 47 CURVE SMOOTH"
);
}
);
width = 600;
}
);
note = oe;
unicode = 0153;
},
{
glyphname = p;
lastChange = "2018-07-06 16:40:04 +0000";
layers = (
{
layerId = "FFFF8F4E-B79A-404B-9AF7-1E6E36D02A09";
paths = (
{
closed = 1;
nodes = (
"733 309 OFFCURVE",
"712 310 OFFCURVE",
"694 295 CURVE SMOOTH",
"557 178 LINE",
"561 209 OFFCURVE",
"562 242 OFFCURVE",
"561 277 CURVE SMOOTH",
"559 343 OFFCURVE",
"536 442 OFFCURVE",
"449 442 CURVE SMOOTH",
"384 442 OFFCURVE",
"269 307 OFFCURVE",
"153 192 CURVE",
"200 372 LINE SMOOTH",
"213 422 OFFCURVE",
"215 443 OFFCURVE",
"178 443 CURVE SMOOTH",
"156 443 OFFCURVE",
"139 430 OFFCURVE",
"124 374 CURVE SMOOTH",
"35 33 LINE",
"7 -75 LINE SMOOTH",
"-4 -120 OFFCURVE",
"-6 -144 OFFCURVE",
"31 -144 CURVE SMOOTH",
"53 -144 OFFCURVE",
"70 -128 OFFCURVE",
"79 -91 CURVE SMOOTH",
"107 14 LINE",
"236 197 OFFCURVE",
"421 368 OFFCURVE",
"454 368 CURVE SMOOTH",
"489 368 OFFCURVE",
"488 303 OFFCURVE",
"489 279 CURVE SMOOTH",
"495 136 OFFCURVE",
"478 38 OFFCURVE",
"266 65 CURVE SMOOTH",
"216 71 OFFCURVE",
"214 1 OFFCURVE",
"266 -5 CURVE SMOOTH",
"371 -17 OFFCURVE",
"440 -1 OFFCURVE",
"485 35 CURVE",
"487 37 LINE",
"489 38 OFFCURVE",
"490 40 OFFCURVE",
"492 41 CURVE",
"720 236 LINE SMOOTH",
"740 254 OFFCURVE",
"752 273 OFFCURVE",
"742 292 CURVE SMOOTH"
);
}
);
width = 600;
}
);
note = p;
unicode = 0070;
},
{
glyphname = thorn;
lastChange = "2018-07-06 16:40:04 +0000";
layers = (
{
layerId = "FFFF8F4E-B79A-404B-9AF7-1E6E36D02A09";
paths = (
{
closed = 1;
nodes = (
"733 309 OFFCURVE",
"712 310 OFFCURVE",
"694 295 CURVE SMOOTH",
"557 178 LINE",
"561 209 OFFCURVE",
"562 242 OFFCURVE",
"561 277 CURVE SMOOTH",
"559 343 OFFCURVE",
"536 442 OFFCURVE",
"449 442 CURVE SMOOTH",
"384 442 OFFCURVE",
"269 307 OFFCURVE",
"153 192 CURVE",
"251 568 LINE SMOOTH",
"254 580 OFFCURVE",
"245 603 OFFCURVE",
"218 603 CURVE SMOOTH",
"196 603 OFFCURVE",
"178 582 OFFCURVE",
"174 567 CURVE SMOOTH",
"7 -75 LINE SMOOTH",
"-4 -120 OFFCURVE",
"-6 -144 OFFCURVE",
"31 -144 CURVE SMOOTH",
"53 -144 OFFCURVE",
"70 -128 OFFCURVE",
"79 -91 CURVE SMOOTH",
"107 14 LINE",
"236 197 OFFCURVE",
"421 368 OFFCURVE",
"454 368 CURVE SMOOTH",
"489 368 OFFCURVE",
"488 303 OFFCURVE",
"489 279 CURVE SMOOTH",
"495 136 OFFCURVE",
"478 38 OFFCURVE",
"266 65 CURVE SMOOTH",
"216 71 OFFCURVE",
"214 1 OFFCURVE",
"266 -5 CURVE SMOOTH",
"371 -17 OFFCURVE",
"440 -1 OFFCURVE",
"485 35 CURVE",
"487 37 LINE",
"489 38 OFFCURVE",
"490 40 OFFCURVE",
"492 41 CURVE",
"720 236 LINE SMOOTH",
"740 254 OFFCURVE",
"752 273 OFFCURVE",
"742 292 CURVE SMOOTH"
);
}
);
width = 600;
}
);
note = thorn;
unicode = 00FE;
},
{
glyphname = q;
lastChange = "2018-07-06 16:40:04 +0000";
layers = (
{
layerId = "FFFF8F4E-B79A-404B-9AF7-1E6E36D02A09";
paths = (
{
closed = 1;
nodes = (
"49 34 OFFCURVE",
"74 -12 OFFCURVE",
"138 -12 CURVE SMOOTH",
"197 -12 OFFCURVE",
"302 122 OFFCURVE",
"408 245 CURVE",
"307 -119 LINE SMOOTH",
"296 -160 OFFCURVE",
"317 -173 OFFCURVE",
"333 -173 CURVE SMOOTH",
"355 -173 OFFCURVE",
"374 -160 OFFCURVE",
"385 -116 CURVE SMOOTH",
"405 -37 OFFCURVE",
"412 -28 OFFCURVE",
"485 35 CURVE SMOOTH",
"720 236 LINE SMOOTH",
"740 254 OFFCURVE",
"752 273 OFFCURVE",
"742 292 CURVE SMOOTH",
"733 309 OFFCURVE",
"712 310 OFFCURVE",
"694 295 CURVE SMOOTH",
"438 78 LINE",
"494 297 LINE SMOOTH",
"501 324 OFFCURVE",
"483 345 OFFCURVE",
"457 345 CURVE SMOOTH",
"434 345 OFFCURVE",
"413 333 OFFCURVE",
"402 322 CURVE SMOOTH",
"207 114 OFFCURVE",
"177 62 OFFCURVE",
"150 62 CURVE SMOOTH",
"129 62 OFFCURVE",
"121 74 OFFCURVE",
"121 98 CURVE SMOOTH",
"121 241 OFFCURVE",
"230 374 OFFCURVE",
"397 374 CURVE SMOOTH",
"442 374 OFFCURVE",
"472 363 OFFCURVE",
"498 352 CURVE SMOOTH",
"508 348 OFFCURVE",
"529 351 OFFCURVE",
"538 365 CURVE SMOOTH",
"548 380 OFFCURVE",
"549 398 OFFCURVE",
"538 407 CURVE",
"506 431 OFFCURVE",
"465 443 OFFCURVE",
"398 443 CURVE SMOOTH",
"173 443 OFFCURVE",
"49 270 OFFCURVE",
"49 100 CURVE SMOOTH"
);
}
);
width = 600;
}
);
note = q;
unicode = 0071;
},
{
glyphname = r;
lastChange = "2018-07-06 16:40:04 +0000";
layers = (
{
layerId = "FFFF8F4E-B79A-404B-9AF7-1E6E36D02A09";
paths = (
{
closed = 1;
nodes = (
"14 158 OFFCURVE",
"38 167 OFFCURVE",
"54 181 CURVE SMOOTH",
"280 377 LINE",
"335 353 LINE SMOOTH",
"352 346 OFFCURVE",
"364 330 OFFCURVE",
"349 303 CURVE SMOOTH",
"266 152 LINE SMOOTH",
"214 57 OFFCURVE",
"256 -13 OFFCURVE",
"344 -13 CURVE SMOOTH",
"404 -13 OFFCURVE",
"459 12 OFFCURVE",
"505 52 CURVE SMOOTH",
"720 236 LINE SMOOTH",
"740 253 OFFCURVE",
"752 273 OFFCURVE",
"742 292 CURVE SMOOTH",
"733 309 OFFCURVE",
"712 310 OFFCURVE",
"694 295 CURVE SMOOTH",
"456 92 LINE",
"424 67 OFFCURVE",
"389 48 OFFCURVE",
"358 48 CURVE SMOOTH",
"312 48 OFFCURVE",
"300 82 OFFCURVE",
"325 128 CURVE SMOOTH",
"428 319 LINE SMOOTH",
"454 367 OFFCURVE",
"403 400 OFFCURVE",
"353 420 CURVE SMOOTH",
"298 442 LINE",
"278 541 LINE SMOOTH",
"271 575 OFFCURVE",
"201 569 OFFCURVE",
"212 522 CURVE SMOOTH",
"236 419 LINE",
"30 242 LINE SMOOTH",
"11 226 OFFCURVE",
"-5 203 OFFCURVE",
"3 184 CURVE SMOOTH"
);
}
);
width = 600;
}
);
note = r;
unicode = 0072;
},
{
glyphname = s;
lastChange = "2018-07-06 16:40:04 +0000";
layers = (
{
layerId = "FFFF8F4E-B79A-404B-9AF7-1E6E36D02A09";
paths = (
{
closed = 1;
nodes = (
"733 309 OFFCURVE",
"712 310 OFFCURVE",
"694 295 CURVE SMOOTH",
"554 176 LINE SMOOTH",
"514 142 OFFCURVE",
"471 127 OFFCURVE",
"433 127 CURVE SMOOTH",
"399 127 OFFCURVE",
"371 139 OFFCURVE",
"350 155 CURVE",
"326 416 LINE",
"358 508 LINE SMOOTH",
"375 557 OFFCURVE",
"303 561 OFFCURVE",
"289 518 CURVE SMOOTH",
"263 438 LINE",
"1 216 LINE SMOOTH",
"-18 200 OFFCURVE",
"-34 177 OFFCURVE",
"-26 158 CURVE SMOOTH",
"-15 132 OFFCURVE",
"9 141 OFFCURVE",
"25 155 CURVE SMOOTH",
"261 362 LINE",
"277 176 LINE",
"228 169 OFFCURVE",
"176 129 OFFCURVE",
"157 81 CURVE SMOOTH",
"136 29 OFFCURVE",
"162 -14 OFFCURVE",
"214 -14 CURVE SMOOTH",
"266 -14 OFFCURVE",
"326 28 OFFCURVE",
"346 78 CURVE",
"346 77 LINE",
"365 66 OFFCURVE",
"385 59 OFFCURVE",
"423 59 CURVE SMOOTH",
"473 59 OFFCURVE",
"532 76 OFFCURVE",
"581 117 CURVE SMOOTH",
"720 236 LINE SMOOTH",
"740 253 OFFCURVE",
"752 273 OFFCURVE",
"742 292 CURVE SMOOTH"
);
}
);
width = 600;
}
);
note = s;
unicode = 0073;
},
{
glyphname = scaron;
lastChange = "2018-07-06 16:40:04 +0000";
layers = (
{
layerId = "FFFF8F4E-B79A-404B-9AF7-1E6E36D02A09";
paths = (
{
closed = 1;
nodes = (
"523 731 OFFCURVE",
"507 746 OFFCURVE",
"487 737 CURVE SMOOTH",
"336 668 LINE",
"185 737 LINE SMOOTH",
"165 746 OFFCURVE",
"149 731 OFFCURVE",
"145 718 CURVE SMOOTH",
"140 703 OFFCURVE",
"143 681 OFFCURVE",
"164 672 CURVE SMOOTH",
"336 597 LINE",
"508 672 LINE SMOOTH",
"529 681 OFFCURVE",
"532 703 OFFCURVE",
"527 718 CURVE SMOOTH"
);
},
{
closed = 1;
nodes = (
"733 309 OFFCURVE",
"712 310 OFFCURVE",
"694 295 CURVE SMOOTH",
"554 176 LINE SMOOTH",
"514 142 OFFCURVE",
"471 127 OFFCURVE",
"433 127 CURVE SMOOTH",
"399 127 OFFCURVE",
"371 139 OFFCURVE",
"350 155 CURVE",
"326 416 LINE",
"358 508 LINE SMOOTH",
"375 557 OFFCURVE",
"303 561 OFFCURVE",
"289 518 CURVE SMOOTH",
"263 438 LINE",
"1 216 LINE SMOOTH",
"-18 200 OFFCURVE",
"-34 177 OFFCURVE",
"-26 158 CURVE SMOOTH",
"-15 132 OFFCURVE",
"9 141 OFFCURVE",
"25 155 CURVE SMOOTH",
"261 362 LINE",
"277 176 LINE",
"228 169 OFFCURVE",
"176 129 OFFCURVE",
"157 81 CURVE SMOOTH",
"136 29 OFFCURVE",
"162 -14 OFFCURVE",
"214 -14 CURVE SMOOTH",
"266 -14 OFFCURVE",
"326 28 OFFCURVE",
"346 78 CURVE",
"346 77 LINE",
"365 66 OFFCURVE",
"385 59 OFFCURVE",
"423 59 CURVE SMOOTH",
"473 59 OFFCURVE",
"532 76 OFFCURVE",
"581 117 CURVE SMOOTH",
"720 236 LINE SMOOTH",
"740 253 OFFCURVE",
"752 273 OFFCURVE",
"742 292 CURVE SMOOTH"
);
}
);
width = 600;
}
);
note = scaron;
unicode = 0161;
},
{
glyphname = germandbls;
lastChange = "2018-07-06 16:40:04 +0000";
layers = (
{
layerId = "FFFF8F4E-B79A-404B-9AF7-1E6E36D02A09";
paths = (
{
closed = 1;
nodes = (
"523 344 OFFCURVE",
"574 406 OFFCURVE",
"574 476 CURVE SMOOTH",
"574 554 OFFCURVE",
"533 604 OFFCURVE",
"442 604 CURVE SMOOTH",
"316 604 OFFCURVE",
"175 505 OFFCURVE",
"101 212 CURVE SMOOTH",
"56 45 LINE SMOOTH",
"49 18 OFFCURVE",
"56 -13 OFFCURVE",
"85 -13 CURVE SMOOTH",
"118 -13 OFFCURVE",
"125 12 OFFCURVE",
"134 49 CURVE SMOOTH",
"179 228 LINE SMOOTH",
"231 429 OFFCURVE",
"347 534 OFFCURVE",
"442 534 CURVE SMOOTH",
"488 534 OFFCURVE",
"504 515 OFFCURVE",
"504 476 CURVE SMOOTH",
"504 435 OFFCURVE",
"469 394 OFFCURVE",
"388 358 CURVE SMOOTH",
"369 349 OFFCURVE",
"328 333 OFFCURVE",
"328 311 CURVE SMOOTH",
"328 287 OFFCURVE",
"357 279 OFFCURVE",
"378 269 CURVE SMOOTH",
"441 239 OFFCURVE",
"471 212 OFFCURVE",
"471 162 CURVE SMOOTH",
"471 104 OFFCURVE",
"425 54 OFFCURVE",
"348 54 CURVE SMOOTH",
"280 54 OFFCURVE",
"254 114 OFFCURVE",
"218 62 CURVE SMOOTH",
"189 20 OFFCURVE",
"280 -16 OFFCURVE",
"347 -16 CURVE SMOOTH",
"469 -16 OFFCURVE",
"541 75 OFFCURVE",
"541 162 CURVE SMOOTH",
"541 226 OFFCURVE",
"499 278 OFFCURVE",
"440 309 CURVE"
);
}
);
width = 600;
}
);
note = germandbls;
unicode = 00DF;
},
{
glyphname = t;
lastChange = "2018-07-06 16:40:04 +0000";
layers = (
{
layerId = "FFFF8F4E-B79A-404B-9AF7-1E6E36D02A09";
paths = (
{
closed = 1;
nodes = (
"733 309 OFFCURVE",
"712 310 OFFCURVE",
"694 295 CURVE SMOOTH",
"444 82 LINE SMOOTH",
"413 57 OFFCURVE",
"391 48 OFFCURVE",
"371 48 CURVE SMOOTH",
"337 48 OFFCURVE",
"311 70 OFFCURVE",
"325 127 CURVE SMOOTH",
"385 374 LINE",
"564 374 LINE SMOOTH",
"603 374 OFFCURVE",
"620 443 OFFCURVE",
"564 443 CURVE SMOOTH",
"401 443 LINE",
"412 487 OFFCURVE",
"422 533 OFFCURVE",
"427 551 CURVE SMOOTH",
"435 584 OFFCURVE",
"433 603 OFFCURVE",
"405 603 CURVE SMOOTH",
"387 603 OFFCURVE",
"371 590 OFFCURVE",
"364 558 CURVE SMOOTH",
"336 443 LINE",
"299 443 LINE SMOOTH",
"278 443 OFFCURVE",
"258 435 OFFCURVE",
"239 419 CURVE SMOOTH",
"74 278 LINE",
"36 243 OFFCURVE",
"75 199 OFFCURVE",
"112 229 CURVE SMOOTH",
"258 354 LINE SMOOTH",
"274 368 OFFCURVE",
"282 374 OFFCURVE",
"292 374 CURVE SMOOTH",
"319 374 LINE",
"256 110 LINE SMOOTH",
"238 35 OFFCURVE",
"287 -13 OFFCURVE",
"359 -13 CURVE SMOOTH",
"403 -13 OFFCURVE",
"452 7 OFFCURVE",
"497 45 CURVE SMOOTH",
"720 236 LINE SMOOTH",
"740 253 OFFCURVE",
"752 273 OFFCURVE",
"742 292 CURVE SMOOTH"
);
}
);
width = 600;
}
);
note = t;
unicode = 0074;
},
{
glyphname = u;
lastChange = "2018-07-06 16:40:04 +0000";
layers = (
{
layerId = "FFFF8F4E-B79A-404B-9AF7-1E6E36D02A09";
paths = (
{
closed = 1;
nodes = (
"32 24 OFFCURVE",
"92 -13 OFFCURVE",
"143 -13 CURVE SMOOTH",
"232 -13 OFFCURVE",
"304 79 OFFCURVE",
"408 254 CURVE",
"357 58 LINE SMOOTH",
"345 12 OFFCURVE",
"355 -13 OFFCURVE",
"391 -13 CURVE SMOOTH",
"427 -13 OFFCURVE",
"443 -1 OFFCURVE",
"485 35 CURVE SMOOTH",
"720 236 LINE SMOOTH",
"740 254 OFFCURVE",
"752 273 OFFCURVE",
"742 292 CURVE SMOOTH",
"733 309 OFFCURVE",
"712 310 OFFCURVE",
"694 295 CURVE SMOOTH",
"437 76 LINE",
"501 321 OFFCURVE",
"511 358 OFFCURVE",
"516 390 CURVE SMOOTH",
"522 432 OFFCURVE",
"500 443 OFFCURVE",
"480 443 CURVE SMOOTH",
"456 443 OFFCURVE",
"442 429 OFFCURVE",
"425 402 CURVE SMOOTH",
"256 134 OFFCURVE",
"219 57 OFFCURVE",
"156 57 CURVE SMOOTH",
"135 57 OFFCURVE",
"103 76 OFFCURVE",
"107 106 CURVE SMOOTH",
"119 195 OFFCURVE",
"147 260 OFFCURVE",
"200 405 CURVE SMOOTH",
"207 424 OFFCURVE",
"192 443 OFFCURVE",
"172 443 CURVE SMOOTH",
"153 443 OFFCURVE",
"138 431 OFFCURVE",
"128 406 CURVE SMOOTH",
"96 326 OFFCURVE",
"53 204 OFFCURVE",
"40 92 CURVE SMOOTH"
);
}
);
width = 600;
}
);
note = u;
unicode = 0075;
},
{
glyphname = uacute;
lastChange = "2018-07-06 16:40:04 +0000";
layers = (
{
layerId = "FFFF8F4E-B79A-404B-9AF7-1E6E36D02A09";
paths = (
{
closed = 1;
nodes = (
"499 588 OFFCURVE",
"485 608 OFFCURVE",
"462 602 CURVE",
"228 555 LINE SMOOTH",
"203 550 OFFCURVE",
"196 533 OFFCURVE",
"198 521 CURVE SMOOTH",
"200 507 OFFCURVE",
"210 492 OFFCURVE",
"238 499 CURVE",
"479 536 LINE",
"505 542 OFFCURVE",
"504 563 OFFCURVE",
"501 578 CURVE SMOOTH"
);
},
{
closed = 1;
nodes = (
"32 24 OFFCURVE",
"92 -13 OFFCURVE",
"143 -13 CURVE SMOOTH",
"232 -13 OFFCURVE",
"304 79 OFFCURVE",
"408 254 CURVE",
"357 58 LINE SMOOTH",
"345 12 OFFCURVE",
"355 -13 OFFCURVE",
"391 -13 CURVE SMOOTH",
"427 -13 OFFCURVE",
"443 -1 OFFCURVE",
"485 35 CURVE SMOOTH",
"720 236 LINE SMOOTH",
"740 254 OFFCURVE",
"752 273 OFFCURVE",
"742 292 CURVE SMOOTH",
"733 309 OFFCURVE",
"712 310 OFFCURVE",
"694 295 CURVE SMOOTH",
"437 76 LINE",
"501 321 OFFCURVE",
"511 358 OFFCURVE",
"516 390 CURVE SMOOTH",
"522 432 OFFCURVE",
"500 443 OFFCURVE",
"480 443 CURVE SMOOTH",
"456 443 OFFCURVE",
"442 429 OFFCURVE",
"425 402 CURVE SMOOTH",
"256 134 OFFCURVE",
"219 57 OFFCURVE",
"156 57 CURVE SMOOTH",
"135 57 OFFCURVE",
"103 76 OFFCURVE",
"107 106 CURVE SMOOTH",
"119 195 OFFCURVE",
"147 260 OFFCURVE",
"200 405 CURVE SMOOTH",
"207 424 OFFCURVE",
"192 443 OFFCURVE",
"172 443 CURVE SMOOTH",
"153 443 OFFCURVE",
"138 431 OFFCURVE",
"128 406 CURVE SMOOTH",
"96 326 OFFCURVE",
"53 204 OFFCURVE",
"40 92 CURVE SMOOTH"
);
}
);
width = 600;
}
);
note = uacute;
unicode = 00FA;
},
{
glyphname = ucircumflex;
lastChange = "2018-07-06 16:40:04 +0000";
layers = (
{
layerId = "FFFF8F4E-B79A-404B-9AF7-1E6E36D02A09";
paths = (
{
closed = 1;
nodes = (
"125 474 OFFCURVE",
"141 459 OFFCURVE",
"161 468 CURVE SMOOTH",
"312 537 LINE",
"463 468 LINE SMOOTH",
"483 459 OFFCURVE",
"499 474 OFFCURVE",
"503 487 CURVE SMOOTH",
"508 502 OFFCURVE",
"505 524 OFFCURVE",
"484 533 CURVE SMOOTH",
"312 608 LINE",
"140 533 LINE SMOOTH",
"119 524 OFFCURVE",
"116 502 OFFCURVE",
"121 487 CURVE SMOOTH"
);
},
{
closed = 1;
nodes = (
"32 24 OFFCURVE",
"92 -13 OFFCURVE",
"143 -13 CURVE SMOOTH",
"232 -13 OFFCURVE",
"304 79 OFFCURVE",
"408 254 CURVE",
"357 58 LINE SMOOTH",
"345 12 OFFCURVE",
"355 -13 OFFCURVE",
"391 -13 CURVE SMOOTH",
"427 -13 OFFCURVE",
"443 -1 OFFCURVE",
"485 35 CURVE SMOOTH",
"720 236 LINE SMOOTH",
"740 254 OFFCURVE",
"752 273 OFFCURVE",
"742 292 CURVE SMOOTH",
"733 309 OFFCURVE",
"712 310 OFFCURVE",
"694 295 CURVE SMOOTH",
"437 76 LINE",
"501 321 OFFCURVE",
"511 358 OFFCURVE",
"516 390 CURVE SMOOTH",
"522 432 OFFCURVE",
"500 443 OFFCURVE",
"480 443 CURVE SMOOTH",
"456 443 OFFCURVE",
"442 429 OFFCURVE",
"425 402 CURVE SMOOTH",
"256 134 OFFCURVE",
"219 57 OFFCURVE",
"156 57 CURVE SMOOTH",
"135 57 OFFCURVE",
"103 76 OFFCURVE",
"107 106 CURVE SMOOTH",
"119 195 OFFCURVE",
"147 260 OFFCURVE",
"200 405 CURVE SMOOTH",
"207 424 OFFCURVE",
"192 443 OFFCURVE",
"172 443 CURVE SMOOTH",
"153 443 OFFCURVE",
"138 431 OFFCURVE",
"128 406 CURVE SMOOTH",
"96 326 OFFCURVE",
"53 204 OFFCURVE",
"40 92 CURVE SMOOTH"
);
}
);
width = 600;
}
);
note = ucircumflex;
unicode = 00FB;
},
{
glyphname = udieresis;
lastChange = "2018-07-06 16:40:04 +0000";
layers = (
{
layerId = "FFFF8F4E-B79A-404B-9AF7-1E6E36D02A09";
paths = (
{
closed = 1;
nodes = (
"297 486 OFFCURVE",
"323 512 OFFCURVE",
"323 542 CURVE SMOOTH",
"323 579 OFFCURVE",
"302 603 OFFCURVE",
"263 603 CURVE SMOOTH",
"228 603 OFFCURVE",
"203 578 OFFCURVE",
"203 540 CURVE SMOOTH",
"203 511 OFFCURVE",
"232 486 OFFCURVE",
"263 486 CURVE SMOOTH"
);
},
{
closed = 1;
nodes = (
"496 486 OFFCURVE",
"522 512 OFFCURVE",
"522 542 CURVE SMOOTH",
"522 579 OFFCURVE",
"501 603 OFFCURVE",
"462 603 CURVE SMOOTH",
"427 603 OFFCURVE",
"402 578 OFFCURVE",
"402 540 CURVE SMOOTH",
"402 511 OFFCURVE",
"431 486 OFFCURVE",
"462 486 CURVE SMOOTH"
);
},
{
closed = 1;
nodes = (
"32 24 OFFCURVE",
"92 -13 OFFCURVE",
"143 -13 CURVE SMOOTH",
"232 -13 OFFCURVE",
"304 79 OFFCURVE",
"408 254 CURVE",
"357 58 LINE SMOOTH",
"345 12 OFFCURVE",
"355 -13 OFFCURVE",
"391 -13 CURVE SMOOTH",
"427 -13 OFFCURVE",
"443 -1 OFFCURVE",
"485 35 CURVE SMOOTH",
"720 236 LINE SMOOTH",
"740 254 OFFCURVE",
"752 273 OFFCURVE",
"742 292 CURVE SMOOTH",
"733 309 OFFCURVE",
"712 310 OFFCURVE",
"694 295 CURVE SMOOTH",
"437 76 LINE",
"501 321 OFFCURVE",
"511 358 OFFCURVE",
"516 390 CURVE SMOOTH",
"522 432 OFFCURVE",
"500 443 OFFCURVE",
"480 443 CURVE SMOOTH",
"456 443 OFFCURVE",
"442 429 OFFCURVE",
"425 402 CURVE SMOOTH",
"256 134 OFFCURVE",
"219 57 OFFCURVE",
"156 57 CURVE SMOOTH",
"135 57 OFFCURVE",
"103 76 OFFCURVE",
"107 106 CURVE SMOOTH",
"119 195 OFFCURVE",
"147 260 OFFCURVE",
"200 405 CURVE SMOOTH",
"207 424 OFFCURVE",
"192 443 OFFCURVE",
"172 443 CURVE SMOOTH",
"153 443 OFFCURVE",
"138 431 OFFCURVE",
"128 406 CURVE SMOOTH",
"96 326 OFFCURVE",
"53 204 OFFCURVE",
"40 92 CURVE SMOOTH"
);
}
);
width = 600;
}
);
note = udieresis;
unicode = 00FC;
},
{
glyphname = ugrave;
lastChange = "2018-07-06 16:40:04 +0000";
layers = (
{
layerId = "FFFF8F4E-B79A-404B-9AF7-1E6E36D02A09";
paths = (
{
closed = 1;
nodes = (
"196 563 OFFCURVE",
"195 542 OFFCURVE",
"221 536 CURVE",
"462 499 LINE",
"490 492 OFFCURVE",
"500 507 OFFCURVE",
"502 521 CURVE SMOOTH",
"504 533 OFFCURVE",
"497 550 OFFCURVE",
"472 555 CURVE SMOOTH",
"238 602 LINE",
"215 608 OFFCURVE",
"201 588 OFFCURVE",
"199 578 CURVE SMOOTH"
);
},
{
closed = 1;
nodes = (
"32 24 OFFCURVE",
"92 -13 OFFCURVE",
"143 -13 CURVE SMOOTH",
"232 -13 OFFCURVE",
"304 79 OFFCURVE",
"408 254 CURVE",
"357 58 LINE SMOOTH",
"345 12 OFFCURVE",
"355 -13 OFFCURVE",
"391 -13 CURVE SMOOTH",
"427 -13 OFFCURVE",
"443 -1 OFFCURVE",
"485 35 CURVE SMOOTH",
"720 236 LINE SMOOTH",
"740 254 OFFCURVE",
"752 273 OFFCURVE",
"742 292 CURVE SMOOTH",
"733 309 OFFCURVE",
"712 310 OFFCURVE",
"694 295 CURVE SMOOTH",
"437 76 LINE",
"501 321 OFFCURVE",
"511 358 OFFCURVE",
"516 390 CURVE SMOOTH",
"522 432 OFFCURVE",
"500 443 OFFCURVE",
"480 443 CURVE SMOOTH",
"456 443 OFFCURVE",
"442 429 OFFCURVE",
"425 402 CURVE SMOOTH",
"256 134 OFFCURVE",
"219 57 OFFCURVE",
"156 57 CURVE SMOOTH",
"135 57 OFFCURVE",
"103 76 OFFCURVE",
"107 106 CURVE SMOOTH",
"119 195 OFFCURVE",
"147 260 OFFCURVE",
"200 405 CURVE SMOOTH",
"207 424 OFFCURVE",
"192 443 OFFCURVE",
"172 443 CURVE SMOOTH",
"153 443 OFFCURVE",
"138 431 OFFCURVE",
"128 406 CURVE SMOOTH",
"96 326 OFFCURVE",
"53 204 OFFCURVE",
"40 92 CURVE SMOOTH"
);
}
);
width = 600;
}
);
note = ugrave;
unicode = 00F9;
},
{
glyphname = v;
lastChange = "2018-07-06 16:40:04 +0000";
layers = (
{
layerId = "FFFF8F4E-B79A-404B-9AF7-1E6E36D02A09";
paths = (
{
closed = 1;
nodes = (
"52 95 LINE SMOOTH",
"32 12 OFFCURVE",
"77 -11 OFFCURVE",
"140 -11 CURVE SMOOTH",
"196 -11 OFFCURVE",
"265 24 OFFCURVE",
"328 74 CURVE",
"350 65 OFFCURVE",
"376 61 OFFCURVE",
"407 61 CURVE SMOOTH",
"481 61 OFFCURVE",
"564 103 OFFCURVE",
"638 166 CURVE SMOOTH",
"720 236 LINE SMOOTH",
"740 253 OFFCURVE",
"752 273 OFFCURVE",
"742 292 CURVE SMOOTH",
"733 309 OFFCURVE",
"712 310 OFFCURVE",
"694 295 CURVE SMOOTH",
"589 205 LINE SMOOTH",
"516 146 OFFCURVE",
"460 115 OFFCURVE",
"385 126 CURVE",
"450 193 OFFCURVE",
"498 271 OFFCURVE",
"498 331 CURVE SMOOTH",
"498 409 OFFCURVE",
"444 443 OFFCURVE",
"384 443 CURVE SMOOTH",
"299 443 OFFCURVE",
"231 372 OFFCURVE",
"231 261 CURVE SMOOTH",
"231 194 OFFCURVE",
"245 143 OFFCURVE",
"276 109 CURVE",
"230 74 OFFCURVE",
"184 51 OFFCURVE",
"150 51 CURVE SMOOTH",
"124 51 OFFCURVE",
"112 58 OFFCURVE",
"122 100 CURVE SMOOTH",
"198 411 LINE SMOOTH",
"202 426 OFFCURVE",
"194 443 OFFCURVE",
"173 443 CURVE SMOOTH",
"149 443 OFFCURVE",
"133 432 OFFCURVE",
"128 411 CURVE SMOOTH"
);
},
{
closed = 1;
nodes = (
"301 343 OFFCURVE",
"339 386 OFFCURVE",
"384 386 CURVE SMOOTH",
"413 386 OFFCURVE",
"429 365 OFFCURVE",
"429 329 CURVE SMOOTH",
"429 279 OFFCURVE",
"384 211 OFFCURVE",
"327 154 CURVE",
"306 180 OFFCURVE",
"301 220 OFFCURVE",
"301 270 CURVE SMOOTH"
);
}
);
width = 600;
}
);
note = v;
unicode = 0076;
},
{
glyphname = w;
lastChange = "2018-07-06 16:40:04 +0000";
layers = (
{
layerId = "FFFF8F4E-B79A-404B-9AF7-1E6E36D02A09";
paths = (
{
closed = 1;
nodes = (
"733 309 OFFCURVE",
"712 310 OFFCURVE",
"694 295 CURVE SMOOTH",
"600 215 LINE SMOOTH",
"579 197 OFFCURVE",
"549 167 OFFCURVE",
"535 167 CURVE SMOOTH",
"526 167 OFFCURVE",
"521 171 OFFCURVE",
"514 178 CURVE",
"554 236 OFFCURVE",
"591 299 OFFCURVE",
"592 337 CURVE SMOOTH",
"595 415 OFFCURVE",
"561 443 OFFCURVE",
"498 443 CURVE SMOOTH",
"421 443 OFFCURVE",
"397 388 OFFCURVE",
"397 336 CURVE SMOOTH",
"397 287 OFFCURVE",
"410 231 OFFCURVE",
"433 185 CURVE",
"403 146 OFFCURVE",
"374 109 OFFCURVE",
"356 89 CURVE SMOOTH",
"331 62 LINE",
"367 272 OFFCURVE",
"368 305 OFFCURVE",
"333 313 CURVE SMOOTH",
"306 319 OFFCURVE",
"286 305 OFFCURVE",
"269 281 CURVE SMOOTH",
"119 67 LINE",
"198 405 LINE SMOOTH",
"202 421 OFFCURVE",
"198 444 OFFCURVE",
"173 444 CURVE SMOOTH",
"142 444 OFFCURVE",
"127 426 OFFCURVE",
"123 405 CURVE SMOOTH",
"67 143 LINE SMOOTH",
"54 80 OFFCURVE",
"34 -12 OFFCURVE",
"97 -12 CURVE SMOOTH",
"157 -12 OFFCURVE",
"193 58 OFFCURVE",
"280 181 CURVE",
"253 53 OFFCURVE",
"260 -13 OFFCURVE",
"323 -13 CURVE SMOOTH",
"350 -13 OFFCURVE",
"380 11 OFFCURVE",
"412 45 CURVE",
"423 58 OFFCURVE",
"449 89 OFFCURVE",
"478 128 CURVE",
"495 113 OFFCURVE",
"515 105 OFFCURVE",
"537 105 CURVE SMOOTH",
"576 105 OFFCURVE",
"607 139 OFFCURVE",
"720 237 CURVE SMOOTH",
"740 255 OFFCURVE",
"752 273 OFFCURVE",
"742 292 CURVE SMOOTH"
);
},
{
closed = 1;
nodes = (
"465 377 OFFCURVE",
"491 380 OFFCURVE",
"501 380 CURVE SMOOTH",
"513 380 OFFCURVE",
"526 369 OFFCURVE",
"526 337 CURVE SMOOTH",
"526 322 OFFCURVE",
"509 285 OFFCURVE",
"482 245 CURVE",
"473 275 OFFCURVE",
"465 311 OFFCURVE",
"465 336 CURVE SMOOTH"
);
}
);
width = 600;
}
);
note = w;
unicode = 0077;
},
{
glyphname = x;
lastChange = "2018-07-06 16:40:04 +0000";
layers = (
{
layerId = "FFFF8F4E-B79A-404B-9AF7-1E6E36D02A09";
paths = (
{
closed = 1;
nodes = (
"733 309 OFFCURVE",
"712 310 OFFCURVE",
"694 295 CURVE SMOOTH",
"497 126 LINE SMOOTH",
"426 66 OFFCURVE",
"392 48 OFFCURVE",
"371 48 CURVE SMOOTH",
"333 48 OFFCURVE",
"323 94 OFFCURVE",
"361 220 CURVE SMOOTH",
"388 309 OFFCURVE",
"476 374 OFFCURVE",
"580 374 CURVE SMOOTH",
"598 374 OFFCURVE",
"615 389 OFFCURVE",
"615 407 CURVE SMOOTH",
"615 423 OFFCURVE",
"605 441 OFFCURVE",
"580 441 CURVE SMOOTH",
"501 441 OFFCURVE",
"430 410 OFFCURVE",
"378 360 CURVE",
"381 412 OFFCURVE",
"360 444 OFFCURVE",
"299 444 CURVE SMOOTH",
"278 444 OFFCURVE",
"258 435 OFFCURVE",
"239 419 CURVE SMOOTH",
"74 278 LINE",
"36 243 OFFCURVE",
"75 199 OFFCURVE",
"112 229 CURVE SMOOTH",
"258 354 LINE SMOOTH",
"274 368 OFFCURVE",
"282 374 OFFCURVE",
"292 374 CURVE SMOOTH",
"335 374 OFFCURVE",
"325 300 OFFCURVE",
"299 224 CURVE SMOOTH",
"258 103 OFFCURVE",
"158 54 OFFCURVE",
"63 54 CURVE SMOOTH",
"45 54 OFFCURVE",
"28 39 OFFCURVE",
"28 21 CURVE SMOOTH",
"28 5 OFFCURVE",
"38 -13 OFFCURVE",
"63 -13 CURVE SMOOTH",
"136 -13 OFFCURVE",
"224 7 OFFCURVE",
"274 72 CURVE",
"274 15 OFFCURVE",
"305 -13 OFFCURVE",
"359 -13 CURVE SMOOTH",
"403 -13 OFFCURVE",
"452 7 OFFCURVE",
"497 45 CURVE SMOOTH",
"720 236 LINE SMOOTH",
"739 253 OFFCURVE",
"752 273 OFFCURVE",
"742 292 CURVE SMOOTH"
);
}
);
width = 600;
}
);
note = x;
unicode = 0078;
},
{
glyphname = y;
lastChange = "2018-07-06 16:40:04 +0000";
layers = (
{
layerId = "FFFF8F4E-B79A-404B-9AF7-1E6E36D02A09";
paths = (
{
closed = 1;
nodes = (
"733 309 OFFCURVE",
"712 310 OFFCURVE",
"694 295 CURVE SMOOTH",
"430 72 LINE",
"436 90 OFFCURVE",
"515 386 OFFCURVE",
"517 395 CURVE SMOOTH",
"526 433 OFFCURVE",
"499 443 OFFCURVE",
"480 443 CURVE SMOOTH",
"456 443 OFFCURVE",
"442 429 OFFCURVE",
"425 402 CURVE SMOOTH",
"261 134 OFFCURVE",
"218 57 OFFCURVE",
"155 57 CURVE SMOOTH",
"134 57 OFFCURVE",
"102 76 OFFCURVE",
"106 106 CURVE SMOOTH",
"118 195 OFFCURVE",
"146 260 OFFCURVE",
"199 405 CURVE SMOOTH",
"206 424 OFFCURVE",
"191 443 OFFCURVE",
"171 443 CURVE SMOOTH",
"152 443 OFFCURVE",
"137 431 OFFCURVE",
"127 406 CURVE SMOOTH",
"95 326 OFFCURVE",
"52 204 OFFCURVE",
"39 92 CURVE SMOOTH",
"31 24 OFFCURVE",
"91 -13 OFFCURVE",
"142 -13 CURVE SMOOTH",
"231 -13 OFFCURVE",
"309 97 OFFCURVE",
"413 272 CURVE",
"371 89 LINE SMOOTH",
"353 11 OFFCURVE",
"338 -10 OFFCURVE",
"269 -69 CURVE SMOOTH",
"239 -95 OFFCURVE",
"213 -109 OFFCURVE",
"184 -110 CURVE SMOOTH",
"164 -111 OFFCURVE",
"149 -122 OFFCURVE",
"149 -139 CURVE SMOOTH",
"149 -161 OFFCURVE",
"165 -173 OFFCURVE",
"191 -173 CURVE SMOOTH",
"220 -173 OFFCURVE",
"252 -165 OFFCURVE",
"414 -26 CURVE SMOOTH",
"720 236 LINE SMOOTH",
"740 253 OFFCURVE",
"752 273 OFFCURVE",
"742 292 CURVE SMOOTH"
);
}
);
width = 600;
}
);
note = y;
unicode = 0079;
},
{
glyphname = yacute;
lastChange = "2018-07-06 16:40:04 +0000";
layers = (
{
layerId = "FFFF8F4E-B79A-404B-9AF7-1E6E36D02A09";
paths = (
{
closed = 1;
nodes = (
"499 588 OFFCURVE",
"485 608 OFFCURVE",
"462 602 CURVE",
"228 555 LINE SMOOTH",
"203 550 OFFCURVE",
"196 533 OFFCURVE",
"198 521 CURVE SMOOTH",
"200 507 OFFCURVE",
"210 492 OFFCURVE",
"238 499 CURVE",
"479 536 LINE",
"505 542 OFFCURVE",
"504 563 OFFCURVE",
"501 578 CURVE SMOOTH"
);
},
{
closed = 1;
nodes = (
"733 309 OFFCURVE",
"712 310 OFFCURVE",
"694 295 CURVE SMOOTH",
"430 72 LINE",
"436 90 OFFCURVE",
"515 386 OFFCURVE",
"517 395 CURVE SMOOTH",
"526 433 OFFCURVE",
"499 443 OFFCURVE",
"480 443 CURVE SMOOTH",
"456 443 OFFCURVE",
"442 429 OFFCURVE",
"425 402 CURVE SMOOTH",
"261 134 OFFCURVE",
"218 57 OFFCURVE",
"155 57 CURVE SMOOTH",
"134 57 OFFCURVE",
"102 76 OFFCURVE",
"106 106 CURVE SMOOTH",
"118 195 OFFCURVE",
"146 260 OFFCURVE",
"199 405 CURVE SMOOTH",
"206 424 OFFCURVE",
"191 443 OFFCURVE",
"171 443 CURVE SMOOTH",
"152 443 OFFCURVE",
"137 431 OFFCURVE",
"127 406 CURVE SMOOTH",
"95 326 OFFCURVE",
"52 204 OFFCURVE",
"39 92 CURVE SMOOTH",
"31 24 OFFCURVE",
"91 -13 OFFCURVE",
"142 -13 CURVE SMOOTH",
"231 -13 OFFCURVE",
"309 97 OFFCURVE",
"413 272 CURVE",
"371 89 LINE SMOOTH",
"353 11 OFFCURVE",
"338 -10 OFFCURVE",
"269 -69 CURVE SMOOTH",
"239 -95 OFFCURVE",
"213 -109 OFFCURVE",
"184 -110 CURVE SMOOTH",
"164 -111 OFFCURVE",
"149 -122 OFFCURVE",
"149 -139 CURVE SMOOTH",
"149 -161 OFFCURVE",
"165 -173 OFFCURVE",
"191 -173 CURVE SMOOTH",
"220 -173 OFFCURVE",
"252 -165 OFFCURVE",
"414 -26 CURVE SMOOTH",
"720 236 LINE SMOOTH",
"740 253 OFFCURVE",
"752 273 OFFCURVE",
"742 292 CURVE SMOOTH"
);
}
);
width = 600;
}
);
note = yacute;
unicode = 00FD;
},
{
glyphname = ydieresis;
lastChange = "2018-07-06 16:40:04 +0000";
layers = (
{
layerId = "FFFF8F4E-B79A-404B-9AF7-1E6E36D02A09";
paths = (
{
closed = 1;
nodes = (
"297 486 OFFCURVE",
"323 512 OFFCURVE",
"323 542 CURVE SMOOTH",
"323 579 OFFCURVE",
"302 603 OFFCURVE",
"263 603 CURVE SMOOTH",
"228 603 OFFCURVE",
"203 578 OFFCURVE",
"203 540 CURVE SMOOTH",
"203 511 OFFCURVE",
"232 486 OFFCURVE",
"263 486 CURVE SMOOTH"
);
},
{
closed = 1;
nodes = (
"496 486 OFFCURVE",
"522 512 OFFCURVE",
"522 542 CURVE SMOOTH",
"522 579 OFFCURVE",
"501 603 OFFCURVE",
"462 603 CURVE SMOOTH",
"427 603 OFFCURVE",
"402 578 OFFCURVE",
"402 540 CURVE SMOOTH",
"402 511 OFFCURVE",
"431 486 OFFCURVE",
"462 486 CURVE SMOOTH"
);
},
{
closed = 1;
nodes = (
"733 309 OFFCURVE",
"712 310 OFFCURVE",
"694 295 CURVE SMOOTH",
"430 72 LINE",
"436 90 OFFCURVE",
"515 386 OFFCURVE",
"517 395 CURVE SMOOTH",
"526 433 OFFCURVE",
"499 443 OFFCURVE",
"480 443 CURVE SMOOTH",
"456 443 OFFCURVE",
"442 429 OFFCURVE",
"425 402 CURVE SMOOTH",
"261 134 OFFCURVE",
"218 57 OFFCURVE",
"155 57 CURVE SMOOTH",
"134 57 OFFCURVE",
"102 76 OFFCURVE",
"106 106 CURVE SMOOTH",
"118 195 OFFCURVE",
"146 260 OFFCURVE",
"199 405 CURVE SMOOTH",
"206 424 OFFCURVE",
"191 443 OFFCURVE",
"171 443 CURVE SMOOTH",
"152 443 OFFCURVE",
"137 431 OFFCURVE",
"127 406 CURVE SMOOTH",
"95 326 OFFCURVE",
"52 204 OFFCURVE",
"39 92 CURVE SMOOTH",
"31 24 OFFCURVE",
"91 -13 OFFCURVE",
"142 -13 CURVE SMOOTH",
"231 -13 OFFCURVE",
"309 97 OFFCURVE",
"413 272 CURVE",
"371 89 LINE SMOOTH",
"353 11 OFFCURVE",
"338 -10 OFFCURVE",
"269 -69 CURVE SMOOTH",
"239 -95 OFFCURVE",
"213 -109 OFFCURVE",
"184 -110 CURVE SMOOTH",
"164 -111 OFFCURVE",
"149 -122 OFFCURVE",
"149 -139 CURVE SMOOTH",
"149 -161 OFFCURVE",
"165 -173 OFFCURVE",
"191 -173 CURVE SMOOTH",
"220 -173 OFFCURVE",
"252 -165 OFFCURVE",
"414 -26 CURVE SMOOTH",
"720 236 LINE SMOOTH",
"740 253 OFFCURVE",
"752 273 OFFCURVE",
"742 292 CURVE SMOOTH"
);
}
);
width = 600;
}
);
note = ydieresis;
unicode = 00FF;
},
{
glyphname = z;
lastChange = "2018-07-06 16:40:04 +0000";
layers = (
{
layerId = "FFFF8F4E-B79A-404B-9AF7-1E6E36D02A09";
paths = (
{
closed = 1;
nodes = (
"14 158 OFFCURVE",
"38 167 OFFCURVE",
"54 181 CURVE SMOOTH",
"160 274 LINE",
"280 377 LINE",
"335 353 LINE",
"358 344 OFFCURVE",
"380 337 OFFCURVE",
"349 303 CURVE SMOOTH",
"204 145 LINE SMOOTH",
"163 101 OFFCURVE",
"220 75 OFFCURVE",
"243 84 CURVE SMOOTH",
"343 123 OFFCURVE",
"394 38 OFFCURVE",
"350 0 CURVE SMOOTH",
"269 -69 LINE SMOOTH",
"239 -94 OFFCURVE",
"213 -109 OFFCURVE",
"184 -110 CURVE SMOOTH",
"164 -111 OFFCURVE",
"149 -122 OFFCURVE",
"149 -139 CURVE SMOOTH",
"149 -161 OFFCURVE",
"165 -173 OFFCURVE",
"191 -173 CURVE SMOOTH",
"220 -173 OFFCURVE",
"252 -165 OFFCURVE",
"414 -26 CURVE SMOOTH",
"720 236 LINE SMOOTH",
"739 253 OFFCURVE",
"752 273 OFFCURVE",
"742 292 CURVE SMOOTH",
"733 309 OFFCURVE",
"712 310 OFFCURVE",
"694 295 CURVE SMOOTH",
"421 61 LINE",
"417 128 OFFCURVE",
"338 171 OFFCURVE",
"278 146 CURVE",
"423 296 LINE SMOOTH",
"461 336 OFFCURVE",
"442 381 OFFCURVE",
"409 395 CURVE SMOOTH",
"298 442 LINE",
"289 502 LINE SMOOTH",
"284 537 OFFCURVE",
"218 532 OFFCURVE",
"226 483 CURVE SMOOTH",
"236 419 LINE",
"147 341 LINE",
"30 242 LINE SMOOTH",
"11 226 OFFCURVE",
"-5 203 OFFCURVE",
"3 184 CURVE SMOOTH"
);
}
);
width = 600;
}
);
note = z;
unicode = 007A;
},
{
glyphname = zcaron;
lastChange = "2018-07-06 16:40:04 +0000";
layers = (
{
layerId = "FFFF8F4E-B79A-404B-9AF7-1E6E36D02A09";
paths = (
{
closed = 1;
nodes = (
"565 635 OFFCURVE",
"549 650 OFFCURVE",
"529 641 CURVE SMOOTH",
"378 572 LINE",
"227 641 LINE SMOOTH",
"207 650 OFFCURVE",
"191 635 OFFCURVE",
"187 622 CURVE SMOOTH",
"182 607 OFFCURVE",
"185 585 OFFCURVE",
"206 576 CURVE SMOOTH",
"378 501 LINE",
"550 576 LINE SMOOTH",
"571 585 OFFCURVE",
"574 607 OFFCURVE",
"569 622 CURVE SMOOTH"
);
},
{
closed = 1;
nodes = (
"14 158 OFFCURVE",
"38 167 OFFCURVE",
"54 181 CURVE SMOOTH",
"160 274 LINE",
"280 377 LINE",
"335 353 LINE",
"358 344 OFFCURVE",
"380 337 OFFCURVE",
"349 303 CURVE SMOOTH",
"204 145 LINE SMOOTH",
"163 101 OFFCURVE",
"220 75 OFFCURVE",
"243 84 CURVE SMOOTH",
"343 123 OFFCURVE",
"394 38 OFFCURVE",
"350 0 CURVE SMOOTH",
"269 -69 LINE SMOOTH",
"239 -94 OFFCURVE",
"213 -109 OFFCURVE",
"184 -110 CURVE SMOOTH",
"164 -111 OFFCURVE",
"149 -122 OFFCURVE",
"149 -139 CURVE SMOOTH",
"149 -161 OFFCURVE",
"165 -173 OFFCURVE",
"191 -173 CURVE SMOOTH",
"220 -173 OFFCURVE",
"252 -165 OFFCURVE",
"414 -26 CURVE SMOOTH",
"720 236 LINE SMOOTH",
"739 253 OFFCURVE",
"752 273 OFFCURVE",
"742 292 CURVE SMOOTH",
"733 309 OFFCURVE",
"712 310 OFFCURVE",
"694 295 CURVE SMOOTH",
"421 61 LINE",
"417 128 OFFCURVE",
"338 171 OFFCURVE",
"278 146 CURVE",
"423 296 LINE SMOOTH",
"461 336 OFFCURVE",
"442 381 OFFCURVE",
"409 395 CURVE SMOOTH",
"298 442 LINE",
"289 502 LINE SMOOTH",
"284 537 OFFCURVE",
"218 532 OFFCURVE",
"226 483 CURVE SMOOTH",
"236 419 LINE",
"147 341 LINE",
"30 242 LINE SMOOTH",
"11 226 OFFCURVE",
"-5 203 OFFCURVE",
"3 184 CURVE SMOOTH"
);
}
);
width = 600;
}
);
note = zcaron;
unicode = 017E;
},
{
glyphname = fi;
lastChange = "2018-07-06 16:40:04 +0000";
layers = (
{
layerId = "FFFF8F4E-B79A-404B-9AF7-1E6E36D02A09";
paths = (
{
closed = 1;
nodes = (
"1026 489 OFFCURVE",
"1052 515 OFFCURVE",
"1052 545 CURVE SMOOTH",
"1052 582 OFFCURVE",
"1031 606 OFFCURVE",
"992 606 CURVE SMOOTH",
"957 606 OFFCURVE",
"932 581 OFFCURVE",
"932 543 CURVE SMOOTH",
"932 514 OFFCURVE",
"961 489 OFFCURVE",
"992 489 CURVE SMOOTH"
);
},
{
closed = 1;
nodes = (
"1333 309 OFFCURVE",
"1312 310 OFFCURVE",
"1294 295 CURVE SMOOTH",
"1207 221 OFFCURVE",
"1122 148 OFFCURVE",
"1036 74 CURVE SMOOTH",
"1015 56 OFFCURVE",
"988 48 OFFCURVE",
"971 48 CURVE SMOOTH",
"937 48 OFFCURVE",
"911 70 OFFCURVE",
"925 127 CURVE SMOOTH",
"978 346 LINE SMOOTH",
"991 399 OFFCURVE",
"953 444 OFFCURVE",
"899 444 CURVE SMOOTH",
"878 444 OFFCURVE",
"858 435 OFFCURVE",
"839 419 CURVE SMOOTH",
"554 176 LINE SMOOTH",
"457 94 OFFCURVE",
"389 52 OFFCURVE",
"321 52 CURVE SMOOTH",
"289 52 OFFCURVE",
"265 61 OFFCURVE",
"253 79 CURVE",
"335 416 LINE",
"407 472 OFFCURVE",
"442 512 OFFCURVE",
"442 551 CURVE SMOOTH",
"442 577 OFFCURVE",
"425 603 OFFCURVE",
"388 603 CURVE SMOOTH",
"336 603 OFFCURVE",
"295 571 OFFCURVE",
"281 512 CURVE SMOOTH",
"263 438 LINE",
"13 226 LINE SMOOTH",
"1 216 OFFCURVE",
"-6 201 OFFCURVE",
"10 183 CURVE SMOOTH",
"27 164 OFFCURVE",
"45 173 OFFCURVE",
"58 183 CURVE",
"245 345 LINE",
"175 68 LINE SMOOTH",
"144 -56 OFFCURVE",
"114 -97 OFFCURVE",
"90 -113 CURVE SMOOTH",
"73 -124 OFFCURVE",
"66 -140 OFFCURVE",
"74 -155 CURVE SMOOTH",
"85 -175 OFFCURVE",
"104 -178 OFFCURVE",
"127 -165 CURVE SMOOTH",
"148 -153 OFFCURVE",
"196 -102 OFFCURVE",
"233 8 CURVE",
"254 -7 OFFCURVE",
"282 -13 OFFCURVE",
"307 -13 CURVE SMOOTH",
"387 -13 OFFCURVE",
"464 16 OFFCURVE",
"581 117 CURVE SMOOTH",
"710 227 LINE",
"712 229 LINE",
"858 354 LINE SMOOTH",
"874 368 OFFCURVE",
"882 374 OFFCURVE",
"892 374 CURVE SMOOTH",
"909 374 OFFCURVE",
"916 360 OFFCURVE",
"910 336 CURVE SMOOTH",
"856 110 LINE SMOOTH",
"838 35 OFFCURVE",
"887 -13 OFFCURVE",
"959 -13 CURVE SMOOTH",
"999 -13 OFFCURVE",
"1046 2 OFFCURVE",
"1085 35 CURVE SMOOTH",
"1320 236 LINE SMOOTH",
"1340 254 OFFCURVE",
"1352 273 OFFCURVE",
"1342 292 CURVE SMOOTH"
);
}
);
width = 1200;
}
);
note = fi;
unicode = FB01;
},
{
glyphname = ordfeminine;
lastChange = "2018-07-06 16:40:04 +0000";
layers = (
{
layerId = "FFFF8F4E-B79A-404B-9AF7-1E6E36D02A09";
paths = (
{
closed = 1;
nodes = (
"31 34 OFFCURVE",
"56 -12 OFFCURVE",
"120 -12 CURVE SMOOTH",
"179 -12 OFFCURVE",
"288 126 OFFCURVE",
"390 245 CURVE",
"357 58 LINE SMOOTH",
"349 14 OFFCURVE",
"355 -13 OFFCURVE",
"391 -13 CURVE SMOOTH",
"427 -13 OFFCURVE",
"443 -1 OFFCURVE",
"485 35 CURVE SMOOTH",
"720 236 LINE SMOOTH",
"740 254 OFFCURVE",
"752 273 OFFCURVE",
"742 292 CURVE SMOOTH",
"733 309 OFFCURVE",
"712 310 OFFCURVE",
"694 295 CURVE SMOOTH",
"434 74 LINE",
"476 297 LINE SMOOTH",
"481 324 OFFCURVE",
"465 345 OFFCURVE",
"439 345 CURVE SMOOTH",
"416 345 OFFCURVE",
"395 334 OFFCURVE",
"384 322 CURVE SMOOTH",
"197 119 OFFCURVE",
"147 58 OFFCURVE",
"120 58 CURVE SMOOTH",
"107 58 OFFCURVE",
"102 76 OFFCURVE",
"102 100 CURVE SMOOTH",
"102 243 OFFCURVE",
"212 372 OFFCURVE",
"379 372 CURVE SMOOTH",
"424 372 OFFCURVE",
"455 363 OFFCURVE",
"481 353 CURVE SMOOTH",
"491 349 OFFCURVE",
"511 351 OFFCURVE",
"520 365 CURVE SMOOTH",
"530 380 OFFCURVE",
"529 403 OFFCURVE",
"518 412 CURVE",
"486 436 OFFCURVE",
"447 443 OFFCURVE",
"380 443 CURVE SMOOTH",
"155 443 OFFCURVE",
"31 270 OFFCURVE",
"31 100 CURVE SMOOTH"
);
}
);
width = 600;
}
);
note = ordfeminine;
unicode = 00AA;
},
{
glyphname = ordmasculine;
lastChange = "2018-07-06 16:40:04 +0000";
layers = (
{
layerId = "FFFF8F4E-B79A-404B-9AF7-1E6E36D02A09";
paths = (
{
closed = 1;
nodes = (
"63 29 OFFCURVE",
"133 -12 OFFCURVE",
"216 -12 CURVE SMOOTH",
"260 -12 OFFCURVE",
"308 3 OFFCURVE",
"356 35 CURVE",
"377 28 OFFCURVE",
"392 25 OFFCURVE",
"412 25 CURVE SMOOTH",
"478 25 OFFCURVE",
"492 41 OFFCURVE",
"727 242 CURVE",
"744 259 OFFCURVE",
"751 275 OFFCURVE",
"742 292 CURVE SMOOTH",
"733 309 OFFCURVE",
"712 311 OFFCURVE",
"694 295 CURVE SMOOTH",
"465 100 OFFCURVE",
"460 90 OFFCURVE",
"422 90 CURVE",
"473 143 OFFCURVE",
"504 204 OFFCURVE",
"504 266 CURVE SMOOTH",
"504 399 OFFCURVE",
"439 444 OFFCURVE",
"351 444 CURVE SMOOTH",
"191 444 OFFCURVE",
"63 315 OFFCURVE",
"63 162 CURVE SMOOTH"
);
},
{
closed = 1;
nodes = (
"129 291 OFFCURVE",
"237 380 OFFCURVE",
"369 378 CURVE",
"284 357 OFFCURVE",
"237 271 OFFCURVE",
"237 204 CURVE SMOOTH",
"237 148 OFFCURVE",
"257 101 OFFCURVE",
"292 69 CURVE",
"267 59 OFFCURVE",
"247 47 OFFCURVE",
"217 47 CURVE SMOOTH",
"158 49 OFFCURVE",
"129 90 OFFCURVE",
"129 170 CURVE SMOOTH"
);
},
{
closed = 1;
nodes = (
"302 261 OFFCURVE",
"353 328 OFFCURVE",
"423 330 CURVE",
"435 316 OFFCURVE",
"437 295 OFFCURVE",
"437 266 CURVE SMOOTH",
"437 203 OFFCURVE",
"398 145 OFFCURVE",
"352 106 CURVE",
"321 127 OFFCURVE",
"302 164 OFFCURVE",
"302 206 CURVE SMOOTH"
);
}
);
width = 600;
}
);
note = ordmasculine;
unicode = 00BA;
},
{
glyphname = Delta;
lastChange = "2018-07-06 16:40:04 +0000";
layers = (
{
layerId = "FFFF8F4E-B79A-404B-9AF7-1E6E36D02A09";
paths = (
{
closed = 1;
nodes = (
"337 576 LINE SMOOTH",
"330 594 OFFCURVE",
"316 603 OFFCURVE",
"299 603 CURVE SMOOTH",
"281 603 OFFCURVE",
"263 590 OFFCURVE",
"257 576 CURVE SMOOTH",
"61 86 LINE SMOOTH",
"56 73 OFFCURVE",
"38 39 OFFCURVE",
"53 11 CURVE SMOOTH",
"69 -20 OFFCURVE",
"97 -20 OFFCURVE",
"112 -20 CURVE SMOOTH",
"501 -20 LINE SMOOTH",
"516 -20 OFFCURVE",
"535 -13 OFFCURVE",
"548 11 CURVE SMOOTH",
"563 38 OFFCURVE",
"545 73 OFFCURVE",
"540 86 CURVE SMOOTH"
);
},
{
closed = 1;
nodes = (
"125 52 LINE",
"297 475 LINE",
"469 52 LINE"
);
}
);
width = 600;
}
);
note = uni0394;
unicode = 0394;
},
{
glyphname = Omega;
lastChange = "2018-07-06 16:40:04 +0000";
layers = (
{
layerId = "FFFF8F4E-B79A-404B-9AF7-1E6E36D02A09";
paths = (
{
closed = 1;
nodes = (
"429 55 LINE",
"524 195 OFFCURVE",
"563 271 OFFCURVE",
"563 352 CURVE SMOOTH",
"563 412 OFFCURVE",
"539 473 OFFCURVE",
"496 520 CURVE SMOOTH",
"447 573 OFFCURVE",
"379 603 OFFCURVE",
"298 603 CURVE SMOOTH",
"217 603 OFFCURVE",
"148 574 OFFCURVE",
"100 520 CURVE SMOOTH",
"58 472 OFFCURVE",
"33 412 OFFCURVE",
"33 352 CURVE SMOOTH",
"33 266 OFFCURVE",
"68 199 OFFCURVE",
"167 55 CURVE",
"72 55 LINE SMOOTH",
"58 55 OFFCURVE",
"35 47 OFFCURVE",
"35 22 CURVE SMOOTH",
"35 0 OFFCURVE",
"59 -13 OFFCURVE",
"72 -13 CURVE SMOOTH",
"196 -13 LINE SMOOTH",
"217 -13 OFFCURVE",
"240 -6 OFFCURVE",
"248 10 CURVE SMOOTH",
"257 28 OFFCURVE",
"250 45 OFFCURVE",
"239 63 CURVE SMOOTH",
"138 228 OFFCURVE",
"100 266 OFFCURVE",
"100 351 CURVE SMOOTH",
"100 395 OFFCURVE",
"118 440 OFFCURVE",
"148 473 CURVE SMOOTH",
"185 514 OFFCURVE",
"234 535 OFFCURVE",
"298 535 CURVE SMOOTH",
"361 535 OFFCURVE",
"410 514 OFFCURVE",
"447 473 CURVE SMOOTH",
"477 440 OFFCURVE",
"495 395 OFFCURVE",
"495 351 CURVE SMOOTH",
"495 274 OFFCURVE",
"448 213 OFFCURVE",
"357 63 CURVE",
"347 45 OFFCURVE",
"339 28 OFFCURVE",
"348 10 CURVE SMOOTH",
"356 -6 OFFCURVE",
"379 -13 OFFCURVE",
"400 -13 CURVE SMOOTH",
"534 -13 LINE SMOOTH",
"547 -13 OFFCURVE",
"571 0 OFFCURVE",
"571 22 CURVE SMOOTH",
"571 47 OFFCURVE",
"548 55 OFFCURVE",
"534 55 CURVE SMOOTH"
);
}
);
width = 600;
}
);
note = uni03A9;
unicode = 03A9;
},
{
glyphname = mu;
lastChange = "2018-08-08 16:39:44 +0000";
layers = (
{
layerId = "FFFF8F4E-B79A-404B-9AF7-1E6E36D02A09";
paths = (
{
closed = 1;
nodes = (
"32 24 OFFCURVE",
"92 -13 OFFCURVE",
"143 -13 CURVE SMOOTH",
"232 -13 OFFCURVE",
"304 79 OFFCURVE",
"408 254 CURVE",
"357 58 LINE SMOOTH",
"345 12 OFFCURVE",
"355 -13 OFFCURVE",
"391 -13 CURVE SMOOTH",
"427 -13 OFFCURVE",
"443 -1 OFFCURVE",
"485 35 CURVE SMOOTH",
"720 236 LINE SMOOTH",
"740 254 OFFCURVE",
"752 273 OFFCURVE",
"742 292 CURVE SMOOTH",
"733 309 OFFCURVE",
"712 310 OFFCURVE",
"694 295 CURVE SMOOTH",
"437 76 LINE",
"501 321 OFFCURVE",
"511 358 OFFCURVE",
"516 390 CURVE SMOOTH",
"522 432 OFFCURVE",
"500 443 OFFCURVE",
"480 443 CURVE SMOOTH",
"456 443 OFFCURVE",
"442 429 OFFCURVE",
"425 402 CURVE SMOOTH",
"256 134 OFFCURVE",
"219 57 OFFCURVE",
"156 57 CURVE SMOOTH",
"135 57 OFFCURVE",
"103 76 OFFCURVE",
"107 106 CURVE SMOOTH",
"119 195 OFFCURVE",
"147 260 OFFCURVE",
"200 405 CURVE SMOOTH",
"207 424 OFFCURVE",
"192 443 OFFCURVE",
"172 443 CURVE SMOOTH",
"153 443 OFFCURVE",
"138 431 OFFCURVE",
"128 406 CURVE SMOOTH",
"96 326 OFFCURVE",
"53 204 OFFCURVE",
"40 92 CURVE SMOOTH"
);
},
{
closed = 1;
nodes = (
"59 -167 OFFCURVE",
"76 -180 OFFCURVE",
"95 -177 CURVE SMOOTH",
"118 -173 OFFCURVE",
"122 -156 OFFCURVE",
"115 -128 CURVE SMOOTH",
"92 -36 OFFCURVE",
"87 -5 OFFCURVE",
"114 151 CURVE SMOOTH",
"122 197 OFFCURVE",
"46 146 OFFCURVE",
"40 92 CURVE SMOOTH",
"28 -9 OFFCURVE",
"28 -57 OFFCURVE",
"52 -142 CURVE SMOOTH"
);
}
);
width = 600;
}
);
note = uni03BC;
unicode = 03BC;
},
{
glyphname = pi;
lastChange = "2018-07-06 16:40:04 +0000";
layers = (
{
layerId = "FFFF8F4E-B79A-404B-9AF7-1E6E36D02A09";
paths = (
{
closed = 1;
nodes = (
"521 180 OFFCURVE",
"503 168 OFFCURVE",
"496 152 CURVE SMOOTH",
"470 97 LINE SMOOTH",
"451 58 OFFCURVE",
"433 49 OFFCURVE",
"433 99 CURVE SMOOTH",
"433 372 LINE",
"490 372 LINE SMOOTH",
"503 372 OFFCURVE",
"517 392 OFFCURVE",
"517 407 CURVE SMOOTH",
"517 424 OFFCURVE",
"506 443 OFFCURVE",
"490 443 CURVE SMOOTH",
"69 443 LINE SMOOTH",
"56 443 OFFCURVE",
"42 424 OFFCURVE",
"42 407 CURVE SMOOTH",
"42 392 OFFCURVE",
"56 372 OFFCURVE",
"69 372 CURVE SMOOTH",
"126 372 LINE",
"126 0 LINE",
"197 0 LINE",
"197 372 LINE",
"361 372 LINE",
"361 104 LINE SMOOTH",
"361 54 OFFCURVE",
"387 0 OFFCURVE",
"439 0 CURVE SMOOTH",
"475 0 OFFCURVE",
"507 23 OFFCURVE",
"525 62 CURVE SMOOTH",
"553 124 LINE SMOOTH",
"562 143 OFFCURVE",
"553 166 OFFCURVE",
"539 172 CURVE SMOOTH"
);
}
);
width = 600;
}
);
note = pi;
unicode = 03C0;
},
{
glyphname = zero;
lastChange = "2018-07-06 16:40:04 +0000";
layers = (
{
layerId = "FFFF8F4E-B79A-404B-9AF7-1E6E36D02A09";
paths = (
{
closed = 1;
nodes = (
"359 -13 OFFCURVE",
"476 89 OFFCURVE",
"506 215 CURVE SMOOTH",
"536 341 OFFCURVE",
"470 443 OFFCURVE",
"357 443 CURVE SMOOTH",
"243 443 OFFCURVE",
"127 341 OFFCURVE",
"95 215 CURVE SMOOTH",
"63 89 OFFCURVE",
"132 -13 OFFCURVE",
"246 -13 CURVE SMOOTH"
);
},
{
closed = 1;
nodes = (
"189 66 OFFCURVE",
"145 133 OFFCURVE",
"166 215 CURVE SMOOTH",
"187 296 OFFCURVE",
"263 363 OFFCURVE",
"336 363 CURVE SMOOTH",
"409 363 OFFCURVE",
"452 296 OFFCURVE",
"433 215 CURVE SMOOTH",
"414 133 OFFCURVE",
"338 66 OFFCURVE",
"264 66 CURVE SMOOTH"
);
}
);
width = 600;
}
);
note = zero;
unicode = 0030;
},
{
glyphname = one;
lastChange = "2018-07-06 16:40:04 +0000";
layers = (
{
layerId = "FFFF8F4E-B79A-404B-9AF7-1E6E36D02A09";
paths = (
{
closed = 1;
nodes = (
"396 445 OFFCURVE",
"386 438 OFFCURVE",
"379 429 CURVE",
"322 371 OFFCURVE",
"286 328 OFFCURVE",
"228 307 CURVE SMOOTH",
"193 294 OFFCURVE",
"164 298 OFFCURVE",
"146 298 CURVE SMOOTH",
"128 298 OFFCURVE",
"100 288 OFFCURVE",
"100 262 CURVE SMOOTH",
"100 237 OFFCURVE",
"125 228 OFFCURVE",
"142 228 CURVE SMOOTH",
"161 228 OFFCURVE",
"176 223 OFFCURVE",
"228 237 CURVE SMOOTH",
"277 250 OFFCURVE",
"311 271 OFFCURVE",
"340 295 CURVE",
"279 46 LINE",
"271 19 OFFCURVE",
"272 -13 OFFCURVE",
"301 -12 CURVE SMOOTH",
"334 -11 OFFCURVE",
"341 14 OFFCURVE",
"350 51 CURVE SMOOTH",
"434 385 LINE SMOOTH",
"440 412 OFFCURVE",
"445 446 OFFCURVE",
"411 445 CURVE SMOOTH"
);
}
);
width = 600;
}
);
note = one;
unicode = 0031;
},
{
glyphname = two;
lastChange = "2018-07-06 16:40:04 +0000";
layers = (
{
layerId = "FFFF8F4E-B79A-404B-9AF7-1E6E36D02A09";
paths = (
{
closed = 1;
nodes = (
"130 -6 OFFCURVE",
"161 -11 OFFCURVE",
"172 -11 CURVE SMOOTH",
"396 -11 LINE SMOOTH",
"415 -11 OFFCURVE",
"425 11 OFFCURVE",
"425 23 CURVE SMOOTH",
"425 37 OFFCURVE",
"416 59 OFFCURVE",
"396 59 CURVE SMOOTH",
"257 59 LINE",
"447 197 OFFCURVE",
"464 246 OFFCURVE",
"472 283 CURVE SMOOTH",
"496 396 OFFCURVE",
"425 443 OFFCURVE",
"332 443 CURVE SMOOTH",
"256 443 OFFCURVE",
"218 415 OFFCURVE",
"177 382 CURVE",
"161 373 OFFCURVE",
"163 349 OFFCURVE",
"171 338 CURVE SMOOTH",
"178 328 OFFCURVE",
"197 313 OFFCURVE",
"214 324 CURVE",
"261 357 OFFCURVE",
"292 379 OFFCURVE",
"332 379 CURVE SMOOTH",
"364 379 OFFCURVE",
"411 357 OFFCURVE",
"406 304 CURVE SMOOTH",
"403 277 OFFCURVE",
"373 217 OFFCURVE",
"153 58 CURVE SMOOTH",
"138 47 OFFCURVE",
"130 38 OFFCURVE",
"130 19 CURVE SMOOTH"
);
}
);
width = 600;
}
);
note = two;
unicode = 0032;
},
